<svg width="100" height="35" viewBox="0 0 100 35" fill="none" xmlns="http://www.w3.org/2000/svg">
<rect width="100" height="35" rx="5" fill="white"/>
<path d="M68.8325 27.5C63.2958 27.5 60.0202 23.7568 60.1721 18.8904C60.3663 12.6603 65.8523 7.5 72.3959 7.5C75.2033 7.5 77.4472 8.2264 78.9401 8.98934L78.0679 13.5965C76.1964 12.5786 74.5882 11.9653 71.9919 11.9653C67.9124 11.9653 65.2207 15.0137 65.1185 18.3023C65.0366 20.9216 66.6123 23.0879 69.6584 23.0879C70.3475 23.0879 71.1451 22.9813 71.6795 22.848L72.872 16.5472L77.5116 16.5482L75.7126 26.0558C73.7498 26.9656 71.1638 27.5 68.8325 27.5Z" fill="#1899D6"/>
<path d="M92.5 16.8094L83.0136 11.1842L80.5061 24.3421L92.5 16.8094Z" fill="#1899D6"/>
<path d="M22.5221 20.5135C23.5623 20.5135 24.6783 19.5917 24.6783 18.1228C24.6783 17.1694 24.075 16.5918 23.2609 16.5918C22.2358 16.5918 21.0895 17.5603 21.0895 19.0289C21.0895 19.9668 21.6928 20.5135 22.5221 20.5135ZM23.2913 14.3421C25.6279 14.3421 27.3164 15.7638 27.3164 17.9508C27.3164 20.7945 24.8889 22.7632 22.4774 22.7632C20.1401 22.7632 18.4514 21.3569 18.4514 19.1539C18.4514 16.326 20.864 14.3421 23.2913 14.3421Z" fill="#2F4049"/>
<path d="M33.5794 17.0284C33.9284 17.0284 34.2617 16.9664 34.5147 16.7962C35.0379 16.4563 35.3708 15.8228 35.3708 15.0961C35.3708 14.4464 34.9906 14.0295 34.2294 14.0295H32.8345L32.2322 17.0284H33.5794ZM30.5197 11.7105H34.8477C35.5137 11.7105 36.0844 11.8184 36.5758 12.0505C37.638 12.545 38.2244 13.5652 38.2244 14.8484C38.2244 16.704 37.1469 18.2807 35.6245 18.9756C35.0858 19.2236 34.4831 19.3473 33.8808 19.3473H31.772L31.0908 22.7632H28.3164L30.5197 11.7105Z" fill="#2F4049"/>
<path d="M41.5596 20.701C42.2453 20.701 42.9925 19.9354 43.1148 19.2794L43.1456 19.1068H42.9012C42.3369 19.1068 40.9194 19.2321 40.9194 20.1854C40.9194 20.4821 41.117 20.701 41.5596 20.701ZM43.3128 17.5608H43.4197C43.4351 17.4512 43.4499 17.3107 43.4499 17.2635C43.4499 16.7325 43.0844 16.5291 42.4589 16.5291C41.4677 16.5291 40.187 17.2635 40.187 17.2635L39.6227 15.2321C39.6227 15.2321 41.2394 14.3421 42.9777 14.3421C44.304 14.3421 46.0878 14.8728 46.0878 16.9041C46.0878 17.1388 46.0577 17.4039 46.0116 17.6855L45.0972 22.5755H42.6876L42.7789 22.0914C42.8253 21.8262 42.9166 21.5916 42.9166 21.5916H42.8859C42.8859 21.5916 42.032 22.7632 40.5681 22.7632C39.3943 22.7632 38.2657 22.0445 38.2657 20.6852C38.2657 18.2477 41.3002 17.5608 43.3128 17.5608Z" fill="#2F4049"/>
<path d="M47.5895 24.1479C48.0715 24.1479 48.6495 24.0197 49.0829 23.317L49.3237 22.9336L47.3811 14.8684H50.2711L50.9453 18.9411C51.0256 19.3885 51.0256 20.1554 51.0256 20.1554H51.0583C51.0583 20.1554 51.3473 19.4359 51.5554 18.989L53.4023 14.8684H56.5175L51.3473 23.9715C50.3193 25.7768 48.8904 26.4474 47.7342 26.4474C46.5137 26.4474 45.5666 25.809 45.5666 25.809L46.7707 23.8919C46.7707 23.8919 47.1076 24.1479 47.5895 24.1479Z" fill="#2F4049"/>
<path d="M12.5595 23.2895C9.3265 23.2895 7.41422 21.0237 7.50296 18.0784C7.61609 14.3075 10.8192 11.1842 14.6401 11.1842C16.2795 11.1842 17.5791 11.6162 18.4509 12.0784L17.9453 14.8754C16.8524 14.259 15.9199 13.8867 14.4047 13.8867C12.0222 13.8867 10.4505 15.732 10.3911 17.7221C10.3432 19.308 11.2629 20.6195 13.0419 20.6195C13.4441 20.6195 13.9101 20.5541 14.222 20.4737L14.9182 16.6603H17.6221L16.5768 22.4153C15.4308 22.966 13.9207 23.2895 12.5595 23.2895Z" fill="#2F4049"/>
<path fill-rule="evenodd" clip-rule="evenodd" d="M8.11348 27.5C7.99817 27.5 7.89456 27.4784 7.80267 27.4352C7.70898 27.3919 7.6351 27.3297 7.58105 27.2487C7.527 27.1658 7.49997 27.0649 7.49997 26.946C7.49997 26.8433 7.51979 26.7586 7.55943 26.6919C7.59907 26.6252 7.65222 26.573 7.71889 26.5352C7.78555 26.4955 7.86033 26.4658 7.94321 26.446C8.02609 26.4261 8.11078 26.4117 8.19726 26.4027C8.30717 26.3901 8.39546 26.3793 8.46213 26.3703C8.5306 26.3613 8.58015 26.3478 8.61078 26.3297C8.64141 26.3099 8.65672 26.2793 8.65672 26.2379V26.2298C8.65672 26.1252 8.62789 26.0451 8.57024 25.9892C8.51258 25.9316 8.42609 25.9027 8.31078 25.9027C8.19186 25.9027 8.09817 25.9289 8.0297 25.9811C7.96123 26.0334 7.91438 26.0919 7.88916 26.1568L7.55402 26.0811C7.59366 25.9694 7.65222 25.8793 7.7297 25.8108C7.80537 25.7442 7.89276 25.6946 7.99186 25.6622C8.09276 25.6316 8.19817 25.6162 8.30808 25.6162C8.38015 25.6162 8.45672 25.6243 8.5378 25.6406C8.62069 25.6586 8.69726 25.6901 8.76753 25.7352C8.83961 25.7802 8.89816 25.8442 8.94321 25.9271C8.99006 26.0099 9.01348 26.118 9.01348 26.2514V27.4595H8.66753V27.2108H8.65402C8.6306 27.2577 8.59546 27.3027 8.54861 27.346C8.50357 27.391 8.44501 27.4279 8.37294 27.4568C8.30087 27.4856 8.21438 27.5 8.11348 27.5V27.5ZM8.19186 27.2162C8.28916 27.2162 8.37294 27.1964 8.44321 27.1568C8.51348 27.1189 8.56663 27.0685 8.60267 27.0054C8.64051 26.9424 8.65943 26.8748 8.65943 26.8027V26.5676C8.64681 26.5802 8.62249 26.5919 8.58645 26.6027C8.55042 26.6135 8.50897 26.6225 8.46213 26.6298C8.41708 26.6388 8.37294 26.646 8.3297 26.6514C8.28645 26.6568 8.25042 26.6613 8.22159 26.6649C8.15132 26.6739 8.08826 26.6892 8.0324 26.7108C7.97654 26.7307 7.9315 26.7595 7.89727 26.7973C7.86303 26.837 7.84591 26.8883 7.84591 26.9514C7.84591 27.0379 7.87835 27.1036 7.94321 27.1487C8.00808 27.1937 8.09096 27.2162 8.19186 27.2162V27.2162Z" fill="#2F4049"/>
<path d="M10.8729 27.4595L10.2 25.0324H10.5837L11.0567 26.9135H11.081L11.5729 25.0324H11.954L12.4459 26.9135H12.4675L12.9405 25.0324H13.327L12.6513 27.4595H12.2837L11.7729 25.6433H11.754L11.2432 27.4595H10.8729Z" fill="#2F4049"/>
<path fill-rule="evenodd" clip-rule="evenodd" d="M14.2216 27.4973C14.0504 27.4973 13.9018 27.4577 13.7756 27.3784C13.6477 27.3009 13.5486 27.1919 13.4783 27.0514C13.4081 26.9108 13.3729 26.7469 13.3729 26.5595C13.3729 26.3703 13.4081 26.2045 13.4783 26.0622C13.5486 25.9216 13.6477 25.8117 13.7756 25.7325C13.9018 25.655 14.0504 25.6162 14.2216 25.6162C14.3927 25.6162 14.5414 25.655 14.6675 25.7325C14.7954 25.8117 14.8945 25.9216 14.9648 26.0622C15.0351 26.2045 15.0702 26.3703 15.0702 26.5595C15.0702 26.7469 15.0351 26.9108 14.9648 27.0514C14.8945 27.1919 14.7954 27.3009 14.6675 27.3784C14.5414 27.4577 14.3927 27.4973 14.2216 27.4973ZM14.2216 27.2C14.3333 27.2 14.4252 27.1703 14.4972 27.1108C14.5693 27.0532 14.6234 26.9757 14.6594 26.8784C14.6954 26.7811 14.7135 26.6739 14.7135 26.5568C14.7135 26.4415 14.6954 26.3343 14.6594 26.2352C14.6234 26.1379 14.5693 26.0595 14.4972 26C14.4252 25.9424 14.3333 25.9135 14.2216 25.9135C14.1117 25.9135 14.0198 25.9424 13.9459 26C13.872 26.0595 13.818 26.1379 13.7837 26.2352C13.7477 26.3343 13.7297 26.4415 13.7297 26.5568C13.7297 26.6739 13.7477 26.7811 13.7837 26.8784C13.818 26.9757 13.872 27.0532 13.9459 27.1108C14.0198 27.1703 14.1117 27.2 14.2216 27.2Z" fill="#2F4049"/>
<path d="M15.4648 27.4595V25.6406H15.8081V25.9297H15.827C15.8594 25.8306 15.918 25.7532 16.0027 25.6973C16.0873 25.6415 16.1828 25.6135 16.2891 25.6135C16.3108 25.6135 16.3369 25.6135 16.3675 25.6135C16.3982 25.6153 16.4225 25.618 16.4405 25.6216V25.9595C16.4261 25.9559 16.4 25.9514 16.3621 25.946C16.3261 25.9406 16.29 25.9378 16.254 25.9378C16.1711 25.9378 16.0963 25.9559 16.0297 25.9919C15.9648 26.0261 15.9135 26.0748 15.8756 26.1379C15.8378 26.1991 15.8189 26.2694 15.8189 26.3487V27.4595H15.4648Z" fill="#2F4049"/>
<path d="M17.1026 25.0324V27.4595H16.7486V25.0324H17.1026Z" fill="#2F4049"/>
<path fill-rule="evenodd" clip-rule="evenodd" d="M18.2594 27.4946C18.1134 27.4946 17.9828 27.4577 17.8675 27.3838C17.7522 27.3081 17.6621 27.2 17.5972 27.0595C17.5324 26.9189 17.4999 26.7505 17.4999 26.5541C17.4999 26.3577 17.5324 26.1892 17.5972 26.0487C17.6639 25.9081 17.7549 25.8009 17.8702 25.727C17.9855 25.6532 18.1162 25.6162 18.2621 25.6162C18.3756 25.6162 18.4666 25.6351 18.5351 25.673C18.6035 25.7108 18.6576 25.7541 18.6972 25.8027C18.7351 25.8532 18.7648 25.8973 18.7864 25.9351H18.808V25.0324H19.1621V27.4595H18.8162V27.1757H18.7864C18.7648 27.2153 18.7342 27.2604 18.6945 27.3108C18.6549 27.3595 18.5999 27.4027 18.5297 27.4405C18.4612 27.4766 18.3711 27.4946 18.2594 27.4946V27.4946ZM18.3378 27.1946C18.4405 27.1946 18.527 27.1676 18.5972 27.1135C18.6675 27.0595 18.7216 26.9838 18.7594 26.8865C18.7954 26.791 18.8134 26.6784 18.8134 26.5487C18.8134 26.4225 18.7954 26.3126 18.7594 26.2189C18.7234 26.1234 18.6702 26.0496 18.5999 25.9973C18.5297 25.9432 18.4423 25.9162 18.3378 25.9162C18.2315 25.9162 18.1423 25.9442 18.0702 26C17.9999 26.0559 17.9468 26.1315 17.9107 26.227C17.8747 26.3225 17.8567 26.4297 17.8567 26.5487C17.8567 26.6712 17.8747 26.7811 17.9107 26.8784C17.9468 26.9757 18.0008 27.0523 18.0729 27.1081C18.145 27.1658 18.2333 27.1946 18.3378 27.1946Z" fill="#2F4049"/>
<path d="M20.0215 25.0324V27.4595H19.6675V25.0324H20.0215Z" fill="#2F4049"/>
<path d="M20.6756 25.3595C20.6143 25.3595 20.5621 25.3387 20.5188 25.2973C20.4738 25.2559 20.4513 25.2063 20.4513 25.1487C20.4513 25.0892 20.4738 25.0387 20.5188 24.9973C20.5621 24.9559 20.6143 24.9352 20.6756 24.9352C20.7387 24.9352 20.7918 24.9559 20.8351 24.9973C20.8783 25.0387 20.8999 25.0883 20.8999 25.146C20.8999 25.2054 20.8783 25.2559 20.8351 25.2973C20.7918 25.3387 20.7387 25.3595 20.6756 25.3595ZM20.4972 27.4595V25.6405H20.8513V27.4595H20.4972Z" fill="#2F4049"/>
<path d="M21.6837 26.3784V27.4595H21.3297V25.6406H21.6675V25.9352H21.6918C21.7333 25.8397 21.799 25.7622 21.8891 25.7027C21.9792 25.6451 22.0918 25.6162 22.227 25.6162C22.3513 25.6162 22.4603 25.6424 22.554 25.6946C22.6477 25.7451 22.7197 25.8216 22.7702 25.9243C22.8224 26.0252 22.8486 26.1514 22.8486 26.3027V27.4595H22.4945V26.346C22.4945 26.2126 22.4603 26.109 22.3918 26.0352C22.3215 25.9595 22.227 25.9216 22.108 25.9216C22.0252 25.9216 21.9522 25.9397 21.8891 25.9757C21.8243 26.0117 21.7738 26.064 21.7378 26.1325C21.7017 26.2009 21.6837 26.2829 21.6837 26.3784V26.3784Z" fill="#2F4049"/>
<path d="M24.108 27.4973C23.9278 27.4973 23.7729 27.4586 23.6432 27.3811C23.5152 27.3036 23.4161 27.1955 23.3459 27.0568C23.2756 26.9162 23.2405 26.7514 23.2405 26.5622C23.2405 26.3748 23.2756 26.2099 23.3459 26.0676C23.4161 25.9252 23.5143 25.8144 23.6405 25.7352C23.7648 25.6559 23.9116 25.6162 24.081 25.6162C24.1837 25.6162 24.2837 25.6334 24.381 25.6676C24.4765 25.7018 24.563 25.755 24.6405 25.8271C24.7161 25.8991 24.7765 25.9937 24.8215 26.1108C24.8666 26.2262 24.8891 26.3658 24.8891 26.5298V26.6568H23.4405V26.3919H24.5405C24.5405 26.2982 24.5215 26.2153 24.4837 26.1433C24.4459 26.0712 24.3927 26.0135 24.3242 25.9703C24.2558 25.9288 24.1756 25.9081 24.0837 25.9081C23.9846 25.9081 23.8981 25.9325 23.8242 25.9811C23.7504 26.0298 23.6936 26.0928 23.654 26.1703C23.6143 26.2496 23.5945 26.3343 23.5945 26.4243V26.6325C23.5945 26.7532 23.6161 26.8568 23.6594 26.9433C23.7008 27.0279 23.7603 27.0928 23.8378 27.1379C23.9152 27.1829 24.0062 27.2054 24.1107 27.2054C24.1774 27.2054 24.2387 27.1955 24.2945 27.1757C24.3504 27.1559 24.3981 27.127 24.4378 27.0892C24.4774 27.0496 24.508 27.0009 24.5296 26.9433L24.8648 27.0054C24.8378 27.1045 24.79 27.191 24.7215 27.2649C24.6531 27.3388 24.5666 27.3955 24.4621 27.4352C24.3576 27.4766 24.2396 27.4973 24.108 27.4973V27.4973Z" fill="#2F4049"/>
<path fill-rule="evenodd" clip-rule="evenodd" d="M26.1945 27.4595V25.0324H26.5486V25.9351H26.5702C26.5918 25.8973 26.6215 25.8532 26.6594 25.8027C26.699 25.7541 26.7531 25.7108 26.8215 25.673C26.89 25.6351 26.981 25.6162 27.0945 25.6162C27.2404 25.6162 27.3711 25.6532 27.4864 25.727C27.6017 25.8009 27.6927 25.9081 27.7594 26.0487C27.826 26.1892 27.8594 26.3577 27.8594 26.5541C27.8594 26.7505 27.826 26.9189 27.7594 27.0595C27.6945 27.2 27.6044 27.3081 27.4891 27.3838C27.3756 27.4577 27.245 27.4946 27.0972 27.4946C26.9873 27.4946 26.8972 27.4766 26.8269 27.4405C26.7567 27.4027 26.7017 27.3595 26.6621 27.3108C26.6224 27.2604 26.5918 27.2153 26.5702 27.1757H26.5404V27.4595H26.1945ZM26.5432 26.5487C26.5432 26.6784 26.5612 26.791 26.5972 26.8865C26.635 26.9838 26.6891 27.0595 26.7594 27.1135C26.8296 27.1676 26.9161 27.1946 27.0188 27.1946C27.1233 27.1946 27.2116 27.1658 27.2837 27.1081C27.354 27.0523 27.408 26.9757 27.4459 26.8784C27.4819 26.7811 27.4999 26.6712 27.4999 26.5487C27.4999 26.4297 27.4819 26.3225 27.4459 26.227C27.4098 26.1315 27.3567 26.0559 27.2864 26C27.2143 25.9442 27.1251 25.9162 27.0188 25.9162C26.9161 25.9162 26.8287 25.9432 26.7567 25.9973C26.6864 26.0496 26.6332 26.1234 26.5972 26.2189C26.5612 26.3126 26.5432 26.4225 26.5432 26.5487V26.5487Z" fill="#2F4049"/>
<path d="M28.2567 27.4595V25.6406H28.5972V25.9297H28.6161C28.6504 25.8306 28.7089 25.7532 28.7918 25.6973C28.8765 25.6415 28.972 25.6135 29.0783 25.6135C29.1017 25.6135 29.1278 25.6135 29.1567 25.6135C29.1873 25.6153 29.2116 25.618 29.2296 25.6216V25.9595C29.2152 25.9559 29.19 25.9514 29.154 25.946C29.1179 25.9406 29.0819 25.9378 29.0458 25.9378C28.9612 25.9378 28.8864 25.9559 28.8215 25.9919C28.7567 26.0261 28.7053 26.0748 28.6675 26.1379C28.6296 26.1991 28.6107 26.2694 28.6107 26.3487V27.4595H28.2567Z" fill="#2F4049"/>
<path fill-rule="evenodd" clip-rule="evenodd" d="M30.0512 27.5C29.9359 27.5 29.8314 27.4784 29.7377 27.4352C29.644 27.3919 29.5702 27.3297 29.5161 27.2487C29.4621 27.1658 29.435 27.0649 29.435 26.946C29.435 26.8433 29.4548 26.7586 29.4945 26.6919C29.5341 26.6252 29.5873 26.573 29.6539 26.5352C29.7224 26.4955 29.7981 26.4658 29.881 26.446C29.9639 26.4261 30.0485 26.4117 30.135 26.4027C30.2431 26.3901 30.3314 26.3793 30.3999 26.3703C30.4684 26.3613 30.5179 26.3478 30.5485 26.3297C30.5792 26.3099 30.5945 26.2793 30.5945 26.2379V26.2298C30.5945 26.1252 30.5657 26.0451 30.508 25.9892C30.4485 25.9316 30.3621 25.9027 30.2485 25.9027C30.1296 25.9027 30.0359 25.9289 29.9675 25.9811C29.899 26.0334 29.8512 26.0919 29.8242 26.1568L29.4918 26.0811C29.5314 25.9694 29.5891 25.8793 29.6648 25.8108C29.7422 25.7442 29.8305 25.6946 29.9296 25.6622C30.0287 25.6316 30.1332 25.6162 30.2431 25.6162C30.3152 25.6162 30.3927 25.6243 30.4756 25.6406C30.5566 25.6586 30.6332 25.6901 30.7053 25.7352C30.7774 25.7802 30.8359 25.8442 30.881 25.9271C30.926 26.0099 30.9485 26.118 30.9485 26.2514V27.4595H30.6026V27.2108H30.5891C30.5657 27.2577 30.5314 27.3027 30.4864 27.346C30.4395 27.391 30.381 27.4279 30.3107 27.4568C30.2386 27.4856 30.1521 27.5 30.0512 27.5V27.5ZM30.1269 27.2162C30.226 27.2162 30.3107 27.1964 30.381 27.1568C30.4494 27.1189 30.5026 27.0685 30.5404 27.0054C30.5765 26.9424 30.5945 26.8748 30.5945 26.8027V26.5676C30.5819 26.5802 30.5575 26.5919 30.5215 26.6027C30.4855 26.6135 30.4449 26.6225 30.3999 26.6298C30.353 26.6388 30.308 26.646 30.2648 26.6514C30.2215 26.6568 30.1855 26.6613 30.1566 26.6649C30.0882 26.6739 30.0251 26.6892 29.9675 26.7108C29.9116 26.7307 29.8666 26.7595 29.8323 26.7973C29.7999 26.837 29.7837 26.8883 29.7837 26.9514C29.7837 27.0379 29.8161 27.1036 29.881 27.1487C29.9458 27.1937 30.0278 27.2162 30.1269 27.2162V27.2162Z" fill="#2F4049"/>
<path d="M31.7756 26.3784V27.4595H31.4215V25.6406H31.762V25.9352H31.7837C31.8251 25.8397 31.8909 25.7622 31.981 25.7027C32.0711 25.6451 32.1846 25.6162 32.3215 25.6162C32.4458 25.6162 32.5539 25.6424 32.6458 25.6946C32.7395 25.7451 32.8125 25.8216 32.8647 25.9243C32.9152 26.0252 32.9404 26.1514 32.9404 26.3027V27.4595H32.5864V26.346C32.5864 26.2126 32.5521 26.109 32.4837 26.0352C32.4152 25.9595 32.3206 25.9216 32.1999 25.9216C32.117 25.9216 32.044 25.9397 31.981 25.9757C31.9179 26.0117 31.8675 26.064 31.8296 26.1325C31.7936 26.2009 31.7756 26.2829 31.7756 26.3784V26.3784Z" fill="#2F4049"/>
<path fill-rule="evenodd" clip-rule="evenodd" d="M34.0972 27.4946C33.9494 27.4946 33.8179 27.4577 33.7026 27.3838C33.5891 27.3081 33.499 27.2 33.4323 27.0595C33.3675 26.9189 33.335 26.7505 33.335 26.5541C33.335 26.3577 33.3684 26.1892 33.435 26.0487C33.4999 25.9081 33.59 25.8009 33.7053 25.727C33.8206 25.6532 33.9521 25.6162 34.0999 25.6162C34.2116 25.6162 34.3026 25.6351 34.3729 25.673C34.4413 25.7108 34.4945 25.7541 34.5323 25.8027C34.572 25.8532 34.6017 25.8973 34.6215 25.9351H34.6431V25.0324H34.9999V27.4595H34.6512V27.1757H34.6215C34.6017 27.2153 34.5711 27.2604 34.5296 27.3108C34.49 27.3595 34.4359 27.4027 34.3675 27.4405C34.2972 27.4766 34.2071 27.4946 34.0972 27.4946V27.4946ZM34.1756 27.1946C34.2765 27.1946 34.363 27.1676 34.435 27.1135C34.5053 27.0595 34.5584 26.9838 34.5945 26.8865C34.6323 26.791 34.6512 26.6784 34.6512 26.5487C34.6512 26.4225 34.6323 26.3126 34.5945 26.2189C34.5584 26.1234 34.5053 26.0496 34.435 25.9973C34.3648 25.9432 34.2783 25.9162 34.1756 25.9162C34.0675 25.9162 33.9783 25.9442 33.908 26C33.8377 26.0559 33.7846 26.1315 33.7485 26.227C33.7125 26.3225 33.6945 26.4297 33.6945 26.5487C33.6945 26.6712 33.7125 26.7811 33.7485 26.8784C33.7846 26.9757 33.8386 27.0523 33.9107 27.1081C33.981 27.1658 34.0693 27.1946 34.1756 27.1946V27.1946Z" fill="#2F4049"/>
</svg>
