<svg width="323" height="159" viewBox="0 0 323 159" fill="none" xmlns="http://www.w3.org/2000/svg">
<path d="M179.672 125.097C179.672 125.097 213.129 123.684 222.052 130.76C230.975 137.836 253.77 157.544 257.61 157.468C261.45 157.391 244.319 131.064 248.177 127.36C252.035 123.656 270.624 126.913 299.866 121.957C324.3 117.844 332.097 34.0561 301.52 18.7704C275.725 5.94964 183.83 1.59193 140.792 1.80866C96.7677 1.93836 37.2039 3.12412 18.9483 19.382C6.87327 30.0764 1.1558 56.5388 1.49125 71.6798C1.82669 86.8209 3.49864 117.83 16.3431 124.081C29.1876 130.333 78.9715 127.848 96.5945 127.497C119.14 127.048 162.049 125.448 179.672 125.097Z" stroke="#6B488D" stroke-width="2" stroke-miterlimit="10"/>
</svg>
