<svg width="84" height="90" viewBox="0 0 84 90" fill="none" xmlns="http://www.w3.org/2000/svg">
<path d="M82.9951 49.4618V52.1048C82.9935 53.5505 82.826 54.9914 82.4961 56.3995C82.3212 57.7553 81.9863 59.0859 81.4984 60.3639C80.7854 62.6851 79.8959 64.9491 78.8375 67.1364C77.5973 69.6032 76.0917 71.9293 74.3472 74.0741C72.9128 75.884 71.2969 77.5444 69.5243 79.0296C67.9154 80.3874 66.1905 81.6034 64.3689 82.6636C62.0728 84.0379 59.6834 85.2522 57.2179 86.2976C54.6713 87.2965 52.0598 88.1242 49.4015 88.7754C47.4473 89.2928 45.4367 89.5702 43.4146 89.6013C42.0841 89.6013 40.7536 89.7665 39.5895 89.7665C37.859 89.7653 36.1327 89.5994 34.4341 89.2709C32.6047 88.9406 30.7755 88.445 28.9461 87.9494C26.5479 87.1291 24.2132 86.1354 21.9612 84.9762C19.123 83.4465 16.4959 81.5588 14.145 79.36C12.3003 77.6062 10.5778 75.7298 8.98959 73.7438C7.46063 71.7555 6.17643 69.5927 5.1645 67.3016C4.21732 65.3897 3.43829 63.4002 2.8362 61.355C2.02719 58.6587 1.47048 55.8939 1.17315 53.0959C1.03477 51.8344 0.979258 50.5653 1.00689 49.2966C1.0668 46.2901 1.45708 43.2991 2.17094 40.3768C3.12133 36.7784 4.57707 33.3308 6.49502 30.1354C7.85571 27.8577 9.41367 25.7021 11.1514 23.6933C12.3156 22.3718 13.4797 21.0504 14.6438 19.8941C15.0563 19.5246 15.5017 19.1929 15.9743 18.903C16.1406 18.7378 16.307 18.7378 16.6396 18.7378C16.7551 18.7024 16.8783 18.6991 16.9956 18.728C17.113 18.7569 17.2201 18.8171 17.3056 18.9021C17.3911 18.987 17.4517 19.0935 17.4808 19.2101C17.51 19.3266 17.5067 19.4489 17.4711 19.5637C17.3088 19.9298 17.0837 20.2652 16.8058 20.5548C15.3091 22.2066 13.646 23.8585 12.1492 25.6755C10.2603 27.8422 8.64124 30.227 7.32654 32.7783C6.29633 34.6724 5.4606 36.6647 4.83197 38.7249C4.49937 39.8812 4.16659 41.2027 3.83398 42.359C3.38298 44.4249 3.10486 46.5244 3.00246 48.6359C3.00246 50.2877 3.00262 51.9396 3.16893 53.5914C3.36533 55.1464 3.64288 56.6901 4.00045 58.2165C4.34569 59.9103 4.84654 61.5691 5.49703 63.172C6.21406 65.1189 7.10471 66.9985 8.15807 68.7883C9.29245 70.9327 10.6889 72.93 12.3157 74.7348C13.6295 76.2876 15.0762 77.7246 16.6396 79.0296C18.4948 80.645 20.4993 82.0829 22.6265 83.3243C25.2582 84.7873 28.0475 85.9509 30.9417 86.7932C33.0075 87.4077 35.1215 87.8497 37.2614 88.1146C39.5274 88.3625 41.8138 88.3625 44.0798 88.1146C46.949 87.8036 49.7863 87.251 52.5613 86.4628C55.0101 85.6993 57.4001 84.7608 59.7125 83.6547C61.7447 82.658 63.6914 81.4978 65.5332 80.1859C67.5344 78.67 69.4239 77.014 71.1873 75.2304C73.3464 72.9493 75.1918 70.3943 76.6755 67.632C77.8431 65.3385 78.8436 62.9648 79.669 60.5291C80.1765 59.2002 80.5118 57.8125 80.6668 56.3995C80.8331 54.7477 80.9993 53.261 81.1656 51.6092V50.6181C81.3039 48.6299 81.1923 46.6323 80.8331 44.6715C80.6527 42.4632 80.1485 40.2929 79.3363 38.2294C78.8374 36.7428 78.3384 35.4213 77.8395 33.9346C77.466 32.9141 77.0216 31.9206 76.5092 30.9613C75.6727 29.2185 74.6702 27.5591 73.5157 26.0058C72.7146 24.7926 71.765 23.6829 70.6886 22.7022C70.1896 22.2066 69.857 21.5459 69.358 21.0503C68.8591 20.5548 68.6929 20.2244 68.3603 19.8941C68.2433 19.808 68.1484 19.696 68.0829 19.5669C68.0175 19.4378 67.9833 19.2953 67.9833 19.1507C67.9833 19.0062 68.0175 18.8637 68.0829 18.7346C68.1484 18.6055 68.2433 18.4935 68.3603 18.4074C68.4799 18.2669 68.6458 18.1731 68.8286 18.1429C69.0114 18.1126 69.199 18.1478 69.358 18.2422C69.5243 18.4074 69.857 18.5726 70.0233 18.7378C71.1466 19.6584 72.152 20.7125 73.0169 21.8762C74.4366 23.4716 75.7162 25.1848 76.8417 26.9969C78.0594 29.0036 79.1159 31.1024 80.0016 33.2739C80.655 35.0036 81.2102 36.7683 81.6646 38.5597C82.0215 39.9192 82.2992 41.298 82.4961 42.6893C82.6895 44.058 82.8005 45.437 82.8287 46.8189C82.9618 47.6933 83.0177 48.5777 82.9951 49.4618Z" fill="#794593" stroke="#794593" stroke-width="0.3"/>
<path d="M33.187 67.2288C33.2147 66.1055 33.1589 64.9817 33.02 63.8667C32.8868 62.5131 32.4893 61.1992 31.8506 60.0004L29.8462 56.9745C28.1754 54.9316 27.0283 52.5073 26.5054 49.9143C25.9761 47.301 26.0331 44.6017 26.6724 42.0135C27.1557 40.3955 27.8885 38.8639 28.844 37.4747C29.701 36.3327 30.6508 35.2644 31.6836 34.2808C33.1911 32.808 35.0223 31.7138 37.0288 31.0868C37.9512 30.7298 38.901 30.4487 39.8686 30.2463C40.7524 30.1067 41.6471 30.0504 42.5412 30.0782C45.0388 30.174 47.4875 30.8044 49.724 31.9273C52.5372 33.2738 54.8279 35.5201 56.2385 38.3152C56.9319 39.6236 57.3847 41.0473 57.5749 42.5177C57.8775 43.9544 57.9339 45.4326 57.7419 46.8884C57.4512 49.5908 56.6578 52.214 55.4033 54.6211L52.8977 58.6556C52.1588 59.7014 51.5423 60.8296 51.0602 62.0176C50.7583 63.0068 50.5348 64.0187 50.392 65.0435C50.392 65.884 50.225 66.7245 50.225 67.565V70.2546C50.2194 70.5664 50.1006 70.8654 49.891 71.0951C49.0991 71.7589 48.1934 72.2716 47.2184 72.6081C45.3525 73.3086 43.3582 73.5953 41.372 73.4486C38.6527 73.3394 36.0067 72.529 33.688 71.0951C33.4768 70.9834 33.3019 70.8133 33.1835 70.6048C33.0652 70.3964 33.0085 70.1582 33.02 69.9184C32.9974 69.0187 33.0532 68.1187 33.187 67.2288ZM35.0244 66.3883V68.7417C35.0244 69.0779 34.8574 69.246 35.5256 69.4141C35.6522 69.4319 35.7695 69.4909 35.8596 69.5822L38.3652 70.5908C38.6993 70.7589 38.8664 70.7589 38.8664 70.2546C38.8664 68.2374 39.0334 66.2202 39.0334 64.0349C39.2005 61.46 39.2005 58.877 39.0334 56.3021C39.0334 55.6297 38.8664 54.7892 38.8664 54.1168C38.8664 53.7806 38.6992 53.7806 38.5322 53.6125C37.864 53.4444 37.1959 53.1082 36.6948 52.9401C36.0141 52.6705 35.3959 52.2627 34.8786 51.7421C34.3613 51.2215 33.9559 50.5993 33.688 49.9143C33.4794 49.4672 33.3713 48.9793 33.3713 48.4854C33.3713 47.9915 33.4794 47.5036 33.688 47.0565C34.0101 46.5346 34.5073 46.1461 35.0894 45.9611C35.6716 45.776 36.3003 45.8068 36.8618 46.0479C37.964 46.5681 38.8505 47.4602 39.3674 48.5694C39.8735 49.4518 40.2133 50.4206 40.3696 51.4272C40.5367 51.9315 40.5367 51.9315 40.8708 52.0996C41.3227 52.0723 41.7759 52.1293 42.2072 52.2677C42.5413 52.2677 42.7082 52.0996 42.7082 51.9315C42.8753 51.4272 42.8754 50.9229 43.0424 50.2505C43.3591 49.0244 43.9282 47.879 44.7128 46.8884C45.2031 46.2336 45.8966 45.7622 46.6834 45.549C47.4701 45.3358 48.3051 45.3931 49.0558 45.7117C49.5123 45.8871 49.9248 46.1611 50.2646 46.5144C50.6044 46.8677 50.863 47.2917 51.0223 47.7566C51.1816 48.2214 51.2376 48.7158 51.1865 49.2047C51.1353 49.6937 50.9783 50.1654 50.7262 50.5867C49.9914 51.7726 48.8692 52.6641 47.5524 53.1082C46.7172 53.4444 45.7151 53.6125 44.7128 53.9487C44.3787 53.9487 44.3787 54.1168 44.2116 54.453C44.2116 55.2935 44.0446 56.3021 44.0446 57.1427V69.7503C44.0446 70.2546 44.0445 70.4227 44.5456 70.2546H44.7128C45.8808 70.0407 47.0081 69.6437 48.0536 69.0779C48.2207 69.0779 48.2206 68.9098 48.2206 68.7417V66.3883C48.2491 65.2608 48.3607 64.137 48.5546 63.0262C48.9137 61.1275 49.7152 59.3416 50.8932 57.8151C51.5614 56.6383 52.3967 55.6297 53.0649 54.453C54.4447 52.1344 55.3531 49.5632 55.7375 46.8884C55.9046 45.6051 55.9046 44.3054 55.7375 43.0221C55.5376 41.9382 55.2584 40.8707 54.9023 39.8282C54.3243 38.3748 53.5362 37.0153 52.5637 35.7937C51.4126 34.602 50.0536 33.6334 48.5546 32.936C46.2593 31.8694 43.7157 31.4622 41.2048 31.7592C40.9161 31.7331 40.6261 31.7914 40.3696 31.9273C39.5723 31.9971 38.7869 32.1665 38.0312 32.4316C35.5725 33.3058 33.3839 34.8127 31.6836 36.8023C29.4053 39.1986 28.1467 42.3954 28.1758 45.7117C28.2042 46.8949 28.3158 48.0745 28.5098 49.2418C28.8707 51.7042 29.9792 53.9941 31.6836 55.7979C33.018 57.1333 33.9452 58.8247 34.3562 60.6728C34.6027 61.438 34.7707 62.2266 34.8574 63.0262C34.9884 64.1418 35.0442 65.2651 35.0244 66.3883ZM41.372 62.69V70.4227C41.372 71.0951 41.3719 71.0951 42.04 71.0951C42.2071 71.0951 42.3742 71.0951 42.3742 70.7589V70.2546C42.3742 67.7331 42.5412 65.2116 42.5412 62.5219C42.5412 59.8323 42.5412 57.3108 42.7082 54.7892C42.7007 54.7026 42.6631 54.6214 42.602 54.5599C42.5409 54.4984 42.4603 54.4606 42.3742 54.453H42.04C41.5389 54.453 41.539 54.453 41.539 54.9573C41.372 57.3108 41.372 60.0004 41.372 62.69ZM49.2228 49.0738C49.2043 48.7978 49.1183 48.5306 48.9726 48.296C48.827 48.0614 48.6261 47.8666 48.3876 47.7289C47.7195 47.2246 46.8842 47.5609 46.216 48.2333C45.4509 49.2774 44.9365 50.4857 44.7128 51.7634C44.7128 51.9315 44.7128 52.0996 44.8798 51.9315C45.0469 51.7634 45.381 51.7634 45.548 51.7634C46.6028 51.499 47.5775 50.9797 48.3876 50.2505C48.63 50.1642 48.8402 50.0051 48.9896 49.7946C49.139 49.5841 49.2204 49.3324 49.2228 49.0738ZM35.1914 48.5694C35.1855 48.7904 35.2272 49.01 35.3137 49.2131C35.4002 49.4162 35.5296 49.5981 35.6926 49.7462C36.2783 50.5388 37.0962 51.1267 38.0312 51.4272H38.3652V51.1582C38.0773 50.3265 37.6844 49.5356 37.196 48.8048C36.905 48.4764 36.5671 48.1931 36.1936 47.9643C35.4586 47.7962 35.1914 48.0651 35.1914 48.5694Z" fill="#794593" stroke="#794593" stroke-width="0.3"/>
<path d="M54.5666 5.47498C54.5638 6.18837 54.3306 6.88235 53.901 7.45668C53.4713 8.031 52.8673 8.4559 52.1764 8.66991C50.9631 9.06061 49.6648 9.11875 48.4205 8.83808C47.7376 8.66992 47.7376 8.6699 47.5668 9.34252C47.4194 10.2024 47.1907 11.0468 46.8839 11.8649C46.834 12.098 46.7059 12.3079 46.52 12.4604C46.3341 12.613 46.1014 12.6994 45.8596 12.7056C45.3474 12.7056 44.8352 12.3693 45.0059 11.8649C45.037 11.2911 45.1519 10.7247 45.3473 10.1833L45.8596 8.16542C45.8707 8.07413 45.8611 7.98159 45.8316 7.89436C45.8021 7.80713 45.7532 7.72741 45.6887 7.66097C45.3472 7.15651 45.3472 6.82019 45.6887 6.65203C45.8594 6.48388 46.0302 6.48391 46.0302 6.31575C46.0302 6.1476 46.3716 6.14758 46.3716 5.97942C46.5423 5.13865 46.8838 4.29787 47.0546 3.45709C47.0546 3.28894 47.2252 3.1208 47.2252 2.95265C47.2252 2.78449 47.2253 2.61632 47.0546 2.61632C46.0302 2.44816 45.1766 2.44814 44.1523 2.27999C43.9816 2.27999 43.64 2.28003 43.64 2.11187C43.64 1.94372 43.8107 1.77553 43.9814 1.60738C44.9785 1.07482 46.0911 0.786439 47.2252 0.766602C48.7977 0.801009 50.3543 1.08491 51.835 1.60738C52.4247 1.8151 52.9602 2.14911 53.4031 2.58527C53.8459 3.02144 54.185 3.5489 54.3959 4.1297C54.5365 4.56393 54.5943 5.02003 54.5666 5.47498ZM50.1277 6.98836C50.5962 6.93686 51.0555 6.82373 51.4934 6.65203C51.7729 6.59617 52.0254 6.45005 52.211 6.23683C52.3965 6.0236 52.5044 5.7555 52.5178 5.47498C52.5541 5.26611 52.5425 5.05185 52.4834 4.84809C52.4243 4.64433 52.3193 4.45628 52.1764 4.29787C51.7907 3.85856 51.3206 3.49872 50.7932 3.239C50.2658 2.97927 49.6914 2.82479 49.1032 2.78448C49.0579 2.78448 49.0146 2.80221 48.9825 2.83375C48.9505 2.86528 48.9325 2.90805 48.9325 2.95265C48.9594 3.29762 48.9009 3.64382 48.7618 3.96154C48.5911 4.63416 48.4203 5.47497 48.2496 6.14759C48.0788 6.4839 48.2497 6.65203 48.5911 6.65203C49.0544 6.92131 49.5923 7.03907 50.1277 6.98836Z" fill="#794593" stroke="#794593" stroke-width="0.3"/>
<path d="M67.1436 14.3717C66.4112 14.3849 65.6871 14.2018 65.034 13.8383C64.8718 13.6605 64.7094 13.8383 64.5471 14.0161C63.7686 15.3783 62.8423 16.632 61.7883 17.7498C61.5665 17.9728 61.2779 18.0993 60.9769 18.1054C60.8304 18.1477 60.6757 18.1402 60.5332 18.0838C60.3907 18.0275 60.267 17.925 60.1789 17.7899C60.0909 17.6548 60.0425 17.4936 60.0401 17.3277C60.0376 17.1617 60.0814 16.9989 60.1655 16.8608C60.3278 16.5052 60.6522 16.1496 60.8145 15.794C61.3013 15.2607 61.626 14.7273 62.1128 14.1939C62.5997 13.6606 62.9242 13.4828 63.2487 13.1272C63.5733 12.7716 63.5735 12.9494 63.4112 12.5938C62.5781 11.4349 62.1725 9.97548 62.2751 8.50462C62.2581 8.14761 62.3068 7.79054 62.4183 7.45457C62.5298 7.1186 62.7019 6.81064 62.9242 6.54896C63.146 6.32591 63.4347 6.19941 63.7357 6.19336C64.2225 6.19336 64.3849 6.54894 64.3849 7.08231C64.0871 8.32978 64.202 9.65246 64.7094 10.8159C64.9203 11.2312 65.2252 11.58 65.5947 11.8291C65.9641 12.0781 66.3857 12.219 66.8191 12.2382C67.5801 12.2676 68.3418 12.208 69.0912 12.0604C69.2535 12.0604 69.4156 11.8827 69.5779 11.7049C69.6793 11.6168 69.7978 11.5555 69.9242 11.5256C70.0506 11.4956 70.1817 11.4979 70.3071 11.5323C70.4326 11.5667 70.5492 11.6321 70.6479 11.7237C70.7466 11.8153 70.8247 11.9305 70.8763 12.0604C71.0386 12.5938 71.0385 12.9494 70.5516 13.305C70.1573 13.664 69.7207 13.963 69.2534 14.1939C68.7666 14.1939 67.9551 14.3717 67.1436 14.3717Z" fill="#794593" stroke="#794593" stroke-width="0.3"/>
<path d="M19.2912 9.22145C19.9598 9.54948 20.4744 10.1364 20.722 10.8535C21.6365 12.4389 22.6451 13.9651 23.7424 15.4232C23.8877 15.6065 23.9648 15.8369 23.9598 16.0732C23.9547 16.3094 23.868 16.5362 23.715 16.7128C23.5621 16.8894 23.3529 17.0044 23.1249 17.0373C22.8969 17.0701 22.6651 17.0186 22.4707 16.892C22.1528 16.7288 21.9938 16.4024 21.8348 16.2392C20.8809 14.7704 19.9271 13.3015 19.1323 11.8327C18.9235 11.5282 18.7861 11.1782 18.7309 10.8102C18.6758 10.4421 18.7043 10.066 18.8142 9.71109V9.54788C18.6552 9.54788 18.6552 9.54789 18.6552 9.71109L15.7936 11.6695C15.4756 11.8327 15.3167 12.1592 14.9987 12.3224C14.9504 12.3663 14.8924 12.3974 14.8297 12.4132C14.767 12.4289 14.7015 12.4287 14.6389 12.4127C14.5763 12.3966 14.5186 12.3651 14.4705 12.3209C14.4224 12.2767 14.3855 12.2212 14.363 12.1591C14.2065 11.9796 14.12 11.7472 14.12 11.5063C14.12 11.2655 14.2065 11.033 14.363 10.8535C14.5794 10.4886 14.8472 10.1586 15.1578 9.8743C16.1117 9.05828 17.2245 8.40543 18.3374 7.58941C19.4502 6.77339 20.563 6.1206 21.6758 5.46778C21.9221 5.31607 22.1905 5.20585 22.4707 5.14136C22.6605 5.08314 22.8648 5.1014 23.042 5.19236C23.2192 5.28332 23.356 5.44017 23.4245 5.631C23.4785 5.71379 23.5134 5.80814 23.5264 5.90687C23.5394 6.00561 23.5301 6.10611 23.4994 6.20063C23.4688 6.29515 23.4173 6.3812 23.3492 6.4522C23.2812 6.52319 23.1982 6.57726 23.1067 6.61023C22.7724 6.88797 22.3965 7.10841 21.9937 7.26303C21.1311 7.96978 20.2288 8.6237 19.2912 9.22145Z" fill="#794593" stroke="#794593" stroke-width="0.3"/>
<path d="M42.4806 76.7422C40.8285 76.7498 39.1804 76.5743 37.5648 76.2187C36.761 76.0515 36.0065 75.6929 35.3614 75.1716L35.0222 74.8225C34.9377 74.6618 34.8933 74.4818 34.8933 74.299C34.8933 74.1162 34.9377 73.9362 35.0222 73.7754C35.1917 73.4264 35.7002 73.4265 36.0392 73.601C36.3782 73.7755 36.5477 73.95 36.8868 73.95C37.7072 74.4452 38.6487 74.6875 39.599 74.648C40.4952 74.7986 41.4037 74.8571 42.3111 74.8225C43.676 74.8799 45.0425 74.7627 46.3793 74.4735C46.7395 74.4374 47.0871 74.3181 47.3963 74.1245C47.5658 74.1245 47.5657 73.95 47.7352 73.95C47.9248 73.8432 48.1429 73.8025 48.3568 73.834C48.5707 73.8654 48.769 73.9673 48.9219 74.1245C49.2609 74.4735 49.0912 74.997 48.7522 75.5206C48.2115 76.1003 47.4931 76.4702 46.7182 76.5677C45.3036 76.5453 43.8889 76.6036 42.4806 76.7422Z" fill="#794593" stroke="#794593" stroke-width="0.3"/>
<path d="M33.8072 2.40611C33.7768 2.06977 33.843 1.73218 33.9997 1.4224C34.048 1.2359 34.1696 1.06914 34.3445 0.949831C34.5195 0.83052 34.7372 0.765858 34.9613 0.766608C35.1737 0.797368 35.3734 0.873677 35.5416 0.988407C35.7099 1.10314 35.8411 1.2525 35.9229 1.4224C36.076 2.18018 36.1404 2.94905 36.1152 3.71769C36.3075 5.52115 36.4999 7.32458 36.8845 9.12803C36.8845 9.61989 37.0768 10.1118 37.0768 10.6036C37.0984 10.8421 37.0099 11.0783 36.8303 11.262C36.6507 11.4457 36.3942 11.5624 36.1152 11.5873C35.9763 11.6196 35.8312 11.6283 35.6884 11.6128C35.5455 11.5973 35.4077 11.558 35.2827 11.4971C35.1577 11.4362 35.048 11.355 34.9599 11.2579C34.8717 11.1609 34.8066 11.0499 34.7688 10.9315C34.611 10.5647 34.5455 10.1737 34.5765 9.78388C34.3842 7.48857 33.9995 4.86537 33.8072 2.40611Z" fill="#794593" stroke="#794593" stroke-width="0.3"/>
<path d="M43.0147 81.0834C41.0093 81.0968 39.0313 80.6503 37.255 79.7835C36.9239 79.6184 36.6281 79.3981 36.3823 79.1336C36.2078 78.9711 36.2077 78.6461 36.0331 78.4836C35.8586 78.3212 36.2077 77.8337 36.5568 77.8337C36.9149 77.8081 37.2742 77.8639 37.604 77.9962C38.2692 78.3355 38.9715 78.6078 39.6986 78.8086C41.1632 79.2673 42.7386 79.3237 44.2366 78.9711C44.7125 78.8356 45.1787 78.6729 45.6328 78.4836C45.8452 78.3967 46.0836 78.3816 46.3067 78.4409C46.5298 78.5002 46.7238 78.6303 46.8547 78.8086C46.9328 79.0083 46.9411 79.2258 46.8784 79.4301C46.8157 79.6343 46.6851 79.8149 46.5055 79.946C46.0169 80.2296 45.4883 80.4483 44.9348 80.596C44.3495 80.9072 43.6887 81.075 43.0147 81.0834Z" fill="#794593" stroke="#794593" stroke-width="0.3"/>
<path d="M43.64 20.6716C43.4942 21.756 43.4943 23.0211 43.3485 24.1054C43.2027 25.1898 43.2026 25.9127 43.0568 26.8163C43.0203 27.0881 42.9188 27.34 42.7653 27.5392C42.6196 27.9007 42.328 27.9007 42.0365 27.9007C41.8854 27.8238 41.7527 27.7005 41.6507 27.5424C41.5486 27.3843 41.4807 27.1967 41.4533 26.9971V25.3705C41.6228 23.9336 41.7203 22.4849 41.745 21.033C41.722 20.6623 41.772 20.2902 41.8907 19.9487C41.9418 19.7178 42.0585 19.5175 42.2192 19.3847C42.3799 19.2519 42.5738 19.1955 42.7653 19.2258C42.8627 19.2178 42.9603 19.2357 43.0517 19.2783C43.143 19.3209 43.2261 19.3872 43.2951 19.4727C43.3641 19.5583 43.4175 19.6611 43.4519 19.7744C43.4862 19.8876 43.5007 20.0087 43.4942 20.1294C43.64 20.1294 43.64 20.4909 43.64 20.6716Z" fill="#794593" stroke="#794593" stroke-width="0.3"/>
<path d="M62.2267 27.6339C62.0559 27.7908 62.0558 28.1044 61.885 28.2613C61.3727 28.7318 60.8606 29.0454 60.3483 29.5159C59.3237 30.3001 58.4697 31.0842 57.4451 31.8684C57.2568 32.0335 57.0188 32.1428 56.762 32.1821C56.6196 32.2406 56.461 32.257 56.308 32.2289C56.155 32.2008 56.0151 32.1296 55.9082 32.0253C55.7374 31.7116 55.5667 31.3979 55.7374 31.2411C55.9307 30.9074 56.228 30.6344 56.5913 30.4569C57.7866 29.5159 58.982 28.5749 60.0066 27.6339C60.306 27.3719 60.6527 27.1596 61.0312 27.0066C61.5435 26.5361 62.2267 27.0066 62.2267 27.6339Z" fill="#794593" stroke="#794593" stroke-width="0.3"/>
<path d="M62.132 47.2708C61.92 47.2646 61.7141 47.1988 61.5376 47.0811C61.3611 46.9633 61.2212 46.7982 61.1339 46.6046C61.1269 46.3894 61.1872 46.1774 61.3065 45.9982C61.4258 45.819 61.5982 45.6816 61.7994 45.6054C62.229 45.4682 62.6801 45.4118 63.1302 45.4388C64.5678 45.3033 66.012 45.2477 67.4558 45.2722C67.6903 45.2473 67.9258 45.3063 68.1211 45.4388C68.4538 45.6053 68.7865 45.7719 68.7865 46.2715C68.7897 46.4432 68.7446 46.6123 68.6564 46.7595C68.5681 46.9068 68.4404 47.0262 68.2876 47.1042C67.9185 47.2531 67.5188 47.3103 67.1229 47.2708C65.6257 47.2708 64.2948 47.4373 62.7975 47.4373C62.7975 47.0376 62.3982 47.2708 62.132 47.2708Z" fill="#794593" stroke="#794593" stroke-width="0.3"/>
<path d="M27.2932 57.2077C28.0313 57.2077 28.5849 57.757 28.2158 58.4894C27.9647 58.8988 27.6538 59.2691 27.2932 59.588L23.8981 62.9571L23.3444 63.5063C22.9754 63.8725 22.4219 63.6894 22.0528 63.5063C21.9646 63.4241 21.8942 63.3249 21.8461 63.2147C21.798 63.1044 21.7733 62.9856 21.7733 62.8655C21.7733 62.7454 21.798 62.6266 21.8461 62.5164C21.8942 62.4061 21.9646 62.3069 22.0528 62.2247L23.1599 61.1261L26.297 58.0134C26.3292 57.7787 26.4498 57.565 26.6348 57.4155C26.8198 57.2659 27.0552 57.1916 27.2932 57.2077Z" fill="#794593" stroke="#794593" stroke-width="0.3"/>
<path d="M24.1001 26.8154C24.2363 26.8181 24.3704 26.8516 24.4923 26.9136C24.6141 26.9755 24.7208 27.0643 24.8047 27.1736L26.9182 29.8594C27.3873 30.4126 27.8005 31.0125 28.1513 31.6499C28.2914 31.86 28.3538 32.1137 28.3274 32.3661C28.3354 32.5194 28.3052 32.6724 28.2397 32.8107C28.1741 32.949 28.0753 33.0683 27.9524 33.1576C27.8295 33.2468 27.6866 33.3031 27.5366 33.3212C27.3866 33.3394 27.2344 33.3188 27.0943 33.2614C26.8292 33.1274 26.5907 32.9454 26.3899 32.7242C25.3331 31.4709 24.2762 30.2175 23.3955 29.1432C23.2236 28.9855 23.0874 28.7917 22.9962 28.5754C22.905 28.359 22.861 28.1251 22.8672 27.8898C23.2195 27.3526 23.5717 26.8154 24.1001 26.8154Z" fill="#794593" stroke="#794593" stroke-width="0.3"/>
<path d="M62.4514 61.547C62.1576 61.542 61.8759 61.4362 61.6594 61.2496C60.7163 60.3321 59.6515 59.5324 58.4911 58.87C58.1743 58.5725 57.8574 58.4238 57.8574 57.9776C57.8446 57.8634 57.862 57.748 57.9081 57.6416C57.9541 57.5352 58.0274 57.4411 58.1214 57.3676C58.2153 57.2941 58.3271 57.2434 58.4468 57.2201C58.5666 57.1968 58.6905 57.2016 58.8078 57.234C58.8938 57.2242 58.9811 57.2325 59.0633 57.2582C59.1455 57.284 59.2206 57.3265 59.2832 57.3827C60.4545 58.0407 61.567 58.7868 62.6098 59.6136C62.8745 59.8743 63.089 60.1762 63.2435 60.5059C63.3283 60.6869 63.3431 60.8901 63.2853 61.0802C63.2274 61.2703 63.1006 61.4354 62.9268 61.547H62.4514Z" fill="#794593" stroke="#794593" stroke-width="0.3"/>
<path d="M18.0667 46.3532C19.3466 46.4436 20.6266 46.4436 21.9066 46.5339C22.0666 46.5339 22.2266 46.6243 22.3866 46.6243C22.5336 46.6666 22.6564 46.7314 22.7413 46.8113C22.8262 46.8911 22.8695 46.9829 22.8665 47.076C22.8553 47.1698 22.7844 47.2581 22.6667 47.3245C22.549 47.391 22.3927 47.4311 22.2267 47.4374H21.1066C19.9866 47.4374 18.8667 47.3471 17.7468 47.3471C17.4268 47.3471 17.1068 47.2567 16.7868 47.2567C16.6399 47.2144 16.517 47.1496 16.4322 47.0697C16.3473 46.9898 16.3038 46.8981 16.3068 46.805C16.318 46.7112 16.3891 46.6229 16.5068 46.5565C16.6245 46.49 16.7808 46.4499 16.9468 46.4436C17.3077 46.3761 17.6868 46.3455 18.0667 46.3532Z" fill="#794593" stroke="#794593" stroke-width="0.3"/>
</svg>
