<svg width="58" height="67" viewBox="0 0 58 67" fill="none" xmlns="http://www.w3.org/2000/svg">
<path d="M17.0955 22.7903C19.021 22.7903 20.9465 22.7903 22.872 22.7903C25.6533 22.7903 28.4346 22.9008 31.1089 22.9008C32.4996 22.9008 33.8902 22.9008 35.2809 22.7903C36.7785 22.7903 38.1691 22.6799 39.6668 22.6799C41.1644 22.6799 42.555 22.5694 44.0526 22.5694C44.8014 22.5694 45.5503 22.459 46.2991 22.459C46.727 22.459 47.1549 22.459 47.4758 22.5694C48.2246 22.7903 48.5455 23.453 48.7594 24.1157C48.9734 24.9993 49.0804 25.8829 49.1873 26.8769C49.1873 28.2023 49.2943 29.5277 49.2943 30.7427C49.2943 31.6263 49.4013 32.5099 49.4013 33.5039C49.4013 34.6084 49.5083 35.6024 49.5083 36.7069C49.5083 37.9219 48.8664 38.2532 48.0106 38.3637C46.1921 38.5846 44.3736 38.4741 42.448 38.4741C42.2341 38.4741 41.9132 38.4741 41.6992 38.4741C40.3086 38.4741 38.9179 38.4741 37.5273 38.3637C36.2436 38.3637 34.9599 38.2532 33.6763 38.2532C32.6065 38.2532 31.5368 38.1428 30.4671 38.0323C29.3974 37.9219 28.3276 37.9219 27.2579 37.8114C26.0812 37.701 24.9045 37.5905 23.6208 37.4801C22.979 37.4801 22.2302 37.3696 21.5883 37.3696C19.4489 37.3696 17.3094 37.3696 15.063 37.3696C13.9933 37.3696 13.0305 37.3696 11.9608 37.3696C10.8911 37.3696 10.1422 36.9278 9.28646 36.3756C7.78884 35.492 6.39819 34.6084 4.90057 33.7248C3.72387 33.0621 2.54717 32.5099 1.47745 31.8472C1.2635 31.7367 1.04956 31.6263 0.835611 31.5158C0.514692 31.4054 0.407717 31.1845 0.407717 30.7427C0.407717 30.6322 0.407719 30.5218 0.300746 30.5218C-0.0201723 30.3009 -0.127152 29.8591 0.193767 29.5277C0.30074 29.4173 0.514687 29.3068 0.62166 29.1964C2.86809 27.5396 5.00755 25.8829 7.25398 24.2262C7.89582 23.7844 8.53765 23.2321 9.39344 23.0112C10.0353 22.9008 10.6771 22.7903 11.212 22.7903C13.2445 22.7903 15.17 22.7903 17.0955 22.7903ZM1.2635 30.3009C1.79836 30.6322 2.33322 30.8531 2.86809 31.074C3.93782 31.6263 5.00754 32.1785 6.07727 32.8412C7.57489 33.7248 8.96555 34.6084 10.4632 35.492C10.7841 35.7129 11.212 35.9338 11.6399 35.9338C12.2817 35.9338 13.0305 36.0442 13.6724 36.0442C15.17 36.0442 16.6676 35.9338 18.2722 36.0442C20.4116 36.0442 22.4441 36.1547 24.5836 36.2651C25.8673 36.3756 27.1509 36.486 28.4346 36.5965C29.5043 36.7069 30.681 36.8174 31.7508 36.8174C33.0344 36.9278 34.4251 36.9278 35.7088 37.0383C36.8855 37.0383 37.9552 37.1487 39.1319 37.1487C41.6992 37.1487 44.2666 37.1487 46.8339 37.1487C47.2618 37.1487 47.5827 37.1487 48.0106 37.0383C48.1176 37.0383 48.2246 36.9278 48.3316 36.8174C48.3316 36.5965 48.4385 36.3756 48.3316 36.1547C48.3316 34.7188 48.2246 33.3934 48.1176 31.9576C48.1176 30.9636 48.1176 29.9695 48.0106 28.865C48.0106 27.7605 47.9037 26.6561 47.7967 25.662C47.7967 25.1098 47.5827 24.5575 47.4758 24.1157C47.4758 23.8948 47.2618 23.7844 47.0479 23.7844C46.513 23.7844 45.8712 23.7844 45.3363 23.7844C43.8387 23.7844 42.2341 23.8948 40.7365 23.8948C39.7737 23.8948 38.811 24.0053 37.9552 24.0053C36.3506 24.0053 34.639 24.1157 33.0344 24.1157C30.5741 24.1157 28.1137 24.1157 25.5463 24.1157C24.0487 24.1157 22.4441 24.0053 20.9465 24.0053C17.5234 24.0053 14.1002 23.8948 10.6771 24.1157C10.1422 24.1157 9.71435 24.2262 9.28646 24.5575C8.75159 24.8889 8.32371 25.1098 7.78885 25.4411C5.86333 26.8769 3.93782 28.3128 2.11928 29.6382C1.79836 29.8591 1.47744 30.08 1.2635 30.3009Z" fill="#6B488D"/>
<path d="M2.1192 11.5249C2.33314 11.7458 2.54709 11.8563 2.65406 12.0772C3.72379 12.8503 4.68655 13.513 5.75627 14.2862C7.03995 15.2802 8.32362 16.2743 9.6073 17.3787C10.0352 17.7101 10.4631 17.8205 10.9979 17.8205C12.2816 17.8205 13.6723 17.8205 14.9559 17.7101C15.0629 17.7101 15.1699 17.7101 15.2769 17.7101C18.7 17.7101 22.1231 17.7101 25.6532 17.7101C27.0439 17.7101 28.3275 17.7101 29.7182 17.7101C30.681 17.7101 31.6437 17.7101 32.6065 17.7101C33.4622 17.7101 34.318 17.7101 35.0668 17.7101C36.3505 17.7101 37.7412 17.8205 39.0248 17.8205C40.2015 17.8205 41.2713 17.931 42.448 17.931C44.1595 17.931 45.8711 18.0414 47.5827 18.0414C47.9036 18.0414 48.2245 17.931 48.6524 17.8205C48.8663 17.8205 48.9733 17.5996 49.0803 17.3787C49.1873 16.937 49.1872 16.6056 49.2942 16.1638C49.5082 14.2862 49.4012 12.519 49.4012 10.6414C49.4012 10.0891 49.2942 9.53686 49.1872 8.87417C49.1872 8.43237 48.8663 8.21147 48.4384 8.10102C48.0106 7.99057 47.5827 7.88012 47.1548 7.88012C45.8711 7.76968 44.4804 7.76968 43.1968 7.76968C42.6619 7.76968 42.234 7.76968 41.6992 7.76968C40.8434 7.76968 39.9876 7.76968 39.1318 7.76968C38.0621 7.76968 36.9923 7.65923 35.9226 7.65923C34.9599 7.65923 34.1041 7.54878 33.1413 7.54878C32.2855 7.54878 31.5367 7.43833 30.6809 7.43833C29.8252 7.43833 28.9694 7.32788 28.2206 7.32788C27.3648 7.32788 26.509 7.21743 25.5463 7.21743C24.1556 7.21743 22.765 7.10698 21.3743 7.10698C20.1976 7.10698 19.0209 7.10698 17.8442 7.10698C17.0954 7.10698 16.2396 7.10698 15.4908 7.10698C14.635 7.10698 13.6723 7.21743 12.8165 7.21743C12.0677 7.32788 11.4258 7.43833 10.677 7.43833C10.3561 7.43833 10.0352 7.32788 9.92822 6.99653C9.82125 6.66519 10.0352 6.33384 10.3561 6.22339C10.677 6.11294 11.1049 6.00249 11.4258 6.00249C12.7095 5.89204 13.9932 5.78159 15.2769 5.78159C17.0954 5.67115 18.9139 5.67114 20.7325 5.67114C21.5883 5.67114 22.444 5.67114 23.2998 5.67114C24.3696 5.67114 25.4393 5.78159 26.616 5.78159C27.4718 5.78159 28.3275 5.89204 29.0763 5.89204C30.36 5.89204 31.5367 6.00249 32.8204 6.00249C33.6762 6.00249 34.6389 6.11294 35.4947 6.11294C36.5644 6.11294 37.6342 6.22339 38.7039 6.22339C39.9876 6.22339 41.3782 6.33384 42.6619 6.33384C43.7316 6.33384 44.8014 6.33384 45.8711 6.44429C46.7269 6.44429 47.5827 6.55474 48.4384 6.77563C49.5082 6.99653 50.15 7.65923 50.257 8.87417C50.4709 10.4205 50.3639 11.9667 50.3639 13.513C50.3639 14.2862 50.3639 14.9489 50.257 15.722C50.15 16.3847 50.15 17.0474 49.9361 17.5996C49.7221 18.4832 49.0803 18.925 48.2245 19.0355C47.6896 19.1459 47.1548 19.1459 46.6199 19.1459C46.085 19.1459 45.5502 19.1459 45.0153 19.1459C43.7316 19.1459 42.341 19.0355 41.0573 19.0355C39.8806 19.0355 38.8109 18.925 37.6342 18.925C36.1366 18.925 34.532 18.8146 33.0344 18.8146C32.3925 18.8146 31.6437 18.8146 31.0019 18.8146C29.5042 18.8146 28.1136 18.8146 26.616 18.8146C22.658 18.8146 18.7 18.8146 14.742 18.8146C13.8862 18.8146 12.9235 18.8146 12.0677 18.8146C11.4258 18.8146 10.891 18.8146 10.2491 18.8146C9.60729 18.8146 9.07243 18.4832 8.64454 18.0414C7.46784 17.1578 6.39811 16.1638 5.22141 15.2802C4.25865 14.5071 3.18892 13.8444 2.1192 13.0712C1.6913 12.7399 1.26341 12.4085 0.942496 11.9667C0.514605 11.4145 0.621574 10.6414 1.15644 10.1996C1.58433 9.86821 2.01223 9.64731 2.44012 9.42641C4.36563 8.43237 6.29113 7.32788 8.21664 6.33384C8.32362 6.33384 8.43059 6.22339 8.53757 6.22339C8.85849 6.11294 9.07243 6.22339 9.28637 6.55473C9.39335 6.77563 9.39335 7.10698 9.07243 7.32788C8.75151 7.54878 8.43059 7.65923 8.21664 7.88012C6.71903 8.65327 5.22141 9.53686 3.72379 10.31C3.2959 10.5309 2.76103 10.7518 2.33314 11.0831C2.33314 11.4145 2.22617 11.4145 2.1192 11.5249Z" fill="#6B488D"/>
<path d="M56.8896 47.9732C56.4617 47.6418 56.1408 47.4209 55.8198 47.2C54.5362 46.4269 53.1455 45.6538 51.7549 44.8806C50.7921 44.3284 49.8294 43.6657 48.8666 43.1134C48.6527 43.003 48.4387 42.8925 48.3317 42.7821C48.2248 42.6716 48.0108 42.6716 47.9039 42.6716C47.476 42.6716 47.155 42.6716 46.7271 42.6716C45.8714 42.6716 45.0156 42.6716 44.1598 42.6716C42.7692 42.6716 41.3785 42.5612 39.9879 42.5612C39.239 42.5612 38.4902 42.4507 37.6345 42.4507C36.4578 42.4507 35.1741 42.3403 33.9974 42.3403C33.1416 42.3403 32.2858 42.2298 31.537 42.2298C29.2906 42.2298 27.0441 42.1194 24.6907 42.1194C23.4071 42.1194 22.0164 42.1194 20.7327 42.2298C19.4491 42.2298 18.1654 42.3403 16.7747 42.3403C15.4911 42.3403 14.2074 42.4507 12.9237 42.4507C12.2819 42.4507 11.6401 42.4507 11.1052 42.3403C10.8912 42.3403 10.7843 42.4507 10.7843 42.6716C10.7843 43.1134 10.6773 43.5552 10.6773 43.997C10.6773 45.5433 10.6773 47.0896 10.5703 48.7463C10.5703 49.7404 10.4634 50.7344 10.4634 51.7284C10.4634 52.3911 10.5703 52.3911 11.1052 52.5016C11.6401 52.612 12.1749 52.612 12.7098 52.612C14.6353 52.612 16.5608 52.7225 18.5933 52.7225C19.877 52.7225 21.0537 52.8329 22.3373 52.8329C23.621 52.8329 25.0117 52.9434 26.2953 52.9434C27.8999 52.9434 29.5045 53.0538 31.1091 53.0538C32.6067 53.0538 34.2113 53.0538 35.7089 53.0538C37.5275 53.0538 39.346 52.9434 41.1646 52.9434C42.1273 52.9434 42.9831 52.8329 43.9459 52.8329C44.6947 52.8329 45.3365 52.8329 46.0853 52.8329C46.4062 52.8329 46.7271 52.8329 46.9411 52.9434C47.262 53.0538 47.476 53.2747 47.476 53.6061C47.476 53.9374 47.155 54.1583 46.8341 54.1583C46.4062 54.1583 45.9783 54.1583 45.4435 54.1583C44.5877 54.1583 43.7319 54.1583 42.8761 54.1583C41.8064 54.1583 40.8436 54.2688 39.7739 54.2688C37.5275 54.2688 35.2811 54.3792 33.0346 54.3792C31.8579 54.3792 30.6812 54.3792 29.5045 54.3792C28.1139 54.3792 26.6163 54.2688 25.2256 54.2688C23.9419 54.2688 22.6583 54.1583 21.3746 54.1583C19.9839 54.1583 18.5933 54.0479 17.2026 54.0479C16.2399 54.0479 15.3841 54.0479 14.4213 54.0479C13.4586 54.0479 12.4958 54.0479 11.5331 53.9374C11.1052 53.9374 10.7843 53.827 10.3564 53.7165C9.71454 53.4956 9.17967 52.9434 9.28665 52.1702C9.28665 51.1762 9.39363 50.2926 9.39363 49.2986C9.39363 49.1881 9.39363 49.1881 9.39363 49.0777C9.39363 47.5314 9.39363 45.9851 9.5006 44.4388C9.5006 43.8866 9.60757 43.2239 9.60757 42.6716C9.71454 41.5671 10.3564 41.2358 11.3191 41.2358C12.8168 41.2358 14.2074 41.2358 15.705 41.2358C16.2399 41.2358 16.7747 41.2358 17.3096 41.2358C18.3793 41.2358 19.4491 41.1253 20.5188 41.1253C22.4443 41.1253 24.3698 41.0149 26.2953 41.0149C27.793 41.0149 29.2906 41.0149 30.7882 41.1253C32.0719 41.1253 33.3555 41.2358 34.5322 41.2358C35.7089 41.2358 36.7787 41.3462 37.9554 41.3462C39.239 41.3462 40.5227 41.4567 41.9134 41.4567C42.8761 41.4567 43.7319 41.5671 44.6947 41.5671C45.7644 41.5671 46.8341 41.6776 47.9039 41.6776C48.4387 41.6776 48.8666 41.8985 49.1875 42.1194C51.0061 43.3343 52.8246 44.4388 54.7501 45.5433C55.6059 45.9851 56.3547 46.5373 57.1035 46.9791C57.2105 47.0896 57.3175 47.2 57.5314 47.3105C58.1732 47.9732 58.1732 48.7463 57.4244 49.2986C56.8896 49.7404 56.3547 50.0717 55.7129 50.2926C53.4664 51.3971 51.113 52.612 48.9736 54.0479C48.8666 54.1583 48.7596 54.1583 48.6527 54.2688C48.3317 54.4897 48.0108 54.3792 47.7969 54.1583C47.5829 53.827 47.6899 53.4956 48.0108 53.2747C48.3317 53.0538 48.6527 52.8329 48.8666 52.7225C50.5782 51.7285 52.2897 50.7344 54.0013 49.8508C54.7501 49.5195 55.4989 49.0777 56.1408 48.6359C56.5686 48.3045 56.6756 48.1941 56.8896 47.9732Z" fill="#6B488D"/>
<path d="M48.0107 48.7461C46.834 48.6356 45.7643 48.5252 44.6946 48.1938C44.0527 47.9729 43.4109 47.8625 42.7691 47.752C42.4481 47.752 42.1272 47.752 41.8063 47.8625C41.3784 47.9729 41.0575 48.1938 40.6296 48.4147C40.0947 48.6356 39.5599 48.967 39.025 48.967C38.2762 48.967 37.6344 48.7461 37.0995 48.1938C36.9925 48.0834 36.8855 47.9729 36.7786 47.8625C36.4577 47.4207 35.9228 47.3102 35.4949 47.4207C34.8531 47.5311 34.2112 47.6416 33.4624 47.752C32.2857 47.8625 31.109 47.752 29.9323 47.0893C29.3974 46.8684 28.8626 46.5371 28.3277 46.3162C28.1138 46.2057 27.7929 46.3162 27.5789 46.4266C27.044 46.6475 26.5092 46.9789 26.0813 47.1998C25.1185 47.752 24.1558 47.752 23.193 47.6416C22.8721 47.5311 22.4442 47.4207 22.1233 47.5311C21.6954 47.5311 21.1605 47.6416 20.7326 47.752C20.1978 47.8625 19.6629 48.0834 19.0211 47.9729C18.3792 47.9729 17.7374 47.6416 17.0956 47.4207C16.6677 47.3102 16.2398 47.0893 15.9189 47.1998C15.5979 47.3102 15.384 47.4207 15.0631 47.5311C14.9561 47.6416 14.8491 47.752 14.6352 47.752C14.3143 47.8625 14.1003 47.752 13.8864 47.5311C13.7794 47.3102 13.7794 46.9789 13.8864 46.758C13.9934 46.6475 14.1003 46.5371 14.3143 46.4266C15.277 45.7639 16.2398 45.7639 17.3095 46.0953C17.8444 46.3162 18.3792 46.4266 18.9141 46.6475C19.342 46.758 19.7699 46.6475 20.1978 46.5371C20.7326 46.4266 21.2675 46.2057 21.6954 46.2057C22.1233 46.2057 22.6582 46.2057 23.086 46.3162C24.1558 46.5371 25.1185 46.3162 25.9743 45.7639C26.5092 45.4326 27.151 45.1013 27.7929 44.9908C28.3277 44.8804 28.8626 45.1012 29.2905 45.3221C29.8253 45.543 30.2532 45.8744 30.7881 46.0953C31.6439 46.4266 32.4997 46.5371 33.3554 46.4266C34.2112 46.3162 34.96 46.2057 35.8158 46.0953C36.3507 45.9848 36.7786 46.3162 37.2065 46.6475C37.4204 46.8684 37.6344 47.0893 37.8483 47.1998C38.3832 47.752 38.918 47.8625 39.6668 47.5311C40.0947 47.3102 40.4157 47.0893 40.7366 46.9789C41.6993 46.4266 42.7691 46.4266 43.8388 46.758C44.5876 46.9789 45.3364 47.1998 46.0852 47.3102C46.6201 47.4207 47.2619 47.5311 47.7968 47.5311C48.2247 47.5311 48.4386 47.752 48.4386 48.1938C48.6526 48.5252 48.3316 48.7461 48.0107 48.7461Z" fill="#6B488D"/>
<path d="M37.7411 14.1758C36.5644 14.1758 35.3877 13.8445 34.3179 13.5131C33.4621 13.2922 32.6064 12.9609 31.7506 13.0713C31.1087 13.0713 30.5739 13.2922 29.932 13.4027C29.1832 13.6236 28.4344 13.734 27.7926 13.5131C27.4717 13.4027 27.0438 13.2922 26.7229 13.1818C26.4019 13.0713 26.188 13.1818 25.8671 13.2922C25.3322 13.5131 24.9043 13.734 24.3695 14.0654C23.7276 14.3967 23.0858 14.6176 22.4439 14.6176C21.6951 14.6176 20.9463 14.2863 20.3045 13.9549C19.8766 13.734 19.5557 13.5131 19.1278 13.2922C18.165 12.8504 17.3093 12.9609 16.5604 13.734C16.0256 14.2863 15.5977 14.8385 15.0628 15.3908C14.9558 15.5012 14.8489 15.6117 14.7419 15.7221C14.528 15.943 14.207 15.943 13.9931 15.8326C13.7791 15.6117 13.6722 15.3908 13.7791 15.0594C14.528 13.8445 15.4907 12.6295 16.7744 12.0773C17.7371 11.6355 18.6999 11.7459 19.6627 12.2982C20.3045 12.6295 20.8394 12.9609 21.4812 13.1818C22.0161 13.4027 22.5509 13.4027 23.0858 13.1818C23.7276 12.8504 24.2625 12.5191 24.9043 12.2982C25.3322 12.0773 25.7601 11.9668 26.188 11.9668C26.5089 11.9668 26.8298 12.0773 27.1508 12.0773C27.6856 12.1877 28.1135 12.5191 28.6484 12.4086C29.0763 12.2982 29.5042 12.1877 29.932 12.0773C31.2157 11.7459 32.6064 11.8564 33.89 12.1877C34.7458 12.4086 35.4946 12.6295 36.3504 12.8504C36.9923 12.9609 37.7411 12.9609 38.3829 12.8504C39.5596 12.74 40.6293 12.4086 41.806 12.0773C42.2339 11.9668 42.5548 12.1877 42.6618 12.5191C42.7688 12.8504 42.5548 13.1818 42.127 13.2922C41.1642 13.5131 40.0945 13.8445 39.1317 14.0654C38.8108 14.1758 38.2759 14.1758 37.7411 14.1758Z" fill="#6B488D"/>
<path d="M25.2255 61.227C25.2255 60.3434 25.2255 59.4598 25.2255 58.6867C25.2255 57.6927 25.1185 56.6986 25.1185 55.7046C25.1185 55.5941 25.1185 55.3732 25.1185 55.2628C25.1185 54.821 25.4394 54.6001 25.7604 54.7105C26.0813 54.7105 26.2952 55.0419 26.2952 55.3732C26.2952 56.1464 26.2952 57.03 26.2952 57.8031C26.2952 59.9016 26.2952 62.0002 26.2952 64.0987C26.2952 64.5405 26.4022 64.6509 26.8301 64.7614C27.365 64.8718 27.8998 64.8718 28.4347 64.9823C29.7184 65.0927 31.002 65.0927 32.2857 65.0927C32.7136 65.0927 33.1415 64.9823 33.5694 64.9823C33.7833 64.9823 33.8903 64.8718 33.8903 64.6509C33.8903 63.9882 33.7833 63.436 33.7833 62.7733C33.7833 62.442 33.7833 62.2211 33.7833 61.8897C33.7833 60.8957 33.6764 59.9016 33.6764 58.9076C33.6764 57.9135 33.6764 56.9195 33.6764 55.9255C33.6764 55.7046 33.6764 55.4837 33.7833 55.2628C33.8903 54.9314 34.2112 54.7105 34.4252 54.821C34.7461 54.9314 34.96 55.1523 34.96 55.4837C34.96 56.1464 34.96 56.9195 34.96 57.5822C34.96 58.6867 34.96 59.9016 35.067 61.0061C35.067 62.0002 35.174 63.1046 35.281 64.0987C35.281 64.43 35.281 64.7614 35.281 64.9823C35.281 65.7554 34.6391 66.0868 34.1043 66.1972C32.9275 66.4181 31.7508 66.3077 30.5741 66.3077C29.8253 66.3077 29.0765 66.1972 28.3277 66.1972C27.6859 66.0868 27.151 66.0868 26.5092 65.8659C25.8673 65.7554 25.3325 65.2032 25.3325 64.43C25.2255 63.3256 25.3325 62.2211 25.2255 61.227Z" fill="#6B488D"/>
<path d="M25.4394 3.35141C25.4394 3.79321 25.5464 4.23501 25.5464 4.56635C25.5464 4.78725 25.4394 5.1186 25.2254 5.22905C24.7976 5.3395 24.4766 5.22905 24.3697 4.78725C24.2627 3.79321 24.1557 2.68872 24.4766 1.69468C24.5836 1.03198 25.1185 0.590185 25.7603 0.479736C26.4021 0.479736 27.044 0.479736 27.6858 0.479736C27.8998 0.479736 28.2207 0.479736 28.4346 0.479736C29.3974 0.479736 30.3601 0.590188 31.3229 0.590188C31.8578 0.590188 32.3926 0.590188 32.8205 0.590188C33.0345 0.590188 33.3554 0.590186 33.5693 0.700635C34.2112 0.921533 34.4251 1.47378 34.5321 2.02603C34.6391 2.68872 34.6391 3.46186 34.6391 4.12456C34.6391 4.56636 34.4251 4.78725 34.1042 4.8977C33.7833 4.8977 33.4624 4.6768 33.4624 4.23501C33.3554 3.68276 33.3554 3.13052 33.3554 2.57827C33.2484 1.80513 33.3554 1.91558 32.7135 1.91558C31.7508 1.91558 30.788 1.91558 29.9323 1.91558C28.9695 1.91558 27.8998 1.80513 26.937 1.69468C26.6161 1.69468 26.4022 1.69468 26.0812 1.69468C25.8673 1.69468 25.7603 1.91557 25.6533 2.13647C25.5464 2.57827 25.5464 3.02007 25.4394 3.35141Z" fill="#6B488D"/>
<path d="M34.96 20.8025C34.96 20.4712 34.96 20.2503 35.0669 19.9189C35.1739 19.5876 35.3879 19.3667 35.7088 19.3667C36.0297 19.3667 36.2436 19.698 36.2436 20.0294C36.2436 20.5816 36.2436 21.0234 36.2436 21.5757C36.2436 22.0175 36.0297 22.2384 35.7088 22.3488C35.3879 22.3488 35.0669 22.1279 35.0669 21.7966C35.0669 21.3548 35.0669 21.0234 34.96 20.8025Z" fill="#6B488D"/>
<path d="M26.0812 21.6863C26.0812 22.0176 25.8673 22.2385 25.5464 22.349C25.3324 22.349 25.0115 22.2385 24.9045 21.9072C24.7976 21.6863 24.7975 21.3549 24.7975 21.134C24.7975 20.8027 24.6906 20.3609 24.7975 20.0295C24.7975 19.6982 25.1185 19.4773 25.4394 19.4773C25.7603 19.4773 25.9742 19.6982 26.0812 20.0295C25.9742 20.5818 26.0812 21.134 26.0812 21.6863Z" fill="#6B488D"/>
<path d="M24.3698 39.0267C24.3698 38.9162 24.3697 38.6953 24.4767 38.5849C24.5837 38.2535 24.7976 38.1431 25.1186 38.1431C25.4395 38.1431 25.6534 38.364 25.6534 38.6953C25.6534 38.9162 25.7604 39.2476 25.7604 39.4685C25.7604 39.7998 25.5464 40.0207 25.3325 40.1312C25.0116 40.2416 24.6907 40.0207 24.6907 39.6894C24.3697 39.4685 24.3698 39.2476 24.3698 39.0267Z" fill="#6B488D"/>
<path d="M34.5321 38.8059C34.96 38.8059 35.1739 39.1373 35.2809 39.579C35.2809 39.9104 35.1739 40.2417 34.853 40.3522C34.746 40.3522 34.6391 40.3522 34.5321 40.3522C34.1042 40.2417 33.8902 39.4686 34.1042 39.1373C34.1042 38.8059 34.3181 38.8059 34.5321 38.8059Z" fill="#6B488D"/>
<path d="M18.0583 28.2023C18.5932 28.2023 18.9141 28.4232 19.235 28.6441C19.449 28.865 19.6629 29.1963 19.9838 29.4172C20.1978 29.6381 20.5187 29.859 20.8396 29.9695C21.0535 30.0799 21.1605 30.1904 21.3745 30.1904C21.4814 30.1904 21.5884 30.1904 21.6954 30.0799C22.1233 29.7486 22.5512 29.4172 22.9791 29.1963C23.4069 28.865 23.8348 28.6441 24.2627 28.4232C25.0115 28.2023 25.6534 28.4232 26.2952 28.7545C26.7231 28.9754 27.044 29.1963 27.3649 29.4172C28.1137 29.9695 28.9695 30.0799 29.9323 29.7486C30.6811 29.5277 31.5369 29.5277 32.3927 29.6381C33.1415 29.6381 33.8903 29.6381 34.6391 29.6381C35.3879 29.6381 36.1367 29.5277 36.8855 29.4172C38.0622 29.3068 39.132 29.1963 40.2017 28.5336C41.1644 27.9814 42.0202 28.0918 42.876 28.865C43.3039 29.1963 43.6248 29.5277 44.0527 29.9695C44.3736 30.3008 44.2667 30.9635 43.7318 30.9635C43.5178 30.9635 43.3039 30.9635 43.09 30.7426C42.769 30.4113 42.4481 30.1904 42.2342 29.859C42.1272 29.7486 41.9132 29.6381 41.8063 29.5277C41.4854 29.3068 41.1644 29.4172 40.9505 29.5277C40.6296 29.6381 40.3087 29.859 39.9877 29.9695C39.3459 30.3008 38.5971 30.4113 37.9553 30.4113C37.2064 30.5217 36.3507 30.6322 35.6019 30.6322C34.3182 30.7426 33.0345 30.7426 31.7508 30.7426C31.3229 30.7426 30.7881 30.7426 30.3602 30.8531C28.9695 31.2949 27.7928 30.9635 26.6161 30.1904C26.2952 29.9695 25.8673 29.7486 25.5464 29.5277C25.0115 29.1963 24.4767 29.3068 24.0488 29.6381C23.6209 29.859 23.3 30.1904 22.8721 30.4113C22.7651 30.5217 22.5512 30.6322 22.4442 30.6322C22.2302 30.7426 22.0163 30.7426 21.8024 30.6322C21.6954 30.5217 21.4814 30.6322 21.3745 30.6322C21.1605 30.6322 20.9466 30.7426 20.7326 30.6322C20.1978 30.5217 19.6629 30.3008 19.235 29.859C19.0211 29.6381 18.9141 29.4172 18.7001 29.3068C18.3792 28.9754 18.1653 28.9754 17.7374 29.1963C17.4165 29.4172 17.0955 29.6381 16.6677 29.9695C16.0258 30.5217 15.277 31.1844 14.5282 31.6262C14.4212 31.6262 14.4212 31.7367 14.3143 31.7367C13.9933 31.8471 13.6724 31.7366 13.4585 31.5158C13.3515 31.1844 13.4585 30.8531 13.6724 30.6322C14.1003 30.3008 14.5282 30.0799 14.9561 29.7486C15.491 29.3068 15.9188 28.865 16.4537 28.5336C16.9886 28.5336 17.5234 28.2023 18.0583 28.2023Z" fill="#6B488D"/>
</svg>
