<svg width="38" height="70" viewBox="0 0 38 70" fill="none" xmlns="http://www.w3.org/2000/svg">
<mask id="mask0_714_843" style="mask-type:luminance" maskUnits="userSpaceOnUse" x="0" y="0" width="38" height="70">
<path d="M0 0.5H38V69.5H0V0.5Z" fill="white"/>
</mask>
<g mask="url(#mask0_714_843)">
<path d="M37.9924 20.4475C38.152 15.3247 36.2963 10.3472 32.833 6.60822C29.3696 2.8692 24.5817 0.674328 19.5207 0.505636C15.0272 0.421215 10.6493 1.95087 7.16418 4.82315C3.67902 7.69543 1.3119 11.7246 0.482908 16.1956C0.482908 16.1956 -3.73202 32.9802 12.8093 51.1676L9.32594 54.552C9.2459 54.6259 9.1883 54.7213 9.15989 54.8271C9.13147 54.9329 9.13341 55.0447 9.16549 55.1494C9.19863 55.254 9.25949 55.3473 9.34144 55.4193C9.42338 55.4913 9.52327 55.5391 9.63021 55.5575C10.2418 55.6672 10.868 55.6635 11.4783 55.5466C11.5932 56.2124 11.8768 56.8366 12.3013 57.3583C12.3383 57.4043 12.384 57.4424 12.4356 57.4704C12.4873 57.4984 12.5439 57.5158 12.6023 57.5215L13.3147 57.5728C13.3723 57.5771 13.4301 57.5693 13.4845 57.5497C13.5389 57.5302 13.5887 57.4993 13.6306 57.4592C14.1012 57.0168 14.4603 56.4669 14.6781 55.8554C15.1241 56.0251 15.5921 56.128 16.0673 56.1609C16.8571 57.6536 17.3775 59.6672 15.7647 61.2383C13.1584 63.777 12.2814 66.2332 13.1111 68.7104C13.1634 68.8711 13.2503 69.0181 13.3653 69.1409C13.4804 69.2636 13.6209 69.359 13.7768 69.4203C13.9326 69.4816 14.0999 69.5072 14.2666 69.4953C14.4334 69.4835 14.5955 69.4344 14.7413 69.3516C13.8268 67.731 13.2116 65.4456 16.6152 62.1336C18.8698 59.9374 18.0235 57.1883 17.0383 55.3926C17.0383 55.3859 16.547 54.5722 16.3733 54.3256L14.4861 51.3713C36.7047 37.6798 37.9592 23.9396 37.9891 21.331C37.9891 21.0416 37.9891 20.5964 37.9891 20.4483" fill="#6E3F86"/>
</g>
</svg>
