<svg width="81" height="96" viewBox="0 0 81 96" fill="none" xmlns="http://www.w3.org/2000/svg">
<path d="M4.56719 2.67387C4.56833 1.5693 3.67382 0.672946 2.56925 0.671809C1.46468 0.670672 0.56833 1.56518 0.567193 2.66975L4.56719 2.67387ZM80.0782 79.2073C80.6865 78.2853 80.4322 77.0448 79.5102 76.4365L64.4854 66.524C63.5634 65.9158 62.3229 66.1701 61.7146 67.0921C61.1063 68.0141 61.3606 69.2546 62.2826 69.8629L75.638 78.6739L66.8269 92.0293C66.2186 92.9513 66.4729 94.1918 67.3949 94.8001C68.3169 95.4084 69.5575 95.154 70.1657 94.232L80.0782 79.2073ZM0.567193 2.66975C0.551339 18.0737 4.36749 40.4915 16.0449 57.5633C21.9062 66.1322 29.7774 73.3934 40.1618 77.6872C50.5507 81.9828 63.3012 83.2447 78.8104 80.0652L78.0071 76.1467C63.1423 79.194 51.2216 77.9318 41.6902 73.9907C32.1543 70.0478 24.856 63.3597 19.3465 55.305C8.28237 39.1299 4.55182 17.6037 4.56719 2.67387L0.567193 2.66975Z" fill="#E67F4F"/>
</svg>
