<svg width="82" height="48" viewBox="0 0 82 48" fill="none" xmlns="http://www.w3.org/2000/svg">
<path d="M81.2141 2.04366C81.2632 1.49355 80.857 1.00785 80.3069 0.95882L71.3424 0.159758C70.7923 0.110723 70.3066 0.51692 70.2576 1.06702C70.2086 1.61713 70.6147 2.10283 71.1649 2.15186L79.1333 2.86214L78.423 10.8305C78.374 11.3806 78.7801 11.8663 79.3302 11.9154C79.8804 11.9644 80.3661 11.5582 80.4151 11.0081L81.2141 2.04366ZM1.14811 44.76C0.601694 44.6797 0.0936566 45.0576 0.0133807 45.604C-0.0668952 46.1504 0.310989 46.6585 0.857408 46.7387L1.14811 44.76ZM0.857408 46.7387C8.35084 47.8396 16.9842 45.6599 25.6605 41.8655C34.3582 38.0617 43.2176 32.582 51.2093 26.9345C67.1768 15.6507 79.8529 3.56394 80.8596 2.72196L79.5766 1.18778C78.4316 2.14532 65.9382 14.077 50.0551 25.3011C42.1214 30.9076 33.3852 36.3043 24.8591 40.033C16.3116 43.7712 8.09287 45.7803 1.14811 44.76L0.857408 46.7387Z" fill="#6A498F"/>
</svg>
