<svg width="45" height="44" viewBox="0 0 45 44" fill="none" xmlns="http://www.w3.org/2000/svg">
<path d="M29.9629 43.9959H26.8355C25.3222 43.9959 23.8089 43.9959 22.2956 43.8966C20.7823 43.7973 19.2691 43.7973 17.7558 43.698L13.2159 43.4C11.9044 43.3007 10.492 43.2014 9.18053 43.2014C7.86902 43.2014 6.35567 43.1021 4.94328 43.0028C4.05583 42.9754 3.17507 42.842 2.32029 42.6055C1.89162 42.4775 1.50171 42.2474 1.18496 41.9356C0.868205 41.6238 0.634457 41.2399 0.504426 40.8179C0.321091 40.0656 0.186284 39.3027 0.100861 38.5337C-2.46317e-05 37.3419 0 36.1501 0 35.0577V22.1469C0 20.26 -2.46317e-05 18.373 0.100861 16.486V13.5066C0.100861 12.2156 0.100836 11.0238 0.201721 9.73273C0.302606 7.44852 0.504377 5.26362 0.706147 2.97941C0.699555 2.92549 0.705206 2.87081 0.72265 2.81929C0.740094 2.76777 0.768873 2.7207 0.807008 2.68146C0.907893 2.48284 1.00883 2.38353 1.10971 2.38353C1.18842 2.38823 1.26258 2.42113 1.31833 2.47602C1.37409 2.53091 1.40751 2.60398 1.41229 2.68146V3.6746C1.41229 4.27048 1.31143 4.86636 1.31143 5.46224V20.26C1.31143 20.4586 1.31151 20.4586 1.51328 20.3593C1.71505 20.26 1.81584 20.26 1.91672 20.1607C2.55866 19.894 3.26093 19.7994 3.95204 19.8867C4.64314 19.9739 5.29843 20.2397 5.85127 20.6572L7.06197 21.849C7.46551 22.1469 7.76814 22.5442 8.17168 22.8421C8.54504 23.1161 8.98964 23.2801 9.45393 23.3153C9.91822 23.3505 10.3831 23.2553 10.7947 23.0407C11.4935 22.7036 12.1391 22.2687 12.7115 21.7497C13.6195 20.9552 14.4265 20.1606 15.3345 19.4655C16.347 18.6793 17.4272 17.9814 18.5628 17.3799C19.8663 16.6791 21.1141 15.8823 22.2956 14.9963C23.1627 14.3265 23.9124 13.5213 24.515 12.6128C25.0074 11.9231 25.2962 11.1127 25.3496 10.2713C25.4031 9.42999 25.219 8.59049 24.8177 7.84577C24.4142 7.05126 24.0106 6.35606 23.607 5.66087C22.9193 4.57319 22.4725 3.35489 22.2956 2.08558C22.2956 1.88696 22.1948 1.58902 22.1948 1.39039C22.1902 1.33922 22.1675 1.29125 22.1306 1.25493C22.0937 1.2186 22.0449 1.19623 21.9929 1.19176C20.8832 1.19176 19.6725 1.19177 18.5628 1.29108H16.6461C14.931 1.39039 13.216 1.39039 11.6018 1.4897C10.8956 1.4897 10.1893 1.58902 9.48312 1.58902C7.96984 1.68833 6.45658 1.68833 4.84242 1.68833C4.33799 1.68833 3.7327 1.58902 3.22828 1.58902C3.01391 1.56844 2.80703 1.50055 2.62299 1.39039C2.43683 1.27288 2.29502 1.09841 2.21943 0.893823C2.20009 0.811697 2.20226 0.726074 2.22583 0.645024C2.2494 0.563975 2.2936 0.490162 2.35415 0.430549C2.41471 0.370937 2.48968 0.327486 2.57201 0.304286C2.65434 0.281085 2.74129 0.278905 2.82471 0.297944C3.37913 0.467384 3.96061 0.534716 4.53984 0.496568C5.95223 0.496568 7.46543 0.397256 8.87783 0.397256C9.58402 0.397256 10.3912 0.297944 11.0974 0.297944C12.9133 0.19863 14.6283 0.099312 16.4442 0.099312C17.554 0.099312 18.7646 0 19.8743 0H25.423C26.8354 0 28.1469 -1.51688e-06 29.5593 0.099312C30.669 0.099312 31.8797 0.198624 32.9894 0.198624C34.912 0.232128 36.8314 0.364729 38.7398 0.59588C39.741 0.640581 40.7286 0.841719 41.6655 1.19176C42.3633 1.37486 42.9717 1.79757 43.3807 2.38353C43.6384 2.84621 43.8093 3.35085 43.8851 3.87323C43.8851 4.86636 43.9859 5.8595 43.9859 6.95195V10.4279C44.0868 12.3149 44.0868 14.3012 44.1877 16.1881C44.2886 17.5785 44.3895 18.9689 44.4904 20.4586C44.5913 21.9483 44.6921 23.5373 44.793 25.1263C44.793 26.1195 44.8939 27.0133 44.8939 28.0064V32.3762C44.9268 34.6705 44.7581 36.9632 44.3895 39.2288C44.3098 40.1237 44.0707 40.9977 43.6832 41.811C43.4638 42.2942 43.1291 42.718 42.7075 43.0466C42.286 43.3751 41.7901 43.5985 41.262 43.698C40.6972 43.813 40.1234 43.8795 39.547 43.8966H31.8797C31.2444 43.9792 30.6035 44.0124 29.9629 43.9959ZM1.00885 33.568C1.10974 33.568 1.10971 33.568 1.10971 33.4687L3.22828 32.2769C4.84244 31.3831 6.45666 30.5886 8.07082 29.7941C9.19508 29.2817 10.3819 28.9145 11.6018 28.7016C12.9924 28.4827 14.4167 28.6195 15.7381 29.0989C16.8108 29.6097 17.7976 30.2796 18.6638 31.0851C19.37 31.7803 20.0761 32.5748 20.7823 33.3693C20.9841 33.568 20.9841 33.568 21.1859 33.4687L22.3965 32.8728C23.0392 32.5338 23.6474 32.1347 24.2125 31.681C24.9184 31.0691 25.4415 30.2794 25.7257 29.3968C26.0284 28.6023 26.331 27.8078 26.6336 26.914C26.7847 26.4738 27.0251 26.0684 27.3399 25.7222C27.5805 25.4524 27.8748 25.2339 28.2044 25.0802C28.534 24.9264 28.8922 24.8408 29.2567 24.8284C30.0609 24.7457 30.8695 24.7126 31.6779 24.7291C32.4549 24.7122 33.23 24.6459 33.9983 24.5304C34.5706 24.4371 35.1189 24.2347 35.6124 23.9346C35.7133 23.8352 35.8143 23.8353 35.8143 23.6366V22.9812C35.9151 21.7894 35.9151 20.6969 36.016 19.5052V16.3271C36.0151 15.4251 35.9135 14.5259 35.7133 13.6457C35.4964 12.5196 34.8905 11.502 33.9983 10.7656C33.4168 10.3343 32.8104 9.93636 32.1823 9.57382C31.577 9.17657 30.8709 8.87863 30.2656 8.48138C29.8661 8.26866 29.533 7.95292 29.3019 7.56801C29.0709 7.1831 28.9506 6.74355 28.954 6.29647V6.09785C28.954 5.99854 28.8531 5.89922 28.954 5.79991C29.3576 4.40952 29.7611 2.91982 30.0637 1.52943C30.1646 1.3308 30.0638 1.3308 29.862 1.3308H23.607C23.5551 1.33527 23.5064 1.35764 23.4695 1.39397C23.4326 1.43029 23.4099 1.47825 23.4053 1.52943C23.477 2.24387 23.6467 2.94545 23.9098 3.61501C24.1226 4.27071 24.4655 4.87833 24.9186 5.40266C25.4748 6.19961 25.9162 7.06859 26.2302 7.98481C26.5109 8.74853 26.6475 9.55627 26.6336 10.3683C26.5371 11.5481 26.1189 12.6804 25.423 13.6457C24.7066 14.6489 23.8192 15.5226 22.8 16.2278C21.6903 17.1217 20.3788 17.8168 19.1682 18.6114C18.2602 19.1079 17.453 19.7038 16.5451 20.2997C15.558 21.0404 14.6149 21.8362 13.7204 22.6832C13.1072 23.225 12.4297 23.6919 11.7027 24.0736C10.9012 24.5003 9.97438 24.6406 9.07967 24.4709C8.39669 24.3015 7.77059 23.9591 7.26369 23.4777C6.7848 22.988 6.27965 22.5239 5.75041 22.0873C5.52251 21.8279 5.2447 21.6153 4.93306 21.4619C4.62141 21.3085 4.28202 21.2173 3.93443 21.1935C3.48771 21.1634 3.03985 21.2312 2.62299 21.3921C2.28066 21.6104 1.99355 21.9028 1.78372 22.2471C1.57388 22.5914 1.44681 22.9784 1.41229 23.3784V33.5084C1.04911 33.3693 1.04912 33.4687 1.04912 33.568H1.00885ZM36.7221 22.8421C36.823 22.7428 36.8231 22.7428 36.924 22.7428C37.1257 22.5442 37.2266 22.3455 37.4284 22.1469C38.191 21.2284 38.8984 20.2667 39.547 19.2668L42.8762 13.9039C42.9565 13.7874 42.9922 13.6466 42.9771 13.5066C42.9771 12.6128 42.8762 11.6197 42.8762 10.7259V4.96568C42.8762 4.56842 42.7752 4.07185 42.7752 3.6746C42.7501 3.38696 42.6417 3.11245 42.4629 2.88362C42.2841 2.65478 42.0424 2.48123 41.7664 2.38353C41.2489 2.15907 40.7075 1.9925 40.1523 1.88696C38.8529 1.65646 37.5376 1.52366 36.2177 1.4897C34.6035 1.39039 32.9895 1.39039 31.3753 1.29108C30.9717 1.29108 30.9717 1.29107 30.9717 1.58902C30.7833 2.42888 30.5476 3.25777 30.2656 4.07185C30.0357 4.64294 29.8995 5.24634 29.862 5.8595C29.8071 6.1535 29.8343 6.45667 29.9409 6.73657C30.0476 7.01647 30.2295 7.26256 30.4673 7.44852L31.4761 8.14371C32.2832 8.54096 32.9895 8.93822 33.7966 9.43479C34.5169 9.84941 35.1406 10.4085 35.6272 11.0758C36.1138 11.743 36.4525 12.5036 36.6213 13.308C36.823 14.3012 36.924 15.3936 37.0248 16.3867V19.7634C37.0248 20.7565 36.924 21.6504 36.924 22.6435C36.7626 22.6435 36.7625 22.7428 36.7625 22.8421H36.7221ZM33.1911 42.9034C33.1911 42.8041 33.0903 42.8041 33.0903 42.7048C32.9521 42.5587 32.8452 42.3866 32.7759 42.1989C32.7066 42.0113 32.6762 41.8118 32.6867 41.6124C32.7876 41.1158 32.8885 40.6192 32.9894 40.0234C33.1841 38.8057 32.895 37.5609 32.1823 36.5474C31.7438 35.8672 31.1583 35.2907 30.4673 34.8591C29.7564 34.3786 28.9078 34.135 28.046 34.1639C27.1753 34.2086 26.3204 34.4106 25.5239 34.7597C24.9186 34.9584 24.3132 35.157 23.607 35.3556C23.1467 35.5008 22.657 35.5315 22.1817 35.4448C21.7064 35.3582 21.2602 35.1569 20.8832 34.8591C20.7823 34.7597 20.6814 34.7597 20.4796 34.8591C18.9664 35.6536 17.3522 36.3488 15.8389 37.1433C14.0554 37.9583 12.3646 38.957 10.7947 40.1227C9.98759 40.7186 9.28144 41.3144 8.57525 41.9103C8.47436 41.9103 8.47429 42.0096 8.3734 42.1089C16.5855 42.7048 24.8581 43.0028 33.2315 42.9034H33.1911ZM13.0141 29.5954C12.6106 29.6948 12.1062 29.6947 11.7027 29.7941C10.3091 30.1079 8.95551 30.5743 7.66725 31.1845C6.25486 31.8796 4.94338 32.5748 3.53098 33.27C3.10635 33.4642 2.70098 33.6969 2.32029 33.9652C1.94081 34.264 1.5358 34.5298 1.10971 34.7597C1.07158 34.799 1.04268 34.846 1.02523 34.8976C1.00779 34.9491 1.00226 35.0038 1.00885 35.0577C1.00885 36.3488 1.10971 37.6398 1.10971 38.8316C1.11171 39.4397 1.21385 40.0434 1.41229 40.6192C1.48165 40.8446 1.6123 41.0471 1.79012 41.2046C1.96795 41.3622 2.18617 41.4688 2.42115 41.5131L3.83357 41.811C4.64065 41.9103 5.44775 41.9103 6.25484 42.0096C6.55749 42.0096 6.75921 42.0096 6.96098 41.7117C7.70673 40.9122 8.55448 40.2112 9.48312 39.6261C11.7193 38.0799 14.0813 36.718 16.5451 35.5542C17.5539 35.0577 18.5628 34.5611 19.5716 34.1639C19.7734 34.0645 19.7735 34.0645 19.6726 33.8659C19.376 33.5933 19.1057 33.2941 18.8655 32.9721C18.2094 32.26 17.5014 31.5962 16.7469 30.9858C15.6986 30.1459 14.4046 29.6587 13.0545 29.5954H13.0141ZM26.331 30.4893H26.7346C28.2479 30.4893 29.761 30.3899 31.1734 30.4893C33.0903 30.4893 35.0072 30.5886 36.924 30.6879C38.3364 30.7872 39.7487 30.7872 41.1611 30.8865C41.9383 30.899 42.7138 30.9654 43.4815 31.0851C43.6833 31.0851 43.6832 31.0851 43.6832 30.8865V27.3112C43.6832 27.1126 43.6833 27.1126 43.4815 27.1126H43.1788C41.6655 27.2119 40.1523 27.2119 38.639 27.3112C37.1257 27.4105 35.7133 27.4105 34.2 27.4105C32.9894 27.4105 31.6779 27.5098 30.4673 27.5098H29.7611C29.055 27.6092 28.2478 27.6092 27.5416 27.7085C27.5007 27.7037 27.4592 27.7081 27.4203 27.7214C27.3814 27.7347 27.346 27.7565 27.3168 27.7851C27.2877 27.8138 27.2656 27.8486 27.2521 27.887C27.2386 27.9253 27.2341 27.9661 27.239 28.0064L26.331 30.3899V30.4893ZM21.892 34.3625C21.9929 34.4618 22.0939 34.4618 22.1948 34.5611C22.6004 34.6273 23.0164 34.5931 23.4053 34.4618C24.1115 34.2632 24.9186 33.9652 25.6248 33.7666C26.4006 33.4903 27.2211 33.3556 28.046 33.3693C29.1331 33.3951 30.1873 33.741 31.0726 34.3625C31.1124 34.4 31.1603 34.4284 31.2126 34.4456C31.2649 34.4627 31.3205 34.4683 31.3753 34.4618H33.1911C33.6606 34.4121 34.1341 34.4121 34.6036 34.4618C36.2177 34.4618 37.8319 34.4618 39.4461 34.5611C40.2532 34.5611 40.9593 34.6604 41.7664 34.6604C42.2708 34.6604 42.7752 34.7597 43.2797 34.7597C43.4814 34.7597 43.4815 34.7597 43.5824 34.5611C43.561 34.1941 43.595 33.8259 43.6832 33.4687V32.1776C43.6832 31.979 43.6833 31.979 43.4815 31.979H43.1788C41.7664 31.979 40.354 31.8796 39.0425 31.8796C37.9328 31.8796 36.7222 31.7803 35.6124 31.7803C34.2 31.7803 32.8885 31.681 31.4761 31.681H27.6425C26.9887 31.6337 26.3329 31.7357 25.7257 31.979C25.6249 32.0783 25.5239 32.0783 25.423 32.1776C25.1292 32.4168 24.8589 32.6828 24.6159 32.9721C23.862 33.5479 23.0509 34.047 22.1948 34.4618C22.0333 34.2632 22.0333 34.2632 21.892 34.3625ZM32.3841 35.2563C32.3841 35.3556 32.485 35.4549 32.485 35.5542C33.1482 36.2987 33.6311 37.1816 33.8974 38.1364C33.9983 38.5337 33.9983 38.5337 34.5027 38.5337H39.547C40.7576 38.5337 41.9682 38.633 43.1788 38.5337C43.2308 38.5292 43.2796 38.5068 43.3165 38.4705C43.3534 38.4342 43.3761 38.3862 43.3807 38.335C43.4815 37.5405 43.4815 36.746 43.5824 35.9515C43.5824 35.8522 43.5824 35.7529 43.3807 35.7529H42.5735L37.731 35.4549C36.0159 35.3556 34.3009 35.4549 32.6867 35.3556C32.6158 35.2901 32.5216 35.2545 32.4244 35.2563H32.3841ZM38.4373 39.6261C37.1257 39.6261 35.8142 39.5268 34.4018 39.5268C34.0992 39.5268 34.0992 39.5268 33.9983 39.8247V39.924C33.8974 40.4206 33.7965 40.9172 33.6956 41.5131C33.6793 41.7492 33.7138 41.986 33.7966 42.2083C33.9085 42.3894 33.9774 42.5931 33.9983 42.8041C33.9983 43.0028 34.0991 43.0028 34.2 43.0028H39.4461C39.9559 42.9855 40.4628 42.919 40.9594 42.8041C41.4393 42.736 41.8735 42.4867 42.17 42.1089C42.376 41.8333 42.5456 41.533 42.6744 41.2151C42.7624 40.772 42.8977 40.3392 43.078 39.924C43.078 39.7254 43.078 39.7254 42.8762 39.7254H41.8674C40.6971 39.6261 39.5873 39.6261 38.4775 39.6261H38.4373ZM27.8443 26.616H28.1469L30.8709 26.3181C32.0815 26.2188 33.3929 26.2188 34.6036 26.2188C36.1168 26.2188 37.6301 26.1195 39.1434 26.1195C40.1523 26.1195 41.0602 26.0201 42.0691 26.0201H43.5824C43.6833 26.0201 43.7841 26.0201 43.7841 25.8215V25.4243C43.8008 24.8267 43.7671 24.2287 43.6832 23.6366C43.6881 23.5963 43.6837 23.5555 43.6702 23.5172C43.6567 23.4788 43.6345 23.444 43.6054 23.4153C43.5763 23.3867 43.5409 23.3649 43.502 23.3516C43.463 23.3383 43.4216 23.3339 43.3807 23.3387C42.7065 23.3552 42.0321 23.322 41.363 23.2394H38.1345C38.0798 23.2329 38.0242 23.2384 37.9719 23.2556C37.9195 23.2728 37.8718 23.3011 37.832 23.3387L37.2266 23.9346C36.3229 24.7515 35.2044 25.3021 33.9983 25.5236C33.033 25.6919 32.0522 25.7585 31.0726 25.7222C30.5326 25.7058 29.9922 25.739 29.4584 25.8215C29.0986 25.8135 28.7455 25.9178 28.4496 26.1195C28.2383 26.2578 28.048 26.425 27.8846 26.616H27.8443ZM38.7398 22.2462H38.9417C39.2443 22.2462 39.6479 22.1469 39.9505 22.1469C41.0603 22.1469 42.0691 22.2462 43.1788 22.2462C43.4815 22.2462 43.4815 22.2462 43.4815 21.9483C43.4815 21.1538 43.3807 20.4586 43.3807 19.6641C43.3761 19.6129 43.3534 19.5649 43.3165 19.5286C43.2796 19.4923 43.2308 19.4699 43.1788 19.4655H42.4727C41.9326 19.449 41.3923 19.4823 40.8585 19.5648C40.7576 19.5648 40.6567 19.5648 40.6567 19.6641C40.6567 19.7634 40.455 19.8627 40.455 19.962C40.0514 20.5579 39.5469 21.2531 39.1434 21.849C38.9974 21.957 38.8741 22.0919 38.7802 22.2462H38.7398ZM43.078 15.5922C42.4726 16.6847 41.8673 17.6778 41.262 18.7703H41.4638C41.9682 18.7703 42.4726 18.6709 43.078 18.6709C43.3806 18.6709 43.3807 18.6709 43.3807 18.373C43.3807 17.5785 43.2797 16.784 43.2797 16.0888C43.0779 15.7908 43.078 15.6915 43.078 15.5922Z" fill="#794593"/>
<path d="M6.28552 7.31144V6.1977C6.29983 5.98255 6.3471 5.7749 6.42372 5.5902C6.45659 5.52844 6.49843 5.47821 6.54623 5.44318C6.59402 5.40815 6.6465 5.38919 6.69993 5.3877C6.83808 5.3877 6.83811 5.48895 6.90718 5.69145C6.97625 5.89395 6.97622 6.19769 7.04529 6.50144C7.11436 7.41269 7.11441 8.32394 7.18348 9.13394V9.43769C7.18348 9.64018 7.11438 9.84269 6.97623 9.84269C6.94464 9.86418 6.91038 9.87598 6.87556 9.87735C6.84074 9.87873 6.80614 9.86966 6.77379 9.8507C6.74145 9.83173 6.71211 9.80328 6.68754 9.76708C6.66297 9.73088 6.64365 9.6877 6.63088 9.64019C6.56667 9.48335 6.52006 9.31243 6.49277 9.13394C6.43544 8.66638 6.4123 8.1912 6.42372 7.71644C6.28557 7.61519 6.28552 7.51394 6.28552 7.31144Z" fill="#794593"/>
<path d="M20.6492 8.8085C20.6492 9.5722 20.575 10.145 20.575 10.8132C20.5865 10.9782 20.5608 11.1439 20.5007 11.2905C20.4691 11.3894 20.4185 11.4764 20.3535 11.5432C20.2886 11.61 20.2115 11.6545 20.1295 11.6724C20.0896 11.6767 20.0495 11.6698 20.0119 11.6522C19.9743 11.6345 19.9402 11.6065 19.9119 11.5702C19.8836 11.5338 19.8618 11.4899 19.8481 11.4416C19.8344 11.3933 19.829 11.3418 19.8324 11.2905C19.8324 11.1951 19.7582 11.0041 19.7582 10.9087C19.7459 10.2073 19.7707 9.50558 19.8324 8.8085C19.9067 8.33119 19.981 7.94934 20.0552 7.47203C20.1295 7.28111 20.2037 7.18564 20.2779 7.18564C20.3081 7.18104 20.3387 7.18528 20.3673 7.19804C20.396 7.21081 20.422 7.23176 20.4434 7.25933C20.4649 7.2869 20.4811 7.32037 20.491 7.35721C20.501 7.39405 20.5043 7.43331 20.5007 7.47203C20.6177 7.90075 20.6681 8.35481 20.6492 8.8085Z" fill="#794593"/>
<path d="M5.31289 14.5098C5.32749 15.09 5.30255 15.6707 5.23834 16.2445C5.22084 16.4164 5.19596 16.5868 5.1638 16.7547C5.08924 16.9588 5.01467 17.0608 4.86555 17.0608C4.71643 17.0608 4.64185 16.9588 4.56729 16.7547C4.50564 16.4215 4.48053 16.0776 4.49275 15.7343C4.49275 15.2241 4.56729 14.6119 4.56729 14.1017C4.56177 13.6411 4.63859 13.1858 4.79101 12.7751C4.79436 12.7225 4.81115 12.6733 4.83842 12.6359C4.86569 12.5986 4.90167 12.5756 4.94009 12.571C5.01465 12.571 5.08924 12.6731 5.1638 12.7751C5.31622 13.1858 5.39295 13.6411 5.38743 14.1017C5.32812 14.2214 5.30173 14.366 5.31289 14.5098Z" fill="#794593"/>
<path d="M13.4701 7.4346C13.4719 6.81899 13.5477 6.20832 13.6944 5.62906C13.6944 5.52285 13.7691 5.31043 13.9186 5.41664C14.0681 5.52285 14.0681 5.52285 14.1429 5.73526C14.2907 6.49642 14.366 7.28226 14.3671 8.07185V9.45256C14.3671 9.66498 14.2177 9.77119 14.0682 9.87739C13.9911 9.8794 13.9152 9.85059 13.8491 9.79425C13.783 9.73791 13.7294 9.65632 13.6944 9.55877C13.6197 9.34636 13.6196 9.02773 13.5449 8.7091C13.4886 8.28917 13.4635 7.86199 13.4701 7.4346Z" fill="#794593"/>
<path d="M17.8814 4.93879C17.8814 5.41136 17.9577 5.88393 17.9577 6.3565V6.59279C17.9663 6.73335 17.9393 6.8736 17.8823 6.98386C17.8254 7.09411 17.7429 7.16572 17.6525 7.1835C17.5539 7.18848 17.4568 7.1456 17.3747 7.06086C17.2926 6.97612 17.2297 6.85378 17.1948 6.71093C17.1341 6.57231 17.1071 6.40489 17.1185 6.23836C17.0422 5.49479 17.0422 4.73722 17.1185 3.99365C17.1734 3.57456 17.2768 3.17431 17.4237 2.81223C17.4237 2.69409 17.5762 2.69409 17.5762 2.69409C17.6155 2.69942 17.6523 2.72602 17.6802 2.76923C17.7081 2.81244 17.7253 2.86949 17.7288 2.93037C17.8961 3.56612 17.9488 4.26028 17.8814 4.93879Z" fill="#794593"/>
<path d="M9.88295 5.09853C9.85959 4.73023 9.9108 4.36037 10.0313 4.02645C10.0313 3.92899 10.1054 3.83153 10.1795 3.73407C10.1896 3.69276 10.2094 3.65672 10.236 3.63115C10.2627 3.60558 10.2948 3.5918 10.3278 3.5918C10.3608 3.5918 10.393 3.60558 10.4197 3.63115C10.4463 3.65672 10.4661 3.69276 10.4761 3.73407C10.6244 3.94623 10.7041 4.22578 10.6985 4.51376C10.6863 4.90614 10.7113 5.299 10.7727 5.68331V6.46301C10.7843 6.63145 10.7584 6.80068 10.6985 6.95032C10.6244 7.24271 10.402 7.24271 10.1795 7.04778C9.95711 6.85286 10.0312 6.56047 9.95707 6.36555C9.89828 5.94786 9.87344 5.52313 9.88295 5.09853Z" fill="#794593"/>
<ellipse cx="13.4693" cy="38.1636" rx="1.79592" ry="2.2449" fill="#794593"/>
<path d="M21.5511 17.1636C21.5511 18.4034 20.5461 19.4085 19.3062 19.4085C18.0664 19.4085 17.0613 18.4034 17.0613 17.1636C17.0613 15.9238 18.0664 14.9187 19.3062 14.9187C20.5461 14.9187 21.5511 15.9238 21.5511 17.1636Z" fill="#794593"/>
</svg>
