<svg width="15" height="18" viewBox="0 0 15 18" fill="none" xmlns="http://www.w3.org/2000/svg">
<path d="M5.89614 17.696C4.4713 17.6864 2.67656 16.9221 1.34003 14.9386C0.0778536 13.0495 -0.207524 10.885 0.258286 8.53749C0.647835 6.37752 1.55979 4.59718 2.99416 3.19647C3.74915 2.44935 4.65095 2.17336 5.55212 1.99139C6.15269 1.90141 6.82762 1.90597 7.42819 1.81599C7.72816 1.81802 8.02749 1.91406 8.09994 2.29066C8.17176 2.76127 7.87053 2.94729 7.56992 3.03929C6.8181 3.3163 6.14127 3.5938 5.5369 4.2479C4.4794 5.36908 3.49753 6.39674 2.88681 7.99106C2.19856 9.96096 2.33332 12.2185 3.74865 13.6384C4.41914 14.3011 5.24214 14.5888 6.14141 14.6889C8.01557 14.7955 9.67047 14.0545 11.1055 12.5598C11.7098 11.9057 12.1655 11.0625 12.3225 10.0293C12.4813 8.71398 11.889 7.58167 10.7641 7.57408C9.26493 7.46994 8.13498 8.21453 7.22556 9.61879C6.92242 10.0869 6.61927 10.5549 6.16678 10.928C5.78929 11.3016 5.33998 11.2045 4.96755 10.8259C4.5945 10.5413 4.44832 9.97615 4.60148 9.50705C4.75527 8.94393 4.98404 8.38132 5.28718 7.91324C6.72789 5.57231 8.6103 4.45669 10.9344 4.5664C12.2836 4.66953 13.4034 5.4293 14.2188 6.84519C15.0336 8.3551 15.0222 10.0475 14.4858 11.7363C13.8726 13.7067 12.7382 15.1095 11.2313 16.1336C9.72453 17.1577 8.1459 17.7112 5.89614 17.696Z" fill="#794593"/>
</svg>
