<svg width="122" height="137" viewBox="0 0 122 137" fill="none" xmlns="http://www.w3.org/2000/svg">
<g clip-path="url(#clip0_36_640)">
<mask id="mask0_36_640" style="mask-type:luminance" maskUnits="userSpaceOnUse" x="0" y="0" width="122" height="137">
<path d="M122 0V137H0V0H122Z" fill="white"/>
</mask>
<g mask="url(#mask0_36_640)">
<mask id="mask1_36_640" style="mask-type:luminance" maskUnits="userSpaceOnUse" x="0" y="0" width="99" height="121">
<path d="M98.9556 0V120.723H0V0H98.9556Z" fill="white"/>
</mask>
<g mask="url(#mask1_36_640)">
<mask id="mask2_36_640" style="mask-type:luminance" maskUnits="userSpaceOnUse" x="-1" y="0" width="100" height="121">
<path d="M45.6821 1.49214C47.3088 2.44164 48.6643 3.79808 49.8843 5.4258C51.3755 4.06937 53.2732 2.98422 55.5777 2.306C61.271 0.542633 66.2866 0.949563 69.6755 3.52679C71.9799 5.15451 74.5555 8.68125 74.4199 15.4634C74.2843 21.703 72.3866 31.7407 63.1688 40.9644C77.131 42.3209 87.5688 45.9832 89.0599 50.3238C89.7106 50.5409 90.2745 50.8447 90.821 51.0964L91.2288 51.2733C97.0577 53.7149 99.2266 58.8694 98.8199 62.5317C98.2777 67.8218 93.6688 71.3486 89.331 72.5694H88.6532V72.8407C88.5177 75.4179 88.3821 77.7238 88.111 79.8941C87.2977 87.3545 86.0777 95.0862 82.011 101.868C76.0466 111.77 65.4732 118.688 53.6799 120.18C42.2932 121.672 30.9066 118.01 23.0443 110.278C16.8088 104.039 12.7421 95.3575 10.9799 84.2347V84.0991H10.7088C5.55767 84.2347 0.81323 80.1654 -0.000103384 74.7397C-0.813437 69.5852 2.4399 64.2951 7.45545 62.5317C8.26879 62.1248 9.21767 61.7179 10.1666 61.311C10.4377 58.1912 10.7088 55.0714 11.251 51.8159C11.251 51.6803 11.3866 51.5446 11.3866 51.5446V51.2733C11.3866 46.3902 22.231 42.3209 37.2777 40.6931C31.991 35.9456 25.7555 28.7565 24.1288 20.0753C22.7732 12.8862 25.0777 6.51095 30.4999 2.71293C35.2443 -0.271229 41.4799 -0.949447 45.6821 1.49214Z" fill="white"/>
</mask>
<g mask="url(#mask2_36_640)">
<mask id="mask3_36_640" style="mask-type:luminance" maskUnits="userSpaceOnUse" x="0" y="0" width="99" height="121">
<path d="M98.9556 0V120.723H0V0H98.9556Z" fill="white"/>
</mask>
<g mask="url(#mask3_36_640)">
<path d="M0 0.00610352H98.8675V120.508H0V0.00610352Z" fill="#EEE0F0" fill-opacity="0.5"/>
</g>
</g>
</g>
<mask id="mask4_36_640" style="mask-type:luminance" maskUnits="userSpaceOnUse" x="46" y="15" width="51" height="54">
<path d="M96.8808 15.587L96.8882 68.2095L46.1978 68.2024L46.1904 15.5798L96.8808 15.587Z" fill="white"/>
</mask>
<g mask="url(#mask4_36_640)">
<mask id="mask5_36_640" style="mask-type:luminance" maskUnits="userSpaceOnUse" x="46" y="15" width="51" height="54">
<path d="M68.1473 17.0744C69.7739 18.024 71.1295 19.3804 72.3495 21.0081C73.8402 19.6521 75.7376 18.5673 78.0416 17.7539C83.7338 15.9916 88.7487 16.3992 92.1375 18.9765C94.4418 20.6044 97.0175 24.131 96.8829 31.0478C96.7486 40.1347 92.8205 56.9517 68.4256 68.0695C68.2901 68.2051 68.019 68.2051 67.8834 68.205C67.3413 68.205 66.9347 67.9337 66.6635 67.3911C66.3923 66.713 66.6633 65.8992 67.3409 65.6281C90.3806 55.0526 94.0378 39.4562 94.1722 31.0475C94.3071 26.5718 92.9513 23.181 90.5113 21.2819C87.8003 19.2472 83.5987 18.9753 78.8552 20.4665C76.6867 21.1444 75.0604 22.2291 73.8407 23.4496C76.0099 27.5186 76.6882 32.13 75.6043 34.4355C74.7912 35.9272 73.3004 36.4695 71.6739 35.9268C69.3697 35.1127 68.014 32.6713 68.1491 29.6875C68.1488 27.5175 68.9617 25.212 70.4523 23.0422C69.3678 21.5502 68.1478 20.1938 66.7923 19.3798C63.5392 17.4806 58.3889 18.0224 54.4587 20.7344C51.7483 22.6327 47.5473 26.9721 49.1749 35.3811C51.8876 49.4865 68.4244 59.7964 69.6444 60.6103L69.7799 60.6103C70.4576 61.0173 70.5933 61.831 70.1868 62.5091C69.7802 63.1872 68.9671 63.3227 68.2893 62.9157C67.476 62.5087 49.4482 51.5206 46.4642 35.7876C45.2434 28.7349 47.5466 22.3609 52.9675 18.5641C57.7108 15.1742 63.9454 14.6326 68.1473 17.0744ZM71.9436 25.8906C71.2661 27.2467 70.8597 28.6029 70.8599 29.8235C70.8601 31.3154 71.2669 32.943 72.6223 33.4857C72.8934 33.6213 72.8934 33.4857 72.8934 33.4857C73.0289 33.4857 73.2999 32.8076 73.2997 31.3158C73.2995 29.6883 72.757 27.6538 71.9436 25.8906Z" fill="white"/>
</mask>
<g mask="url(#mask5_36_640)">
<mask id="mask6_36_640" style="mask-type:luminance" maskUnits="userSpaceOnUse" x="46" y="15" width="51" height="54">
<path d="M96.8808 15.5866L96.8882 68.2092L46.1978 68.202L46.1904 15.5795L96.8808 15.5866Z" fill="white"/>
</mask>
<g mask="url(#mask6_36_640)">
<path d="M46.1904 15.5798L96.8808 15.587L96.8882 68.2091L46.1978 68.2019L46.1904 15.5798Z" fill="white"/>
</g>
</g>
<path d="M71.9437 25.8906C72.7571 27.7895 73.2996 29.6883 73.2998 31.3158C73.3 32.8077 73.029 33.3501 72.8935 33.4857C72.8935 33.4857 72.7579 33.4857 72.6224 33.4857C71.267 32.943 70.8601 31.3154 70.8599 29.8236C70.8597 28.4673 71.2662 27.1111 71.9437 25.8906ZM68.425 63.0514C69.1027 63.4584 69.9159 63.1872 70.3224 62.6448C70.7289 61.9667 70.4577 61.1529 69.9155 60.746C69.78 60.6103 52.1588 50.0291 49.3105 35.3812C47.6829 27.1078 51.8839 22.6328 54.4589 20.87C58.389 18.158 63.5393 17.6163 66.7924 19.5155C68.2834 20.3294 69.5034 21.6859 70.4524 23.1779C68.9618 25.3477 68.1489 27.6532 68.1492 29.8232C68.0141 32.8069 69.3698 35.2484 71.674 36.0624C73.3005 36.6052 74.7913 36.0629 75.4688 34.5711C76.5528 32.2656 75.8745 27.6543 73.7053 23.5852C74.925 22.3647 76.6868 21.28 78.7197 20.6022C83.5988 19.111 87.6649 19.3828 90.3759 21.4175C92.9513 23.3167 94.1716 26.7075 94.0367 31.1831C93.9024 39.5918 90.1096 55.3238 67.2055 65.7637C66.5279 66.0349 66.2569 66.8486 66.5281 67.5268C66.7992 68.0693 67.2059 68.3406 67.748 68.3407C67.8836 68.3407 68.1546 68.3408 68.2901 68.2052C92.685 57.0873 96.6132 40.2703 96.7474 31.1835C96.882 24.2666 94.1708 20.8756 92.002 19.1121C88.6133 16.5348 83.5984 16.1272 77.9061 17.8895C75.7376 18.5674 73.8403 19.6521 72.3496 21.0081C71.2651 19.3805 69.774 18.024 68.1474 17.0744C63.9455 14.6326 57.7109 15.3098 52.9676 18.5642C47.5467 22.3609 45.2435 28.735 46.5999 35.9233C49.7194 51.7919 67.7472 62.6444 68.425 63.0514Z" stroke="white" stroke-width="0.3" stroke-miterlimit="10"/>
</g>
<mask id="mask7_36_640" style="mask-type:luminance" maskUnits="userSpaceOnUse" x="86" y="57" width="23" height="9">
<path d="M87.526 57.0696L87.702 57.0737C94.7506 57.4815 102.206 58.7029 108.306 62.5002C109.797 63.4495 108.442 65.7544 106.951 64.805C101.122 61.2789 94.3443 60.1932 87.7024 59.7855C86.001 59.6544 85.9419 57.1219 87.526 57.0696Z" fill="white"/>
</mask>
<g mask="url(#mask7_36_640)">
<mask id="mask8_36_640" style="mask-type:luminance" maskUnits="userSpaceOnUse" x="86" y="57" width="23" height="9">
<path d="M108.848 57.0767L108.849 65.0765L86.3476 65.0733L86.3464 57.0735L108.848 57.0767Z" fill="white"/>
</mask>
<g mask="url(#mask8_36_640)">
<path d="M86.3804 57.0735L108.848 57.0767L108.849 65.03L86.3815 65.0268L86.3804 57.0735Z" fill="white"/>
</g>
</g>
<path d="M87.7024 59.7855C94.3443 60.1932 101.257 61.2789 106.951 64.805C108.442 65.7544 109.797 63.4495 108.306 62.5002C102.206 58.7028 94.7506 57.4815 87.702 57.0737C85.9398 56.9379 85.9402 59.6497 87.7024 59.7855Z" stroke="white" stroke-width="0.3" stroke-miterlimit="10"/>
<mask id="mask9_36_640" style="mask-type:luminance" maskUnits="userSpaceOnUse" x="45" y="86" width="18" height="12">
<path d="M47.6918 86.4252C48.3696 86.8321 48.5053 87.6458 48.0987 88.3238C47.5568 89.6799 47.6925 91.4429 48.3704 92.6635C49.1839 94.1553 50.5394 94.9692 52.166 94.9694C55.8256 94.8343 58.8072 91.9869 60.2977 88.868C60.5687 88.19 61.5175 88.0545 62.1953 88.3258C62.873 88.7327 63.0087 89.5464 62.7377 90.2245C61.7892 92.1229 60.5695 93.8857 58.8076 95.2416C55.826 97.411 51.3532 98.7665 48.0999 96.4606C45.1176 94.2904 44.4393 90.0863 45.7943 86.9673C46.0653 86.2893 47.1496 86.1539 47.6918 86.4252Z" fill="white"/>
</mask>
<g mask="url(#mask9_36_640)">
<mask id="mask10_36_640" style="mask-type:luminance" maskUnits="userSpaceOnUse" x="45" y="86" width="18" height="12">
<path d="M62.8724 86.2916L62.874 97.6831L45.1178 97.6806L45.1162 86.2891L62.8724 86.2916Z" fill="white"/>
</mask>
<g mask="url(#mask10_36_640)">
<path d="M45.1262 86.2938L62.8681 86.2964L62.8696 97.6622L45.1278 97.6597L45.1262 86.2938Z" fill="white"/>
</g>
</g>
<path d="M47.6917 86.4252C47.1495 86.1538 46.0652 86.2893 45.7942 86.9673C44.4392 90.0863 45.1175 94.2904 47.9642 96.4606C51.2176 98.7665 55.8259 97.411 58.672 95.2416C60.2983 93.8857 61.6535 92.1229 62.602 90.2244C62.873 89.5464 62.7374 88.7327 62.0596 88.3258C61.5174 87.9189 60.5686 88.1899 60.1621 88.868C58.6715 91.9869 55.8255 94.97 52.0303 94.9694C50.5393 94.9692 49.1838 94.1554 48.3703 92.6635C47.6924 91.3073 47.5567 89.6799 48.0986 88.3238C48.5052 87.6458 48.3695 86.8321 47.6917 86.4252Z" stroke="white" stroke-width="0.3" stroke-miterlimit="10"/>
<mask id="mask11_36_640" style="mask-type:luminance" maskUnits="userSpaceOnUse" x="65" y="89" width="14" height="20">
<path d="M70.8115 89.0845C71.4892 89.0846 72.3024 89.7628 72.167 90.441C71.7611 95.5949 70.8132 100.613 69.052 105.496C71.4914 105.089 73.9309 104.818 76.3703 104.412C77.0479 104.276 77.7256 104.683 77.9967 105.361C78.1323 106.039 77.7259 106.853 77.0483 106.989C73.7957 107.531 70.5431 107.802 67.2906 108.344C66.3419 108.479 65.1221 107.801 65.664 106.716C67.8317 101.562 68.9151 96.0014 69.4565 90.4406C69.5919 89.7625 69.9984 89.0844 70.8115 89.0845Z" fill="white"/>
</mask>
<g mask="url(#mask11_36_640)">
<mask id="mask12_36_640" style="mask-type:luminance" maskUnits="userSpaceOnUse" x="65" y="89" width="13" height="20">
<path d="M77.9943 89.0855L77.997 108.481L65.5286 108.479L65.5259 89.0837L77.9943 89.0855Z" fill="white"/>
</mask>
<g mask="url(#mask12_36_640)">
<path d="M65.5278 89.0837L77.9945 89.0855L77.9971 108.362L65.5305 108.361L65.5278 89.0837Z" fill="white"/>
</g>
</g>
<path d="M70.8116 89.0845C69.9984 89.0844 69.5919 89.7625 69.4565 90.4406C68.9152 96.0014 67.8317 101.562 65.6641 106.851C65.2576 107.936 66.4775 108.615 67.2906 108.479C70.5431 107.937 73.7957 107.666 77.0483 107.124C77.7259 106.853 78.1323 106.039 77.9967 105.361C77.7255 104.547 77.0479 104.276 76.3703 104.412C73.9309 104.818 71.4914 105.089 69.052 105.496C70.8132 100.613 71.7611 95.5949 72.167 90.441C72.3024 89.7628 71.4892 89.0846 70.8116 89.0845Z" stroke="white" stroke-width="0.3" stroke-miterlimit="10"/>
<mask id="mask13_36_640" style="mask-type:luminance" maskUnits="userSpaceOnUse" x="78" y="87" width="19" height="10">
<path d="M81.1899 88.0613C81.868 90.6379 83.7661 93.6216 86.7481 94.0288C90.0013 94.4361 92.5762 91.3175 94.338 89.0124C94.7445 88.47 95.4222 88.0633 96.1 88.4702C96.6422 88.7415 97.049 89.6908 96.6424 90.3688C94.2031 93.4874 90.8149 97.1483 86.4774 96.7409C82.411 96.1979 79.564 92.5361 78.4791 88.7389C78.0722 87.1116 80.6475 86.4339 81.1899 88.0613Z" fill="white"/>
</mask>
<g mask="url(#mask13_36_640)">
<mask id="mask14_36_640" style="mask-type:luminance" maskUnits="userSpaceOnUse" x="78" y="87" width="19" height="10">
<path d="M96.913 87.1143L96.9143 96.7424L78.4801 96.7398L78.4788 87.1117L96.913 87.1143Z" fill="white"/>
</mask>
<g mask="url(#mask14_36_640)">
<path d="M78.4788 87.1282L96.8071 87.1308L96.8084 96.7426L78.4801 96.74L78.4788 87.1282Z" fill="white"/>
</g>
</g>
<path d="M86.4774 96.7409C90.8149 97.1483 94.3386 93.4874 96.6424 90.3688C97.049 89.8264 96.7778 88.8771 96.1 88.4702C95.4222 88.0633 94.7445 88.3344 94.2024 89.0124C92.4407 91.3174 89.7302 94.436 86.6126 94.0288C83.7661 93.7572 81.868 90.6379 81.1899 88.0613C80.6475 86.4339 78.0722 87.1116 78.4791 88.7389C79.564 92.5361 82.411 96.1979 86.4774 96.7409Z" stroke="white" stroke-width="0.3" stroke-miterlimit="10"/>
<mask id="mask15_36_640" style="mask-type:luminance" maskUnits="userSpaceOnUse" x="22" y="57" width="100" height="80">
<path d="M57.3458 60.2093C51.111 60.6152 45.4185 62.1062 39.7261 64.2753C40.2688 68.2084 44.1997 69.8364 47.7239 70.9218C57.6188 74.0425 68.0556 74.9933 78.3567 75.1304C89.471 75.2677 100.449 72.5568 109.936 66.5909C110.75 66.1842 111.698 66.5912 111.97 67.405C111.97 67.2693 111.97 67.2693 112.105 67.1337C112.512 66.4557 113.325 66.3202 114.003 66.5915C118.476 68.4908 122.271 72.9668 121.73 78.1203C121.189 83.2738 116.852 86.9349 112.108 88.426C111.837 88.426 111.701 88.5616 111.566 88.4259C111.431 90.7314 111.295 93.1726 111.025 95.4781C110.213 103.073 108.858 110.938 104.928 117.583C98.8305 127.618 88.1237 134.533 76.4675 136.023C65.3533 137.514 53.6964 133.986 45.6984 126.119C38.6494 119.201 35.124 109.572 33.4962 99.9424L33.3606 99.9423C27.8035 100.077 23.3301 95.7367 22.5161 90.4474C21.7021 84.8869 25.3609 79.327 30.6468 77.836C32.2732 77.2937 33.0868 80.0062 31.3248 80.4128C27.2588 81.6328 24.413 85.8366 25.0913 90.0409C25.7696 93.974 28.8874 97.2293 32.9536 97.2299C31.7324 87.3295 32.1377 77.4293 33.6273 67.5293C33.8981 65.7663 36.4735 66.5804 36.2026 68.2078C34.5776 79.0571 34.1726 90.3135 36.2071 101.028C37.9704 110.386 41.9024 119.744 49.358 125.984C57.6269 133.037 69.4192 135.209 79.8555 132.498C90.6983 129.787 100.05 122.058 104.385 111.887C107.095 105.378 107.908 98.0544 108.313 91.0022C108.99 84.2213 108.989 77.1691 109.259 70.2526C104.109 73.2355 98.4167 75.4046 92.5886 76.6243C86.625 77.844 80.6613 78.1144 74.5619 77.8423C68.8692 77.5702 63.1764 77.1625 57.4836 76.2124C52.7396 75.398 47.8599 74.3123 43.3869 72.413C39.5915 70.785 36.8803 67.9366 36.7442 63.5968C36.7441 62.9187 37.1506 62.5119 37.6928 62.2407C44.1983 59.6649 50.5685 57.9028 57.3455 57.4969C59.1075 57.3615 59.1078 60.0739 57.3458 60.2093ZM111.97 68.3543C111.835 74.1859 111.7 79.8819 111.566 85.7135C115.089 84.6291 118.613 81.7816 119.019 77.8487C119.425 73.7801 116.172 70.3892 112.648 68.8969C112.241 68.8968 112.105 68.6255 111.97 68.3543Z" fill="white"/>
</mask>
<g mask="url(#mask15_36_640)">
<mask id="mask16_36_640" style="mask-type:luminance" maskUnits="userSpaceOnUse" x="22" y="57" width="100" height="80">
<path d="M121.591 57.5058L121.602 136.436L22.2513 136.422L22.2402 57.4918L121.591 57.5058Z" fill="white"/>
</mask>
<g mask="url(#mask16_36_640)">
<path d="M22.3984 57.4918L121.592 57.5061L121.602 136.365L22.4092 136.35L22.3984 57.4918Z" fill="white"/>
</g>
</g>
<path d="M111.565 85.7135C111.836 79.8819 111.835 74.1859 111.97 68.3543C112.105 68.6255 112.241 68.8968 112.512 69.0325C116.036 70.5248 119.29 73.7801 118.884 77.9843C118.477 81.7816 115.089 84.6291 111.565 85.7135ZM113.867 66.7271C113.189 66.4558 112.376 66.5913 111.97 67.2693C111.97 67.405 111.97 67.405 111.834 67.5406C111.563 66.7268 110.614 66.3198 109.801 66.7265C100.314 72.6924 89.4709 75.4033 78.221 75.266C67.9199 75.1289 57.4832 74.0425 47.5883 71.0574C44.0641 69.972 40.1332 68.344 39.5905 64.4109C45.2829 62.2418 51.1109 60.6152 57.2102 60.3449C58.9722 60.2095 58.9718 57.4971 57.2098 57.6325C50.4329 58.0384 44.0627 59.8005 37.6926 62.2407C37.1505 62.5119 36.744 62.9187 36.744 63.5968C36.8802 67.9366 39.4558 70.785 43.3867 72.413C47.8598 74.3123 52.7394 75.398 57.4835 76.2124C63.1763 77.1625 68.869 77.4346 74.5618 77.8423C80.5256 78.25 86.6249 77.844 92.5885 76.6243C98.4166 75.4046 104.109 73.2355 109.259 70.2526C108.989 77.1691 108.99 84.2213 108.584 91.1379C108.179 98.0544 107.366 105.513 104.656 112.023C100.321 122.329 90.8338 129.922 80.1265 132.633C69.6902 135.344 57.8979 133.037 49.629 126.119C42.1734 119.88 38.2414 110.521 36.4781 101.163C34.4435 90.3135 34.8486 79.0571 36.4736 68.3434C36.7445 66.5804 34.1691 65.902 33.8983 67.665C32.1376 77.4293 31.7323 87.3295 32.9535 97.2299C28.8873 97.2293 25.6339 93.974 25.0912 90.0409C24.4129 85.8366 27.2587 81.6328 31.3247 80.4128C32.9511 79.8706 32.2731 77.2937 30.6467 77.836C25.2253 79.4626 21.702 85.0225 22.516 90.4474C23.33 95.7367 27.9389 100.077 33.3605 99.9423C33.3605 99.9423 33.3605 99.9423 33.4961 99.9423C35.1239 109.572 38.6492 119.201 45.6983 126.119C53.6963 133.986 65.3532 137.514 76.4674 136.023C88.1236 134.398 98.8304 127.618 104.928 117.583C108.994 110.938 110.348 103.208 111.025 95.478C111.295 93.1726 111.431 90.7314 111.566 88.4259C111.701 88.4259 111.972 88.426 112.108 88.426C116.852 87.0705 121.188 83.2738 121.73 78.1203C122.136 73.1024 118.34 68.6264 113.867 66.7271Z" stroke="white" stroke-width="0.3" stroke-miterlimit="10"/>
</g>
</g>
<defs>
<clipPath id="clip0_36_640">
<rect width="122" height="137" fill="white"/>
</clipPath>
</defs>
</svg>
