<svg width="74" height="62" viewBox="0 0 74 62" fill="none" xmlns="http://www.w3.org/2000/svg">
<path d="M71.7505 59.2141C71.4848 58.6646 71.2192 58.2524 70.8207 57.8403C69.4923 55.917 68.164 53.9936 66.8357 52.2077C64.8432 49.3227 62.9835 46.3003 61.1238 43.1406C59.6627 40.5304 58.2015 37.9202 56.7403 35.3099C55.6777 33.3866 54.615 31.6007 53.6852 29.6773C52.6225 27.754 51.5598 25.6933 50.4972 23.77C48.9032 20.885 47.442 18.1374 45.7152 15.3898C44.254 12.7796 42.66 10.3067 41.066 7.8339C40.269 6.4601 39.2064 5.22366 38.4094 3.98723C38.1437 3.71247 37.878 3.43771 37.6124 3.16295C37.4795 3.02556 37.2139 3.02556 37.081 3.16295C36.6825 3.57509 36.284 3.84987 36.0184 4.26201C34.1587 6.59747 32.5647 9.0703 31.1035 11.5431C29.5095 14.1534 27.7827 16.7636 26.1887 19.5112C24.8604 21.7093 23.532 23.77 22.3365 25.9681C20.4769 29.1278 18.6172 32.2875 16.8904 35.4473C14.765 39.0192 12.7725 42.5911 10.6472 46.163C9.31887 48.4984 7.85771 50.8339 6.39654 53.1694C5.46671 54.6805 4.40405 56.3291 3.47422 57.8403C3.20855 58.2524 2.94288 58.6646 2.81005 59.2141C3.07572 59.2141 3.20854 59.3515 3.34137 59.3515C3.87271 59.3515 4.40406 59.4888 4.93539 59.4888C5.99806 59.4888 7.06071 59.4888 8.12338 59.4888C8.38905 59.4888 8.65472 59.4888 8.92039 59.3515C9.31889 59.3515 9.58455 59.3514 9.85021 59.6262C9.98305 59.901 10.1159 60.1757 9.85021 60.4505C9.71738 60.5879 9.4517 60.8626 9.31887 60.8626C8.78754 61 8.12339 61 7.59205 61C7.32639 61 7.06071 61 6.66221 61C5.86521 61 4.93538 61 4.13838 61C3.34138 61 2.54439 61 1.88022 60.5879C1.21606 60.3131 0.817548 59.6262 1.08321 58.8019C1.21605 57.8403 1.74739 57.016 2.27873 56.1917C3.34139 54.4058 4.53688 52.6198 5.73238 50.8339C7.06071 48.7732 8.25621 46.7125 9.45171 44.5144C10.78 42.1789 12.1084 39.9808 13.4367 37.6454C14.765 35.4473 15.9605 33.1118 17.2889 30.9138C18.75 28.4409 20.2112 25.8307 21.6724 23.3578C23.2664 20.6102 24.9932 17.8626 26.5872 15.115C28.4469 12.0927 30.4394 9.0703 32.299 6.04794C33.2289 4.67413 34.1587 3.43773 35.2213 2.20131C35.487 1.78917 36.0184 1.51439 36.4169 1.23963C37.2139 0.827491 38.0109 0.964887 38.675 1.51441C39.2064 1.92655 39.6049 2.47608 40.1362 3.0256C41.9959 5.49844 43.5898 7.97128 45.1838 10.5815C46.5122 12.7796 47.8405 15.1151 49.1688 17.4505C49.9658 18.9617 50.7629 20.3355 51.5599 21.8467C52.6225 23.77 53.5523 25.5559 54.615 27.4792C55.5448 29.2652 56.6075 31.0511 57.5374 32.8371C58.6 34.7604 59.5298 36.5463 60.5925 38.4697C62.0537 41.0799 63.6477 43.6901 65.2417 46.3004C66.3043 48.0863 67.4998 49.7348 68.5625 51.5208C69.758 53.1693 70.9535 54.8179 72.0162 56.6039C72.5475 57.4281 73.0788 58.115 73.4773 58.9393C73.743 59.7636 73.3445 60.7253 72.4147 60.7253C70.6878 60.7253 69.0938 60.7253 67.367 60.7253C66.57 60.7253 65.6402 60.7253 64.8432 60.7253C62.8507 60.7253 60.8582 60.7253 58.8657 60.7253C56.7404 60.7253 54.7478 60.7253 52.6225 60.7253C47.5748 60.7253 42.5272 60.7253 37.6124 60.7253C35.8855 60.7253 34.1587 60.7253 32.4319 60.7253C30.5722 60.7253 28.5797 60.7253 26.72 60.7253C24.0634 60.7253 21.4067 60.7253 18.75 60.7253C16.7575 60.7253 14.765 60.7253 12.7725 60.7253C12.5069 60.7253 12.2412 60.7253 11.9755 60.4505C11.7099 60.1757 11.577 60.0383 11.7099 59.7636C11.7099 59.4888 11.9756 59.2141 12.2412 59.0767C12.3741 59.0767 12.5069 58.9393 12.6397 58.9393C17.8202 58.9393 23.0007 58.9393 28.314 58.9393C30.1737 58.9393 32.0334 58.9393 33.893 58.9393C38.5422 58.9393 43.1913 59.0767 47.8405 59.0767C50.0987 59.0767 52.3569 59.0767 54.7479 59.0767C59.6627 59.0767 64.7103 59.0767 69.6251 59.0767C70.1565 59.0767 70.6878 59.0767 71.2192 59.0767C71.352 59.3514 71.4848 59.3515 71.7505 59.2141Z" fill="#794593" stroke="#794593" stroke-width="0.3"/>
<path d="M34.9558 16.7637C36.417 16.7637 38.011 16.7637 39.4721 16.7637C40.1363 16.7637 40.8005 16.901 41.4646 17.1758C42.1288 17.4506 42.5273 18.0001 42.6601 18.687C42.793 19.2365 42.793 19.9234 42.793 20.6103C42.793 21.572 42.6601 22.3962 42.5273 23.3579C42.3945 24.1822 42.2616 24.8691 42.2616 25.6934C42.1288 26.655 41.996 27.6167 41.8631 28.5783C41.7303 29.2652 41.7303 29.9521 41.5975 30.639C41.4646 31.4633 41.3318 32.425 41.199 33.2493C41.0661 34.3483 40.8005 35.4474 40.6676 36.5464C40.402 37.9202 40.2691 39.294 40.0035 40.6678C39.8706 41.6295 39.605 42.5911 39.2065 43.5528C38.6751 44.6518 37.7453 45.2014 36.6826 44.9266C36.2841 44.7892 35.7528 44.6518 35.3543 44.5144C34.823 44.2397 34.4245 43.6902 34.4245 43.1406C34.2916 42.4537 34.1588 41.6295 34.1588 40.9426C34.026 39.9809 34.026 39.0193 33.8931 37.9202C33.8931 37.3707 33.7603 36.8212 33.7603 36.2716C33.6275 35.4474 33.6275 34.4857 33.4946 33.6614C33.4946 33.1119 33.3618 32.5624 33.3618 32.0128C33.229 31.3259 33.229 30.5017 33.0961 29.8148C32.9633 29.1279 32.9633 28.3036 32.8305 27.6167C32.6977 26.655 32.5648 25.6934 32.432 24.7317C32.2991 23.9074 32.2992 23.2205 32.1663 22.3962C32.0335 21.2972 31.9006 20.3355 31.9006 19.2365C31.9006 19.0991 31.9006 18.8244 31.9006 18.687C31.9006 18.5496 31.9006 18.4122 32.0335 18.4122C32.2991 18.1374 32.432 17.8627 32.5648 17.5879C32.6976 17.1758 33.0961 17.0384 33.6275 17.0384C33.8931 16.7636 34.4245 16.7637 34.9558 16.7637ZM33.3618 18.5496C33.4946 19.3739 33.4946 20.0608 33.6275 20.8851C33.7603 21.9841 33.8931 22.9458 34.026 24.0448C34.1588 25.0065 34.2916 25.9681 34.4245 26.9298C34.5573 27.7541 34.6901 28.5783 34.6901 29.2652C34.823 30.0895 34.823 30.9138 34.9558 31.6007C35.0886 32.2876 35.0886 33.1119 35.2215 33.7988C35.3543 34.7605 35.3543 35.5847 35.4871 36.5464C35.62 37.3707 35.62 38.3323 35.7528 39.1566C35.7528 39.8435 35.8856 40.5304 35.8856 41.2173C35.8856 41.6295 36.0185 41.9042 36.0185 42.3164C36.0185 42.7285 36.2841 42.8659 36.5498 43.0033C36.6826 43.0033 36.6826 43.0033 36.8155 43.0033C37.3468 43.1406 37.6125 43.0033 37.7453 42.5911C37.8781 42.3164 38.011 41.9042 38.1438 41.6295C38.5423 39.7061 38.808 37.7828 39.2065 35.8595C39.3393 35.0352 39.4721 34.211 39.605 33.2493C39.7378 32.1503 40.0035 31.0512 40.1363 29.8148C40.2691 29.1279 40.2691 28.3036 40.402 27.6167C40.5348 26.655 40.6676 25.6934 40.8005 24.7317C40.9333 23.77 41.0661 22.8084 41.199 21.8467C41.3318 21.0224 41.3318 20.1982 41.3318 19.3739C41.3318 18.687 41.0661 18.4122 40.5348 18.4122C40.0035 18.2748 39.3393 18.2748 38.808 18.2748C37.8781 18.2748 37.0811 18.2748 36.1513 18.2748C35.4871 18.2748 34.823 18.2748 34.2916 18.2748C33.8931 18.5496 33.6275 18.5496 33.3618 18.5496Z" fill="#794593" stroke="#794593" stroke-width="0.3"/>
<path d="M31.9005 51.5209C32.0333 49.735 32.6975 48.3612 34.4244 47.3995C34.9557 47.1248 35.487 46.9874 36.1512 46.7126C36.5497 46.5752 36.9482 46.85 37.081 47.2621C37.2139 47.6743 37.081 48.0864 36.6825 48.2238C36.5497 48.3612 36.284 48.3612 36.0184 48.3612C35.0885 48.636 34.2915 49.1855 33.893 50.0097C33.3617 51.2462 33.4945 52.8947 34.9557 53.4442C35.7527 53.719 36.5497 53.719 37.2138 53.3068C38.2765 52.7573 39.2064 52.0704 39.472 50.834C39.7377 49.5976 38.9407 48.6359 38.0108 48.6359C37.6123 48.6359 37.3467 48.2238 37.3467 47.6743C37.3467 47.2622 37.7452 46.9874 38.1437 46.85C39.2064 46.85 40.4018 47.6743 40.9332 48.6359C41.7302 50.1471 41.1988 51.9331 40.269 53.1695C39.472 54.1312 38.5422 54.8181 37.3467 55.0928C35.7527 55.505 33.893 55.2302 32.6975 53.5816C32.299 53.4442 31.9005 52.4826 31.9005 51.5209Z" fill="#794593" stroke="#794593" stroke-width="0.3"/>
</svg>
