<svg width="43" height="106" viewBox="0 0 43 106" fill="none" xmlns="http://www.w3.org/2000/svg">
<path d="M1.83604 3.88407C0.795501 3.51346 0.252409 2.3695 0.623013 1.32896C0.993617 0.288421 2.13758 -0.254671 3.17812 0.115933L1.83604 3.88407ZM22.3602 105.097C21.2628 105.223 20.2714 104.435 20.1458 103.337L18.0998 85.4539C17.9742 84.3565 18.7621 83.3651 19.8595 83.2395C20.9569 83.114 21.9483 83.9018 22.0739 84.9992L23.8926 100.896L39.7889 99.0768C40.8863 98.9513 41.8777 99.7391 42.0033 100.837C42.1288 101.934 41.341 102.925 40.2435 103.051L22.3602 105.097ZM3.17812 0.115933C41.1838 13.6522 56.2798 63.3547 23.6987 104.354L20.5671 101.866C51.7343 62.6453 36.8304 16.3478 1.83604 3.88407L3.17812 0.115933Z" fill="#F39B70"/>
</svg>
