<svg width="100" height="100" viewBox="0 0 100 100" fill="none" xmlns="http://www.w3.org/2000/svg">
<path d="M33.9036 58.1004C34.0981 58.8799 34.4872 59.4646 34.8763 59.8543C35.2654 60.2441 35.6545 60.439 36.2381 60.439C36.8217 60.439 37.2108 60.0492 37.4053 59.4646C37.5999 59.0748 37.7945 58.4902 37.7945 57.9055C37.989 56.5413 37.989 55.1772 38.1835 53.813L38.3781 52.254C38.5726 49.5256 39.1563 46.9921 39.7399 44.6536C41.2962 40.1713 43.6307 36.6633 46.938 34.1299C49.8561 31.9862 52.7743 30.8169 55.8869 30.622C58.6105 30.622 60.9451 31.5964 62.5014 33.5452C63.4741 34.7145 64.0578 36.0787 64.6414 37.8327C66.0032 42.1201 66.1977 46.6024 66.1977 50.1102C66.1977 53.2283 65.8087 56.3465 65.4196 60.2441V60.439C65.4196 60.8287 65.225 61.4134 65.225 61.8032C65.225 62.5827 65.6141 63.1674 66.3923 63.1674H66.5868C67.1704 63.1674 67.7541 62.7776 67.9486 62.193C67.9486 61.9981 68.1432 61.6083 68.1432 61.4134C68.7268 57.7106 69.1159 54.5925 69.1159 51.6693C69.3104 48.1614 69.1159 44.0689 68.3377 39.7815C67.7541 36.8583 66.7814 34.7146 65.6141 32.7657C63.4741 29.4527 60.3614 27.8937 56.4706 27.8937C56.276 27.8937 56.276 27.8937 56.0815 27.8937C53.747 27.8937 51.4124 28.4783 49.0779 29.6476C44.2144 31.9862 40.7126 35.8838 38.3781 41.1456C37.0163 44.2638 36.2381 47.7716 35.849 52.0591C35.849 52.8386 35.6545 53.4232 35.6545 54.2028C35.2654 52.0591 34.8763 49.7205 34.8763 47.3819C34.8763 45.2382 34.8763 43.0945 34.8763 40.561C34.8763 38.8071 35.0708 36.8582 35.2654 35.1043C35.2654 34.3248 35.4599 33.3504 35.4599 32.5708C35.4599 32.376 35.4599 31.9862 35.4599 31.7913C35.4599 31.2067 34.8763 30.622 34.2927 30.622C33.709 30.622 33.1254 30.8169 32.9309 31.4015C32.7363 31.5964 32.7363 31.9862 32.7363 32.181C32.7363 32.9606 32.5418 33.7401 32.5418 34.7146L32.3472 36.8583C32.1527 38.8071 31.9582 40.7559 31.9582 42.7047C31.7636 45.8228 31.9582 48.9409 32.3472 51.8642C32.7363 54.2027 33.1254 56.1516 33.9036 58.1004Z" fill="#74559F"/>
<path d="M87.2085 66.0905C87.0139 66.2854 86.8194 66.4803 86.6249 66.6751C86.2358 67.0649 86.0412 67.4547 85.6522 67.8445C85.2631 68.4291 84.874 68.8188 84.2903 69.4035C81.3722 72.7165 78.4541 75.0551 75.1468 77.0039C70.6723 79.3425 65.6142 80.5118 60.3615 80.5118H59.7779C56.6652 80.5118 54.3307 80.122 51.9962 79.3425C51.218 79.1476 50.4398 78.7578 49.6617 77.9783C49.4671 77.7834 49.4671 77.5886 49.2726 77.3937C49.6617 77.1988 50.0508 77.1988 50.4398 77.1988C51.6071 77.1988 52.7743 77.3937 53.9416 77.5886H54.5252C57.4434 77.7834 60.167 77.7834 62.696 77.1988C68.3378 75.8346 73.0068 73.1063 77.2868 68.624C80.0104 65.7007 82.5395 61.998 84.6794 57.1259C84.874 56.9311 84.8739 56.7361 84.8739 56.5413C84.8739 55.9566 84.6794 55.372 84.0958 55.1771C83.5122 54.9822 83.1231 54.9822 82.734 55.5668C82.5395 55.7617 82.3449 55.9567 82.3449 56.3464C82.1504 56.7362 81.9558 57.1259 81.7613 57.5157C81.5668 58.1003 81.1776 58.685 80.9831 59.2696C78.454 63.9468 75.5359 67.6495 71.8396 70.3779C66.976 74.0807 61.7233 75.6397 56.2761 75.4448C55.3034 75.4448 54.3307 75.25 53.358 75.25H52.9689C52.5798 75.25 52.1907 75.2499 51.9962 75.0551C51.0234 75.0551 49.8562 74.8602 48.8835 75.0551C47.7162 75.4448 46.938 76.0295 46.7435 77.0039C46.549 77.9783 46.7435 78.9527 47.5217 79.7323C47.9108 80.122 48.2999 80.5118 48.6889 80.7067C49.2726 81.0965 49.8562 81.4862 50.4398 81.6811C52.9689 82.8504 55.498 83.435 58.9997 83.435C59.5834 83.435 60.167 83.435 60.5561 83.435C62.307 83.435 64.0578 83.2401 65.6142 83.0452C65.2251 83.2401 64.836 83.6299 64.836 84.2145C64.836 84.4094 64.6415 84.7992 64.6415 84.9941C64.0578 89.0866 63.6688 93.374 63.4742 98.8307C63.4742 99.0256 63.4742 99.0256 63.4742 99.2205V99.8051H66.0033V99.4153C66.0033 98.8307 66.0033 98.4409 66.0033 97.8563C66.0033 96.8819 66.1978 95.7126 66.1978 94.7382C66.3924 92.3996 66.5869 89.8661 66.7815 87.5276L66.976 85.9685C66.976 85.7736 66.976 85.5787 66.976 85.3838C66.976 85.189 66.976 84.9941 66.976 84.6043C67.1706 83.435 66.1978 83.0452 66.0033 83.0452C70.4778 82.2657 74.7577 80.7067 78.454 78.3681C81.9558 76.0295 85.2631 72.9114 88.5703 68.624C88.7649 68.4291 88.7648 68.2342 88.9594 68.0393C89.1539 67.4547 89.1539 66.87 88.5703 66.4803C88.3758 65.8956 87.5976 65.8956 87.2085 66.0905Z" fill="#74559F"/>
<path d="M83.123 46.7967C83.3176 46.7967 83.5122 46.7967 83.7067 46.7967C85.4576 46.6018 87.2084 46.0172 88.7648 45.0428C93.6284 41.7298 96.1574 36.8577 96.5465 30.6215C96.5465 30.4266 96.5465 30.0369 96.5465 29.842C96.5465 29.2573 96.352 28.6727 96.352 28.088C95.9629 25.5546 94.7956 23.4109 93.0447 22.0467C90.3211 19.7081 87.403 19.3183 84.2903 20.6825C82.5394 21.462 81.1776 22.6313 80.0103 24.1904C79.6212 24.775 79.2322 25.3597 78.8431 25.9443C78.454 26.529 78.6486 27.3085 79.4267 27.6983C80.0104 28.088 80.7885 27.8931 81.1776 27.3085C81.3721 27.1136 81.5667 26.9187 81.5667 26.5289L81.7613 26.3341C82.5394 25.1648 83.5121 24.1904 84.8739 23.4108C87.403 22.0466 90.1266 22.4364 91.8775 24.775C93.2393 26.3341 93.8229 28.4778 93.8229 31.0113C93.8229 33.5447 93.0447 36.0782 91.6829 38.4168C90.1266 40.9502 88.3757 42.7042 86.2357 43.8735C84.8739 44.4581 83.7067 44.653 82.3449 44.4581C80.594 44.2633 79.4267 43.0939 78.6486 41.34C77.8704 39.3912 77.6758 37.2475 78.0649 34.5191C78.454 32.7652 78.8431 31.2061 79.8158 29.842C80.0104 29.4522 80.2049 29.0624 80.0103 28.6727C80.0103 28.2829 79.6213 28.088 79.4267 27.8931C78.8431 27.5034 78.0649 27.6982 77.6758 28.4778C77.2868 29.0624 77.0922 29.4522 76.7031 30.0369C75.7304 31.7908 75.3413 33.9345 75.1468 36.2731C74.9522 38.6116 75.3413 40.7554 76.314 42.7042C77.4813 45.0428 80.0103 46.7967 83.123 46.7967Z" fill="#74559F"/>
<path d="M11.7256 37.2477C11.142 37.0528 10.5583 37.2477 10.1693 37.6375C9.97472 37.8324 9.97472 38.0272 9.78018 38.2221C8.02929 42.1198 6.47295 45.8225 5.50024 49.1355C3.16572 56.1513 1.60938 63.3619 0.831212 70.7675C0.442126 74.4702 0.247565 78.173 0.0530218 81.8757C-0.141521 87.1375 0.247559 92.3994 0.442102 96.8817C0.442102 97.4663 0.442114 98.051 0.636657 98.6356L0.831212 99.8049H3.5548V99.4151C3.5548 99.2202 3.5548 99.2203 3.5548 99.0254C3.5548 98.8305 3.5548 98.4408 3.5548 98.2459C3.5548 97.4663 3.55479 96.6868 3.36025 95.9073C3.36025 94.3482 3.16572 92.7892 3.16572 91.2301C2.97118 87.1376 2.97118 82.8502 3.16572 78.5628C3.36027 75.8344 3.55482 73.3009 3.74936 70.7675C4.33299 65.8954 5.11115 61.0233 6.47295 55.7615C7.83475 50.3048 9.78018 44.8481 12.3092 39.3914L12.1147 39.1965H12.3092C12.5038 39.0017 12.5038 38.8068 12.5038 38.417C12.6983 38.0273 12.3092 37.4426 11.7256 37.2477Z" fill="#74559F"/>
<path d="M11.3363 31.7907C11.7254 32.3754 12.309 32.5702 12.8927 32.3753C13.4763 32.1805 13.8654 31.401 13.6708 30.8163C13.6708 30.4265 13.4763 30.2317 13.4763 29.8419C12.6981 27.5033 12.5036 25.1647 13.0872 22.6312C13.6708 20.2926 14.449 18.5387 16.0053 17.1746C17.3671 16.0053 18.7289 15.4206 20.4798 15.6155C22.0362 15.8103 23.5925 16.5899 24.7598 17.9541C26.5107 20.0978 27.6779 22.8262 27.6779 26.1392C27.6779 28.088 27.4834 29.8419 26.8998 31.206C26.1216 33.3497 24.9543 34.9089 23.5925 35.8833C21.6471 37.0526 19.5071 36.8577 17.9508 35.4935C17.5617 35.1037 16.9781 34.5191 16.589 33.9344C16.3944 33.7396 16.1999 33.3497 16.0053 33.1549L15.8108 32.96C15.6163 32.7651 15.6163 32.5702 15.4217 32.3753C15.0326 31.9856 14.449 31.9856 13.8654 32.3753C13.4763 32.7651 13.2817 33.1549 13.2817 33.7395C13.2817 33.9344 13.4763 34.1293 13.4763 34.3242C14.449 35.8832 15.4217 36.8577 16.3944 37.6372C17.7562 38.6116 19.3126 39.1962 20.6744 39.1962C21.6471 39.1962 22.6198 39.0014 23.7871 38.6116C25.927 37.6372 27.4834 36.0781 28.6506 33.7395C31.1797 28.088 30.9852 22.6313 27.6779 17.1746C26.8997 15.8104 25.538 14.6411 24.1762 13.8615C21.4526 12.3025 18.9235 12.3025 16.1999 13.4718C14.8381 14.2513 13.6708 15.2257 12.6981 16.395C9.58542 20.8773 9.19632 25.9442 11.1418 31.206C11.1418 31.4009 11.1418 31.5958 11.3363 31.7907Z" fill="#74559F"/>
<path d="M53.1632 23.6059C54.525 24.7752 56.0813 25.3598 57.8322 25.3598C58.8049 25.3598 59.9722 25.1649 60.9449 24.7752C63.6685 23.8008 65.8085 22.0468 67.5594 19.3185C69.8939 15.8106 70.8666 12.3027 70.0884 8.59998C69.5048 5.67674 68.143 3.14326 65.8085 1.58421C62.6958 -0.559497 59.3886 -0.559485 56.2759 1.7791C55.1086 2.55863 54.3304 3.53303 53.5523 4.50744C53.1632 4.8972 52.9686 5.28694 52.9686 6.06647C52.385 6.26135 52.1905 6.846 51.9959 7.04088C51.8014 7.43065 51.6068 7.82042 51.6068 8.21019C51.2177 9.1846 50.8287 10.3539 50.4396 11.3283C49.6614 14.2515 49.6614 16.9799 50.4396 19.5133C51.0232 21.2673 51.9959 22.6315 53.1632 23.6059ZM52.5795 14.0567C52.7741 12.3027 53.3577 10.3539 54.3304 8.21019C54.525 7.82042 54.525 7.62554 54.525 7.23578V7.04088C54.525 7.04088 54.525 7.04087 54.7195 6.84599C54.9141 6.65111 55.1086 6.45625 55.3032 6.26137C55.4977 6.06648 55.6922 5.87163 55.8868 5.67674C56.2759 5.28698 56.4704 4.8972 56.8595 4.50744C59.194 2.36374 62.3067 2.55863 64.6412 4.70233C66.1976 6.26139 66.9757 8.01531 67.1703 10.159C67.3648 14.6413 65.6139 18.3441 61.9176 21.2673C60.7504 22.2417 59.3886 22.8264 58.0268 23.0212C55.8868 23.2161 53.9413 22.0468 52.9686 19.9031C52.7741 17.9543 52.385 16.2004 52.5795 14.0567Z" fill="#74559F"/>
<path d="M99.8543 81.2908C99.6598 77.9778 99.2707 74.8597 99.0762 72.3262C98.4925 67.2593 97.5198 62.1923 95.7689 56.9305C94.9907 54.5919 94.4071 52.2534 93.6289 50.1097L92.6562 46.9915C92.6562 46.7966 92.4617 46.6018 92.4617 46.4069C92.0726 45.8223 91.489 45.6273 90.9053 45.8222C90.3217 46.0171 89.9326 46.4069 89.9326 47.1864C89.9326 47.3813 89.9326 47.7711 90.1272 47.9659C90.3217 48.3557 90.3217 48.7455 90.5163 49.1352C90.7108 50.1097 91.0999 51.279 91.489 52.2534C94.0181 59.8538 95.5744 66.4798 96.3526 72.716C96.9362 77.0034 97.1307 81.4857 97.3253 85.968C97.3253 88.1117 97.3253 90.4502 97.3253 92.5939V93.3735C97.3253 94.3479 97.3253 95.1275 97.3253 96.2967V96.6865C97.3253 97.0762 97.3253 97.466 97.3253 97.8558C97.3253 98.0507 97.3253 98.2455 97.3253 98.4404V99.22L99.8543 98.8302V98.4404V98.2456C99.8543 98.0507 99.8543 97.8558 99.8543 97.6609C99.8543 97.0762 99.8543 96.6865 99.8543 96.1019C99.8543 94.7377 100.049 93.5684 99.8543 92.2042C100.049 88.5014 100.049 84.9936 99.8543 81.2908Z" fill="#74559F"/>
<path d="M55.4981 65.1154C55.8871 65.7001 56.4708 65.8949 57.0544 65.8949C57.638 65.8949 58.0271 65.7001 58.4162 65.1154C58.8053 64.7256 58.9998 64.3359 59.3889 63.7512C61.1398 60.6331 62.3071 57.1252 63.4743 53.2276C63.6689 52.2532 63.8634 51.4736 64.058 50.6941C64.2525 49.9146 63.8634 49.135 63.0853 48.9402C62.3071 48.7453 61.7234 49.135 61.3344 50.1095C61.3344 50.3043 61.3344 50.4992 61.1398 50.6941C60.5562 53.4224 59.778 56.3457 58.4162 59.6587C58.0271 60.4382 57.638 61.2178 57.249 61.9973C57.249 62.1922 57.0544 62.387 57.0544 62.387C57.0544 62.387 57.0544 62.1922 56.8599 62.1922C55.8871 60.0485 54.9144 57.515 54.1363 54.7866C53.1635 51.0839 51.9963 46.017 51.9963 40.7551C51.9963 40.5603 51.9963 40.3653 51.9963 40.3653C51.8017 39.7807 51.4126 39.196 50.6345 39.196C50.0508 39.196 49.4672 39.5858 49.2727 40.1705C49.2727 40.3653 49.0781 40.5603 49.0781 40.7551V41.3398C49.0781 41.9244 49.0781 42.5091 49.0781 43.2886C49.2727 46.4067 49.6618 49.5248 50.6345 53.2276C51.6072 57.515 52.7745 60.828 54.3308 63.7512C54.9144 63.9461 55.109 64.5308 55.4981 65.1154Z" fill="#74559F"/>
<path d="M64.8357 64.9208C62.1121 66.4799 58.8049 67.4543 55.1086 68.2338C54.914 68.2338 54.5249 68.2338 54.3304 68.4287C53.9413 68.4287 53.3577 68.6236 52.9686 68.6236C52.1904 68.8185 51.8013 69.4031 51.9959 70.1826C52.1904 70.7673 52.774 71.3519 53.5522 71.3519H53.7468C56.8595 70.7673 59.5831 70.1826 62.1121 69.2082C66.003 67.6492 69.3102 65.7004 71.8393 63.1669C75.1465 59.8539 77.6756 55.5665 79.621 50.3047C79.621 50.1098 79.621 49.9149 79.8156 49.9149C79.8156 49.1354 79.4265 48.7456 78.8429 48.5507C78.2592 48.3559 77.6756 48.5507 77.2865 49.1354C77.0919 49.3303 77.0919 49.5251 77.0919 49.72V49.9149C76.1192 52.2535 75.1465 54.3972 74.1738 56.346C71.6447 60.0488 68.7266 62.972 64.8357 64.9208Z" fill="#74559F"/>
<path d="M40.7119 64.1412C40.3228 63.9463 40.1283 63.9463 39.9337 63.9463H39.7392C39.3501 63.7514 38.961 63.7514 38.5719 63.5565H38.3774C37.5992 63.3616 36.821 63.1668 36.0429 62.9719C31.5684 61.6077 28.4557 58.8793 26.7048 54.7868C26.1212 53.4226 25.7321 52.0585 25.343 50.6943C24.9539 49.525 24.7594 48.3557 24.5648 47.5762V47.3813C24.3703 46.4069 24.1757 45.4325 23.9812 44.653C23.5921 43.4837 23.203 42.3144 22.8139 41.1451C22.6194 40.3655 22.2303 39.9758 21.8412 39.7809C21.4521 39.586 21.2576 39.586 20.8685 39.7809C20.0903 40.1707 19.8958 40.9502 20.2849 42.1195V42.3144C20.4794 42.899 20.8685 43.6785 21.063 44.2632C21.4521 45.6274 21.6467 46.9916 22.0358 48.3557L22.2303 48.9404C22.8139 51.2789 23.3976 53.8124 24.5648 56.151C26.5103 60.2435 29.4284 62.9719 33.3193 64.7258C35.4592 65.7002 37.7937 66.2849 39.9337 66.6746H40.1283C40.7119 66.6746 41.2955 66.2849 41.4901 65.5053C41.4901 65.1156 41.2955 64.531 40.7119 64.1412Z" fill="#74559F"/>
<path d="M39.5457 68.0387H39.3511C39.3511 68.0387 39.3511 68.0387 39.1566 68.0387C38.7675 68.0387 38.3784 68.0386 37.9893 67.8438C37.2111 67.8438 36.433 67.6489 35.6548 67.454C31.1803 66.6744 27.0949 64.5307 23.5931 61.4126C20.675 58.6843 18.7295 55.9559 17.7568 53.0327C17.7568 52.8378 17.5623 52.643 17.3677 52.4481C16.9787 52.0583 16.5895 51.8634 16.0059 51.8634C15.4223 52.0583 15.0332 52.4481 15.0332 53.0327C15.0332 53.2276 15.0332 53.6173 15.2278 53.8122C15.4223 54.202 15.4223 54.3969 15.6168 54.7866C16.0059 55.5662 16.2005 56.5406 16.7841 57.3201C18.9241 61.0229 21.8422 64.141 25.7331 66.4796C29.6239 69.013 34.0984 70.3772 38.5729 70.5721H38.962H39.1566C39.9347 70.5721 40.5184 69.9874 40.5184 69.2079C41.102 68.6233 40.5184 68.0387 39.5457 68.0387Z" fill="#74559F"/>
<path d="M40.3235 72.5212C40.129 72.5212 40.129 72.5212 40.3235 72.5212H40.129C39.7399 72.5212 39.3508 72.5212 39.1563 72.5212H38.9617C38.1835 72.5212 37.4054 72.7161 36.6272 72.7161C34.8763 72.7161 33.1254 72.5212 31.18 72.1314C26.1219 71.157 21.6474 69.598 17.562 67.2594C17.1729 67.0645 16.5893 66.6747 16.2002 66.4799C15.8111 66.285 15.422 66.0901 15.0329 65.7003C14.6438 65.5055 14.2547 65.3105 13.8657 65.3105C13.282 65.3105 12.8929 65.7004 12.6984 66.0901C12.5038 66.6748 12.6984 67.2594 13.0875 67.4543C13.4766 67.844 13.8657 68.0389 14.4493 68.4287C17.7565 70.5724 21.2583 72.1314 26.1219 73.4956C30.0128 74.6649 33.5145 75.2495 37.2108 75.2495H37.989C38.7672 75.2495 39.5453 75.0547 40.3235 75.0547C40.9071 75.0547 41.2962 74.8598 41.4908 74.47C41.6853 74.2752 41.8799 73.8854 41.6853 73.4956C41.8799 72.911 41.1017 72.5212 40.3235 72.5212Z" fill="#74559F"/>
<path d="M31.1796 79.3425C31.1796 78.9527 31.1796 78.5629 31.1796 78.1732C31.1796 77.5885 31.1796 77.0039 31.1796 76.4193C31.1796 75.6397 30.596 75.0551 29.8179 75.0551C29.0397 75.0551 28.6506 75.6397 28.4561 76.4193V76.6141C28.4561 77.0039 28.4561 77.3936 28.4561 77.9783C28.4561 78.9527 28.4561 79.9272 28.4561 80.7067C28.4561 82.2657 28.6506 83.8248 28.6506 85.3838V85.9685C28.6506 87.3326 28.8451 88.8917 28.8451 90.2559C28.8451 92.0098 29.0397 93.7638 29.0397 95.3229C29.0397 96.2973 29.0397 97.2716 29.2342 98.4409C29.2342 98.6358 29.2342 98.6358 29.2342 98.8307C29.2342 98.8307 29.2342 98.8307 29.2342 99.0256V99.4153H31.7633V98.8307C31.7633 98.6358 31.7633 98.6358 31.7633 98.4409L31.3742 90.061C31.3742 86.5531 31.3742 82.8504 31.1796 79.3425Z" fill="#74559F"/>
<path d="M23.203 95.7126C23.203 94.9331 23.0085 94.3484 23.0085 93.5689L22.8139 92.7894C22.6194 90.6457 22.2303 88.3071 22.0357 86.1634C21.8412 84.2146 21.6467 82.0709 21.6467 80.3169V79.7323C21.6467 78.9528 21.4521 78.1732 21.4521 77.1988C21.4521 77.0039 21.4521 76.4193 21.2576 76.2244C21.063 75.8346 20.4794 75.6398 20.0903 75.6398C19.7012 75.6398 19.3121 76.0295 18.923 76.2244C18.7285 76.4193 18.7285 76.809 18.7285 77.1988C18.7285 77.3937 18.7285 77.5886 18.7285 77.9783V78.3681C18.7285 79.1476 18.923 79.9271 18.923 80.9016C19.1176 82.6555 19.1176 84.6044 19.3122 86.5532C19.5067 89.0867 19.8958 91.4252 20.2849 93.9587C20.4794 94.9331 20.4794 95.7126 20.6739 96.4921C20.6739 97.0768 20.8685 97.6614 20.8685 98.4409C20.8685 98.6358 20.8685 99.0256 21.063 99.2205V99.6103H23.7866L23.5921 97.8563C23.203 97.0768 23.203 96.2973 23.203 95.7126Z" fill="#74559F"/>
<path d="M38.9617 94.7376L38.7671 92.3991C38.3781 88.8912 38.1835 85.1884 37.7944 81.6806C37.7944 80.7062 37.5999 79.9266 37.4053 78.9522C37.2108 78.1726 36.6271 77.7829 36.0435 77.9778C35.4599 78.1726 35.0708 78.5624 35.0708 79.342C35.0708 79.5368 35.0708 79.5369 35.0708 79.7317L35.2654 81.6806C35.4599 83.0447 35.4599 84.214 35.6544 85.5782C36.0435 89.4759 36.4326 93.3735 36.8217 97.2711C36.8217 97.6609 36.8217 98.0506 37.0162 98.4404L37.2108 99.4148H39.9344L39.7399 96.8814C38.9617 96.1018 38.9617 95.5172 38.9617 94.7376Z" fill="#74559F"/>
<path d="M76.5083 81.4862C75.9247 81.4862 75.3411 81.876 75.1465 82.4606C75.1465 82.6555 74.952 83.0453 74.952 83.435C74.952 84.0197 74.952 84.6043 74.952 85.189V85.7736C74.952 86.9429 74.952 88.1122 74.7575 89.4764C74.7575 91.2303 74.5629 93.1791 74.3684 94.9331C74.3684 95.7126 74.1738 96.4921 74.1738 97.4665C74.1738 97.8563 74.1738 98.2461 74.1738 98.6358V100H76.7029L76.8974 99.6102C76.8974 99.4153 76.8974 99.4154 76.8974 99.2205L77.092 98.0512C77.092 97.2717 77.2865 96.2972 77.2865 95.5177C77.481 92.5945 77.4811 89.6713 77.6756 86.5532L77.8701 83.6299C77.8701 83.2402 77.8701 82.8504 77.8701 82.6555C77.6756 81.876 77.092 81.4862 76.5083 81.4862Z" fill="#74559F"/>
<path d="M51.4124 68.6236C51.8015 68.039 51.996 67.2594 52.1906 66.6748V66.4799C52.1906 66.285 52.3851 65.8953 52.3851 65.7004V65.5055C52.1906 64.5311 51.6069 64.1413 51.2179 64.1413C50.4397 63.9465 49.8561 64.3362 49.6615 65.1157C49.6615 65.3106 49.467 65.5055 49.467 65.7004V65.8953C49.2724 67.0646 48.6888 68.039 48.1052 69.0134C46.9379 70.5724 45.3816 71.7417 43.6307 72.3264H43.4361C43.2416 72.3264 43.2416 72.3264 43.0471 72.5212C42.4634 72.911 42.0743 73.4956 42.2689 74.0803C42.4634 74.6649 43.0471 75.0547 43.6307 75.0547H43.8252C44.2143 75.0547 44.4088 74.8599 44.7979 74.8599C47.7161 73.3008 50.0506 71.352 51.4124 68.6236Z" fill="#74559F"/>
<path d="M43.8247 69.7929C44.0192 69.598 44.0192 69.598 44.2137 69.4031L44.4083 69.2082C44.9919 68.8184 45.1865 68.4287 45.7701 68.8185H45.9647C46.5483 68.8185 47.1319 68.4287 47.3264 68.039C47.521 67.4543 47.3264 66.8696 46.7428 66.4799C45.7701 65.8952 44.7974 65.8952 44.0192 66.4799C43.241 67.0645 42.4629 67.6492 41.4902 68.4287C41.2956 68.6236 41.1011 69.0133 41.1011 69.4031C41.1011 69.7929 41.2956 70.1826 41.4902 70.3775C41.6847 70.5724 42.0738 70.7673 42.2683 70.7673C42.6574 70.7673 42.8519 70.5724 43.241 70.3775C43.4356 70.1826 43.6301 69.9878 43.8247 69.7929Z" fill="#74559F"/>
</svg>
