<svg width="47" height="48" viewBox="0 0 47 48" fill="none" xmlns="http://www.w3.org/2000/svg">
<path d="M45.0837 21.0179C45.0011 22.8275 44.9461 24.6372 44.8085 26.5016C44.7368 27.7756 44.534 29.0389 44.2032 30.2716C44.0511 30.9652 43.7456 31.6163 43.3089 32.1772C42.8217 32.7613 42.1363 33.1467 41.3827 33.2603C40.4472 33.4111 39.4979 33.4933 38.5624 33.6167C37.4075 33.7293 36.2709 33.9825 35.1779 34.3707C34.7195 34.5314 34.3097 34.8058 33.9871 35.1679C33.6646 35.5301 33.4399 35.9682 33.3343 36.4408C33.1417 37.2496 32.9766 38.0585 32.7977 38.881C32.495 40.252 32.2474 41.7189 31.8897 43.1172C31.6317 44.3386 30.9852 45.4444 30.0461 46.2703C29.2979 46.875 28.4079 47.2806 27.4596 47.4493C26.2924 47.7236 25.0772 47.7236 23.91 47.4493C23.525 47.3464 23.1583 47.1845 22.8231 46.9695C22.5817 46.8558 22.3788 46.6745 22.239 46.4478C22.0993 46.221 22.0287 45.9587 22.036 45.6927C22.0433 45.4268 22.1281 45.1687 22.2801 44.9499C22.4321 44.7311 22.6446 44.5612 22.8919 44.4607C23.3762 44.193 23.9096 44.0252 24.4603 43.9672C24.53 43.9599 24.5955 43.9307 24.6475 43.8839C24.6994 43.8371 24.735 43.775 24.7493 43.7067C24.8593 43.3777 25.0519 43.0624 25.162 42.7196C25.3959 41.9519 25.6022 41.1568 25.7949 40.3754C25.9875 39.5939 26.2214 38.4972 26.414 37.565C26.6479 36.3448 26.8405 35.111 27.0606 33.8909C27.212 33.082 27.3495 32.2732 27.5146 31.4644C27.703 30.4752 27.7814 29.4683 27.7485 28.462C27.7212 28.1473 27.7212 27.8308 27.7485 27.5161C27.901 26.9095 28.2431 26.367 28.7253 25.9669C29.4189 25.3459 30.2798 24.9408 31.2018 24.8017C31.642 24.7194 32.1373 24.7194 32.4538 24.3355C32.7477 23.9795 33.01 23.5988 33.238 23.1977C33.7983 22.1603 34.2589 21.0724 34.6138 19.9486C34.9577 18.9615 35.3154 17.9608 35.6732 16.9737C35.9208 16.2745 36.1409 15.6028 36.4299 14.8762C36.7923 14.0815 37.3746 13.4062 38.1083 12.9295C38.6164 12.5605 39.2445 12.3942 39.8694 12.4634C40.1273 12.4678 40.3736 12.5708 40.5573 12.7512C40.6313 12.8268 40.6865 12.9187 40.7182 13.0194C40.75 13.1202 40.7574 13.2269 40.74 13.3311C40.7226 13.4353 40.6808 13.5339 40.6179 13.6189C40.5551 13.704 40.4731 13.773 40.3784 13.8206C40.2065 13.9039 40.0191 13.9506 39.8281 13.9577C39.3983 13.9701 38.9813 14.1061 38.6273 14.3493C38.2733 14.5926 37.9975 14.9327 37.8332 15.3286C37.5579 15.9681 37.319 16.6226 37.1178 17.289C36.6913 18.4817 36.2785 19.6607 35.8658 20.8534C35.5176 21.9797 35.0567 23.0682 34.49 24.1025C34.198 24.5857 33.8667 25.0443 33.4994 25.4734C32.9981 25.9466 32.3452 26.2282 31.6558 26.2686C30.9003 26.3418 30.1945 26.6765 29.6609 27.2145C29.5172 27.3584 29.4042 27.5297 29.3285 27.7181C29.2529 27.9066 29.2162 28.1083 29.2206 28.3112C29.2206 28.9967 29.2206 29.6822 29.1518 30.3813C29.0555 31.2724 28.8904 32.1635 28.7253 33.0546C28.5327 34.1514 28.3401 35.2618 28.1337 36.3723C27.9274 37.4827 27.6797 38.6617 27.4458 39.8133C27.2349 40.7272 27.0147 41.6412 26.7854 42.5551C26.7029 42.8979 26.5378 43.2132 26.4415 43.5422C26.3452 43.8712 26.4415 43.8849 26.3314 44.0494C26.301 44.164 26.2333 44.2653 26.1388 44.3373C25.9733 44.4426 25.7923 44.5212 25.6022 44.5704C24.9851 44.7771 24.4081 45.0878 23.8963 45.4889C23.6211 45.7083 23.6349 45.8316 23.9788 45.9413C24.3184 46.0544 24.6688 46.1325 25.0244 46.1744C26.1348 46.3049 27.26 46.1393 28.2851 45.6945C28.7134 45.5019 29.0985 45.2254 29.4176 44.8816C29.7367 44.5378 29.9831 44.1336 30.1424 43.693C30.5464 42.638 30.8414 41.5448 31.0229 40.4302C31.2843 39.0593 31.532 37.6883 31.8346 36.3174C32.0215 35.3259 32.5405 34.4269 33.3068 33.7675C33.9148 33.2956 34.612 32.9505 35.3567 32.753C36.6344 32.4018 37.9427 32.1723 39.264 32.0676C39.8143 32.0676 40.3647 31.9305 40.9012 31.8619C41.322 31.8161 41.7175 31.639 42.0313 31.3559C42.3451 31.0728 42.5611 30.6981 42.6485 30.2854C42.9414 29.3451 43.126 28.3746 43.1988 27.3927C43.3364 25.6928 43.474 23.9791 43.5428 22.2655C43.5428 21.0865 43.5428 19.8938 43.5428 18.7011C43.5428 17.5083 43.4465 16.6995 43.3777 15.6987C43.2814 14.1907 43.1988 12.6827 43.0475 11.1884C42.9787 10.4755 42.7586 9.81748 42.6623 9.09089C42.5659 8.3643 42.4284 7.34982 42.3458 6.48614C42.3274 5.53842 42.1119 4.60481 41.7129 3.74429C41.4665 3.26746 41.0769 2.87911 40.5985 2.63337C40.1201 2.38763 39.5766 2.29674 39.0439 2.37337C38.6606 2.43297 38.2994 2.59062 37.9956 2.8309C37.6917 3.07119 37.4557 3.3859 37.3104 3.74429C37.3104 3.89509 37.1315 4.01847 37.0627 4.16928C36.9745 4.35119 36.9142 4.54528 36.8839 4.74506C36.7199 5.65912 36.7765 6.59894 37.049 7.48691C37.2194 8.0096 37.5233 8.47911 37.931 8.84928C38.3387 9.21944 38.836 9.4775 39.3741 9.59812L40.1858 9.74892C40.3242 9.76181 40.4559 9.81382 40.5656 9.89883C40.6753 9.98383 40.7583 10.0983 40.8049 10.2288C40.8523 10.3659 40.8567 10.5141 40.8173 10.6537C40.778 10.7934 40.6969 10.9177 40.5848 11.0102C40.5467 11.0558 40.4925 11.0852 40.4334 11.0924C39.7249 11.1786 39.006 11.0884 38.3409 10.8301C37.6759 10.5717 37.0855 10.1532 36.6225 9.61184C35.7864 8.67118 35.3304 7.45474 35.343 6.19824C35.2867 5.26996 35.4081 4.33948 35.7007 3.45639C35.8837 2.87991 36.1954 2.35223 36.6124 1.91297C37.0294 1.47371 37.5409 1.13428 38.1083 0.920173C38.6474 0.703306 39.2306 0.617558 39.8096 0.670007C40.3886 0.722456 40.9468 0.911595 41.4378 1.22178C42.0077 1.56595 42.4952 2.03025 42.866 2.58205C43.2367 3.13386 43.4818 3.75982 43.584 4.41603C43.7261 5.14426 43.8135 5.88204 43.8454 6.62322C43.943 7.58063 44.0899 8.53239 44.2857 9.47474C44.437 10.3933 44.5884 11.3255 44.6709 12.2166C44.781 13.5875 44.8498 14.9584 44.9323 16.3294C44.9323 17.3713 45.0149 18.4269 45.0424 19.4825C45.0424 19.9349 45.0424 20.3873 45.0424 20.8534L45.0837 21.0179Z" fill="#794593"/>
<path d="M17.7325 45.9686L17.5399 45.8452C17.252 45.6452 17.02 45.3753 16.866 45.061C16.7119 44.7468 16.6408 44.3985 16.6594 44.0493C16.6594 43.1445 16.6594 42.226 16.6594 41.3074C16.6594 40.6083 16.6594 39.9365 16.6594 39.2099C16.6594 37.5374 16.6594 35.8512 16.6594 34.1786C16.6401 33.6335 16.5663 33.0916 16.4393 32.5609C16.3725 32.2123 16.1866 31.8976 15.9132 31.6701C15.6398 31.4427 15.2958 31.3166 14.9397 31.3134C14.0179 31.2038 13.0961 31.1489 12.188 31.0392C10.9502 30.9807 9.75367 30.5769 8.73478 29.874C8.01271 29.3388 7.47833 28.5905 7.20764 27.7353C6.73986 26.3644 6.29961 24.9935 5.83183 23.6225C5.62372 22.911 5.54452 22.1683 5.59795 21.4291C5.59848 21.2749 5.63475 21.1228 5.70396 20.9849C5.77317 20.847 5.87343 20.7269 5.99692 20.6339C6.05677 20.5795 6.1291 20.5405 6.20759 20.5204C6.28607 20.5003 6.36831 20.4997 6.44708 20.5187C6.52585 20.5376 6.59876 20.5755 6.6594 20.6291C6.72004 20.6826 6.76656 20.7502 6.79489 20.8258C6.90705 21.1017 6.97664 21.3929 7.00128 21.6895C7.07887 22.6838 7.29655 23.6621 7.64791 24.5959L8.62472 27.3377C8.80128 27.7907 9.08273 28.1956 9.44614 28.5196C9.80954 28.8436 10.2446 29.0775 10.7159 29.2022C11.5529 29.4224 12.4105 29.5557 13.2749 29.5998C14.0592 29.682 14.8434 29.7506 15.6138 29.9014C16.1436 29.9942 16.6345 30.2398 17.0258 30.6077C17.417 30.9756 17.6914 31.4498 17.8151 31.9715C18.0322 32.7242 18.1342 33.5053 18.1178 34.2883C18.1178 35.6592 18.1178 37.1398 18.1178 38.5793C18.1178 40.0188 18.0352 41.6639 17.994 43.1993C17.994 43.4735 17.994 43.734 17.994 44.0082C17.9957 44.1348 18.0293 44.2589 18.0918 44.3691C18.1544 44.4793 18.2437 44.572 18.3517 44.6388C18.582 44.8135 18.7941 45.011 18.9845 45.2283C19.1048 45.3798 19.1892 45.5564 19.2318 45.7449C19.2743 45.9333 19.2737 46.1289 19.2301 46.3172C19.1865 46.5054 19.101 46.6814 18.9799 46.8323C18.8588 46.9832 18.7052 47.105 18.5305 47.1887C18.0178 47.4663 17.4321 47.5811 16.852 47.5177C16.3731 47.5068 15.9011 47.4006 15.464 47.2052C15.0269 47.0097 14.6334 46.7291 14.3068 46.3799C13.8638 45.8522 13.5652 45.2194 13.44 44.5428C13.1484 43.1922 13.0741 41.8039 13.2199 40.4301C13.3277 39.3573 13.3046 38.2756 13.1511 37.2084C13.1045 36.9616 13.0259 36.722 12.9172 36.4955C12.786 36.2435 12.5888 36.0315 12.3467 35.8819C12.1045 35.7323 11.8263 35.6506 11.5414 35.6455C10.7728 35.6087 10.0025 35.6547 9.24382 35.7826C8.51078 35.8993 7.77084 35.968 7.02878 35.9883C6.02196 36.0261 5.02723 35.7596 4.1752 35.2237C3.32317 34.6879 2.65369 33.9078 2.25473 32.9859C1.74683 31.9117 1.41253 30.7643 1.26417 29.586C1.10624 28.4003 1.05099 27.2032 1.09905 26.0079C1.15362 24.7914 1.30544 23.5812 1.55307 22.3887C1.59203 22.2218 1.66204 22.0637 1.75946 21.9226C1.82351 21.7943 1.92861 21.691 2.05817 21.629C2.18773 21.5669 2.33434 21.5496 2.47486 21.5799C2.61553 21.6251 2.73867 21.7127 2.82736 21.8305C2.91605 21.9484 2.96593 22.0907 2.97015 22.2379C2.96076 22.6557 2.92399 23.0724 2.86008 23.4854C2.51872 25.4187 2.47235 27.3922 2.72252 29.3393C2.8417 30.5676 3.22657 31.7556 3.85067 32.8214C4.14645 33.317 4.56199 33.7309 5.05943 34.0254C5.55687 34.32 6.12039 34.4857 6.6986 34.5077C7.45418 34.5221 8.20949 34.467 8.95492 34.3432C9.95588 34.1465 10.9807 34.1003 11.9954 34.2061C12.6652 34.3026 13.2858 34.6125 13.7643 35.0893C14.2429 35.5662 14.5538 36.1845 14.6508 36.8519C14.8245 38.0319 14.8615 39.2279 14.7608 40.4164C14.6183 41.6734 14.6693 42.9447 14.9122 44.1864C14.9514 44.4934 15.0549 44.7887 15.2161 45.0532C15.3773 45.3177 15.5925 45.5455 15.8477 45.7218C16.3053 45.9864 16.8345 46.1014 17.3611 46.0508C17.4341 46.061 17.5082 46.061 17.5812 46.0508L17.7325 45.9686Z" fill="#794593"/>
<path d="M3.3693 19.1947C3.07815 19.2015 2.79615 19.093 2.58509 18.8931C2.10664 18.5462 1.71071 18.0986 1.42538 17.5821C1.14005 17.0656 0.97233 16.4928 0.934122 15.9045C0.778321 14.3028 1.22444 12.7005 2.18611 11.4078C2.7726 10.5043 3.67462 9.84973 4.71759 9.57079C5.35919 9.39942 6.04026 9.45139 6.64818 9.71812C7.2561 9.98486 7.75445 10.4504 8.06079 11.0377C8.58099 12.0667 8.73618 13.2409 8.50106 14.369C8.36803 15.133 8.09771 15.8668 7.70309 16.5351C7.37524 17.0261 6.9603 17.4536 6.47862 17.7963C6.27676 17.9636 6.06545 18.1192 5.84574 18.2624C5.74943 18.2624 5.55682 18.3584 5.50179 18.2624C5.22663 18.0431 5.21287 17.9471 5.37797 17.7552C5.9746 16.9167 6.4386 15.992 6.75378 15.0134C7.16125 14.1202 7.2153 13.1067 6.90512 12.1755C6.83097 11.8731 6.67081 11.5984 6.44385 11.3844C6.2169 11.1704 5.93279 11.0262 5.62563 10.9691C5.35243 10.9344 5.0749 10.9607 4.81315 11.0461C4.5514 11.1314 4.31199 11.2737 4.11223 11.4627C3.61204 11.8821 3.20014 12.396 2.90026 12.9748C2.60037 13.5537 2.41843 14.1859 2.36495 14.8351C2.29698 15.2727 2.32187 15.7196 2.43799 16.147C2.55411 16.5745 2.75889 16.9728 3.0391 17.3165C3.26882 17.5631 3.53294 17.7755 3.82332 17.9471C3.9173 18.0174 3.99357 18.1084 4.0461 18.2131C4.09864 18.3178 4.12598 18.4333 4.12598 18.5503C4.12598 18.6674 4.09864 18.7828 4.0461 18.8875C3.99357 18.9922 3.9173 19.0833 3.82332 19.1535C3.67423 19.1856 3.52176 19.1994 3.3693 19.1947Z" fill="#794593"/>
<path d="M40.9012 40.0325V35.7278C40.8753 35.5052 40.9231 35.2803 41.0374 35.0873C41.1516 34.8942 41.326 34.7437 41.534 34.6585C41.6007 34.6125 41.6799 34.5879 41.7611 34.5879C41.8422 34.5879 41.9214 34.6125 41.9881 34.6585C42.1276 34.7525 42.242 34.8791 42.3211 35.0273C42.4002 35.1754 42.4418 35.3407 42.4421 35.5085C42.4421 37.373 42.4421 39.2374 42.4421 41.1019C42.4421 42.1301 42.4421 43.1583 42.332 44.1864C42.3176 44.4279 42.2761 44.667 42.2082 44.8993C42.1771 45.021 42.1087 45.13 42.0126 45.2111C41.9164 45.2922 41.7972 45.3413 41.6716 45.3517C41.5486 45.369 41.4233 45.3463 41.3143 45.2871C41.2053 45.2278 41.1183 45.1351 41.0663 45.0227C40.9493 44.778 40.8837 44.5121 40.8737 44.2413C40.8737 42.8704 40.8737 41.3898 40.8737 39.964L40.9012 40.0325Z" fill="#794593"/>
<path d="M2.54354 40.0188C2.52429 39.3825 2.58905 38.7465 2.73615 38.127C2.76832 37.9567 2.84959 37.7995 2.97003 37.6746C3.03879 37.6128 3.12354 37.5715 3.21467 37.5553C3.3058 37.5391 3.39966 37.5487 3.4856 37.5829C3.57155 37.6172 3.64615 37.6747 3.70093 37.7491C3.75571 37.8234 3.78848 37.9116 3.79553 38.0036C3.88304 38.5118 3.94274 39.0244 3.97437 39.539C4.05691 40.6221 4.08445 41.7188 4.167 42.8155C4.22076 43.1306 4.29427 43.4419 4.38711 43.7478C4.45402 43.9762 4.50008 44.2102 4.5247 44.4469C4.53301 44.5585 4.50849 44.6701 4.45416 44.768C4.39984 44.866 4.31806 44.946 4.21881 44.9984C4.11956 45.0507 4.00715 45.0732 3.89533 45.0629C3.7835 45.0526 3.67709 45.01 3.58914 44.9405C3.37827 44.7917 3.20171 44.5997 3.07122 44.3775C2.94073 44.1553 2.85933 43.9079 2.83247 43.6518C2.61528 42.4534 2.51849 41.2364 2.54354 40.0188Z" fill="#794593"/>
</svg>
