<svg width="54" height="67" viewBox="0 0 54 67" fill="none" xmlns="http://www.w3.org/2000/svg">
<path d="M32.7977 1.43786C36.0081 1.58915 39.0818 2.28876 42.1293 3.54189C44.7393 4.66344 47.107 6.21736 49.1113 8.41988C50.5881 10.0428 51.8331 11.8767 52.5089 14.0166C52.8943 15.2553 53.1639 16.5993 53.2068 18.0437C53.3186 20.379 52.7662 22.6829 51.9976 24.8657C51.6029 26.1785 51.1027 27.3754 50.4866 28.6778C49.7337 30.5285 48.87 32.374 48.1171 34.2247C47.3642 36.0753 46.6061 38.0367 46.0746 39.8978C45.5483 41.6483 45.1327 43.4039 44.8278 45.1648C44.6492 46.5987 44.4655 48.1434 44.3977 49.5825C44.3873 49.8039 44.382 49.9146 44.3716 50.1361C44.2453 50.463 44.0134 50.6739 43.6865 50.5476C43.5758 50.5424 43.4651 50.5371 43.2437 50.5267C42.9116 50.511 42.6954 50.3899 42.5951 50.1633C42.3893 49.8207 42.1888 49.3675 41.983 49.0249C41.0597 47.4281 40.2471 45.8365 39.092 44.4507C37.9421 42.9541 36.5551 41.7792 34.8099 41.1422C33.7237 40.6472 32.6218 40.4843 31.5148 40.4322C30.0756 40.3643 28.6312 40.4072 27.1868 40.4501C25.7425 40.493 24.2929 40.6466 22.8537 40.5788C21.6307 40.6321 20.3022 40.5695 19.0897 40.4014C16.8808 40.1863 14.7931 39.7551 12.7158 39.1025C10.4223 38.3287 8.3658 37.2332 6.44093 35.7001C4.62676 34.1723 3.15514 32.4386 2.15243 30.1724C1.55602 28.7019 1.18624 27.1312 1.1538 25.4654C1.03673 23.2408 1.46795 21.1531 2.34201 19.0862C3.46879 16.3655 5.01752 14.1085 7.00385 11.9831C9.1061 9.7522 11.4141 7.86386 14.0334 6.43398C17.4589 4.37638 21.1904 2.88797 25.0013 2.06901C26.7935 1.70966 28.5804 1.461 30.4676 1.43898C31.2426 1.4755 32.0227 1.40134 32.7977 1.43786ZM43.2165 48.7502C43.2373 48.3074 43.2582 47.8645 43.3846 47.5376C43.5474 46.4358 43.5944 45.4395 43.7572 44.3376C44.2093 41.8071 44.8776 39.3977 45.7674 36.9987C46.7886 34.1621 48.0209 31.5573 49.1529 28.7259C49.9006 26.9859 50.6483 25.2459 51.1746 23.4955C51.7061 21.6344 52.0162 19.7629 51.9942 17.8757C51.9513 16.4313 51.5711 15.0819 51.0802 13.7274C50.1777 11.6877 48.9275 9.96455 47.3348 8.44712C45.7368 7.0404 44.0177 5.84989 42.1722 4.98626C40.4375 4.12785 38.5763 3.59635 36.5993 3.17032C34.9492 2.87066 33.2938 2.68168 31.628 2.71413C30.0729 2.7518 28.6285 2.79468 27.063 3.05376C24.7173 3.38702 22.4667 4.05761 20.3216 4.84413C18.0605 5.73614 15.9049 6.74408 13.8444 8.08934C12.8168 8.70662 11.8946 9.43982 10.9724 10.173C8.78035 11.9559 6.79923 13.9706 5.24529 16.3383C3.92841 18.3843 2.93322 20.6674 2.59181 23.2032C2.26606 25.4068 2.49905 27.5259 3.40149 29.5655C4.29872 31.7159 5.77034 33.4495 7.58972 34.8666C9.19291 36.1627 11.0332 37.137 12.9998 37.7844C14.9664 38.4318 16.9382 38.9686 19.0364 39.1784C20.4703 39.3569 21.9095 39.4248 23.3539 39.3819C25.0197 39.3494 26.58 39.2011 28.2458 39.1686C29.5795 39.1205 31.0238 39.0776 32.3471 39.2509C34.7774 39.4764 36.9498 40.4664 38.7535 42.2157C40.0246 43.496 41.1745 44.9926 42.0978 46.5894C42.5093 47.2745 42.8102 47.9544 43.2217 48.6395C43.1162 48.5236 43.111 48.6343 43.2165 48.7502Z" fill="#6E3F85"/>
<path d="M44.1831 61.5933C43.9615 61.815 43.7398 62.0366 43.5182 62.2583C42.964 62.8124 42.2991 63.3666 41.4124 63.4774C40.6366 63.5882 39.8608 63.4774 39.4175 62.8124C39.1959 62.4799 39.085 62.1475 39.085 61.7041C39.085 60.8175 39.1959 60.0417 39.75 59.2659C40.415 58.3793 41.1908 57.6035 42.2991 57.4927C43.0749 57.3819 43.8507 57.6035 44.4048 58.1577C44.8481 58.4901 45.0698 59.0443 45.2914 59.4876C45.4022 59.8201 45.4022 60.0417 45.1806 60.3742C45.2914 60.7067 45.4023 61.15 45.5131 61.4825C45.7347 62.0366 45.9564 62.0366 46.2889 61.7041C46.7322 61.3717 46.9538 60.8175 47.1755 60.3742C47.8405 58.4901 47.2863 56.6061 45.9564 55.387C44.8481 54.3895 43.5182 54.057 41.9666 54.3895C39.6392 54.9437 37.9768 56.9385 37.5334 59.4876C37.4226 60.2634 37.4226 61.15 37.5334 61.9258C37.9768 63.6991 38.9742 64.6965 40.5258 65.029C41.3016 65.1398 42.0774 65.1398 42.8532 65.1398C43.4074 65.1398 43.8507 65.029 44.4048 65.029C44.5156 65.029 44.5156 65.029 44.6264 65.029C44.9589 65.029 45.1806 65.2506 45.2914 65.5831C45.2914 65.9156 45.0698 66.2481 44.7373 66.2481C43.4073 66.4698 41.9666 66.5806 40.6366 66.3589C38.3093 66.0265 36.7576 64.2532 36.3143 61.815C35.871 58.8226 37.201 55.4978 39.6392 53.9462C40.6366 53.2812 41.6341 52.9487 42.8532 52.9487C45.1806 52.9487 46.9538 53.8353 48.0621 56.1627C48.9487 58.0468 48.8379 59.9309 47.9513 61.815C47.7296 62.3691 47.2863 62.8124 46.843 63.0341C46.0672 63.5882 45.0698 63.4774 44.5156 62.3691C44.4048 62.1475 44.294 61.9258 44.1831 61.5933ZM44.0723 59.8201C43.9615 59.5984 43.7398 59.3768 43.5182 59.1551C43.1857 58.8226 42.7424 58.601 42.1882 58.8226C41.1908 59.1551 40.6366 59.8201 40.3041 60.8175C40.1933 61.0392 40.1933 61.3717 40.1933 61.5933C40.1933 62.1475 40.5258 62.3691 40.9691 62.2583C41.1908 62.1475 41.5233 62.0366 41.7449 61.9258C42.0774 61.7042 42.4099 61.4825 42.6315 61.15C43.2965 60.7067 43.629 60.2634 44.0723 59.8201Z" fill="#6E3F85"/>
<path d="M45.1014 22.8767C45.2121 22.8819 45.3228 22.8871 45.5442 22.8976C45.6549 22.9028 45.8763 22.9132 45.987 22.9184C46.3191 22.9341 46.4455 22.6072 46.5666 22.391C46.5823 22.0589 46.482 21.8323 46.1551 21.7059C46.0444 21.7007 46.0444 21.7007 45.9337 21.6955C44.7212 21.5274 43.6193 21.3645 42.4068 21.1964C41.1943 21.0283 39.9713 21.0816 38.7379 21.3564C38.4005 21.4514 37.9525 21.5413 37.6152 21.6363C36.8298 21.8212 36.1656 21.7899 35.4115 21.3106C35.0898 21.0735 34.7629 20.9471 34.436 20.8208C33.8929 20.5733 33.2391 20.3206 32.5645 20.5107C32.1164 20.6005 31.6632 20.8011 31.3206 21.0068C30.8674 21.2074 30.4089 21.5186 29.9556 21.7192C29.3865 22.0252 28.8277 22.1098 28.1844 21.6357C27.8627 21.3986 27.4303 21.1563 27.1086 20.9193C26.3545 20.4399 25.4689 20.3982 24.6731 20.8045C24.3358 20.8996 24.1039 21.1105 23.7614 21.3163C23.4188 21.5221 23.187 21.733 22.8444 21.9388C22.1541 22.461 21.4899 22.4297 20.8517 21.8449C20.7462 21.729 20.5301 21.6078 20.4246 21.4919C20.2084 21.3707 19.9922 21.2496 19.8919 21.023C19.1431 20.4329 18.2522 20.5019 17.4512 21.0189C17.1086 21.2247 16.8768 21.4357 16.5342 21.6414C16.3024 21.8524 16.0757 21.9527 15.8439 22.1636C15.5014 22.3694 15.3907 22.3642 15.069 22.1271C14.8528 22.006 14.7525 21.7794 14.6522 21.5527C14.3358 21.205 14.0245 20.7465 13.7081 20.3987C12.7534 19.4661 11.7623 19.3085 10.7295 20.0364C9.92843 20.5534 9.44387 21.4182 8.9541 22.3937C8.82774 22.7206 8.9228 23.0579 9.2497 23.1843C9.5766 23.3106 9.80322 23.2104 10.0351 22.9994C10.151 22.8939 10.1562 22.7832 10.1614 22.6725C10.2878 22.3456 10.5196 22.1346 10.646 21.8077C10.7671 21.5915 10.999 21.3806 11.2308 21.1696C11.6945 20.7476 12.1373 20.7685 12.67 21.2374C12.8862 21.3585 12.9864 21.5852 13.1974 21.817C13.5087 22.2755 13.9306 22.7392 14.2471 23.0869C14.88 23.7825 15.6549 23.819 16.34 23.4075C16.6826 23.2017 16.9144 22.9908 17.1463 22.7798C17.3781 22.5688 17.61 22.3578 17.9525 22.1521C18.3003 21.8356 18.7431 21.8565 19.0596 22.2042C19.2706 22.4361 19.4868 22.5572 19.8084 22.7943C20.1301 23.0313 20.4518 23.2684 20.7787 23.3948C21.2111 23.637 21.7594 23.7738 22.3234 23.5785C22.7714 23.4887 23.2246 23.2881 23.5724 22.9717C24.0309 22.6604 24.4893 22.3492 24.9426 22.1486C25.517 21.7319 26.1812 21.7632 26.7139 22.2321C27.0356 22.4692 27.2466 22.701 27.5734 22.8274C28.1113 23.1856 28.7651 23.4383 29.4398 23.2482C29.8878 23.1583 30.2304 22.9526 30.6836 22.752C31.1369 22.5515 31.4847 22.235 31.9379 22.0345C32.5071 21.7284 33.1713 21.7598 33.8251 22.0125C34.0413 22.1336 34.2575 22.2547 34.5844 22.3811C35.4492 22.8656 36.3244 23.1288 37.3312 22.9543C37.7792 22.8645 38.3379 22.7799 38.7912 22.5793C39.9139 22.2994 41.0314 22.1302 42.128 22.4037C43.1191 22.5614 44.1103 22.719 45.1014 22.8767ZM42.496 31.0753C42.5117 30.7431 42.3007 30.5113 41.9738 30.3849C41.7576 30.2638 41.5362 30.2534 41.3148 30.2429C40.3289 29.9746 39.4484 29.8221 38.4469 29.8859C37.7774 29.9653 37.108 30.0447 36.5492 30.1293C35.6532 30.309 34.7727 30.1565 34.0187 29.6772L33.9079 29.672C33.0432 29.1874 32.1575 29.1457 31.3565 29.6627C31.1299 29.763 30.898 29.9739 30.6714 30.0742C30.4448 30.1745 30.2182 30.2747 29.9915 30.375C29.649 30.5808 29.2062 30.5599 28.8897 30.2121C28.6787 29.9803 28.4677 29.7485 28.2568 29.5166C27.9351 29.2796 27.7293 28.937 27.4024 28.8107C26.7591 28.3365 25.9841 28.3 25.1935 28.5956C24.7403 28.7961 24.2818 29.1074 23.8233 29.4186C23.4756 29.7351 23.1278 30.0516 22.6746 30.2521C22.1002 30.6689 21.4307 30.7482 20.8928 30.39C20.355 30.0318 19.8119 29.7844 19.1581 29.5316C18.0719 29.0367 16.9753 28.7631 15.8578 28.9323C14.2923 29.1914 13.038 29.9089 11.979 31.1904C11.742 31.5121 11.7263 31.8443 11.9373 32.0761C12.1483 32.3079 12.4804 32.3236 12.8281 32.0071C13.06 31.7961 13.1759 31.6907 13.4078 31.4797C13.9874 30.9522 14.6725 30.5407 15.4631 30.2451C16.5858 29.9652 17.5769 30.1228 18.5524 30.6126C19.2062 30.8653 19.744 31.2235 20.3926 31.5869C21.3681 32.0767 22.259 32.0078 23.1759 31.3853C23.4078 31.1743 23.7503 30.9685 23.9821 30.7575C24.3247 30.5518 24.5618 30.2301 24.9043 30.0243C25.8265 29.2911 26.2641 29.4227 27.1132 30.2394C27.4297 30.5871 27.7514 30.8242 28.0678 31.172C28.706 31.7568 29.4809 31.7933 30.2715 31.4977C30.614 31.292 31.0673 31.0914 31.4098 30.8857C31.6365 30.7854 31.9738 30.6903 32.2056 30.4794C32.4323 30.3791 32.6537 30.3895 32.7592 30.5054C33.0861 30.6318 33.3023 30.7529 33.6239 30.99C34.167 31.2375 34.7153 31.3743 35.2689 31.4004C35.9331 31.4317 36.4919 31.3471 37.0506 31.2624C38.284 30.9877 39.5018 31.0451 40.7091 31.3239C41.036 31.4502 41.2574 31.4607 41.5843 31.587C42.1274 31.8345 42.4752 31.5181 42.496 31.0753ZM28.3282 13.8759C28.1172 13.644 28.0117 13.5281 27.9114 13.3015C27.7056 12.9589 27.4947 12.7271 27.2889 12.3845C26.656 11.689 25.997 11.547 25.2012 11.9533C24.9745 12.0536 24.8586 12.159 24.632 12.2593C24.2894 12.4651 24.0576 12.6761 23.715 12.8818C23.4832 13.0928 23.2566 13.1931 23.0299 13.2933C22.8033 13.3936 22.5819 13.3832 22.3657 13.262C22.1547 13.0302 21.9385 12.909 21.7276 12.6772C21.5166 12.4454 21.1949 12.2083 20.9839 11.9765C20.3406 11.5024 19.7818 11.5869 19.0967 11.9985C18.7542 12.2042 18.5171 12.5259 18.2801 12.8476C18.043 13.1693 17.8007 13.6017 17.6691 14.0393C17.548 14.2555 17.4269 14.4716 17.4164 14.6931C17.2901 15.02 17.4958 15.3625 17.712 15.4837C17.9282 15.6048 18.2656 15.5097 18.4974 15.2988C18.6133 15.1933 18.6185 15.0826 18.6237 14.9719C18.8712 14.4288 19.1187 13.8857 19.5824 13.4637C19.9302 13.1473 20.1568 13.047 20.4733 13.3948C20.5788 13.5107 20.7897 13.7425 20.8952 13.8584C21.0007 13.9744 21.2117 14.2062 21.3172 14.3221C22.0608 15.0229 22.8305 15.1701 23.7475 14.5476C23.8634 14.4421 24.09 14.3419 24.206 14.2364C24.4378 14.0254 24.7804 13.8196 25.0122 13.6087C25.1281 13.5032 25.3548 13.4029 25.4707 13.2974C25.8132 13.0917 25.9187 13.2076 26.2404 13.4446C26.4514 13.6765 26.5516 13.9031 26.7626 14.1349C26.9736 14.3668 27.0739 14.5934 27.2848 14.8253C27.8175 15.2942 28.3658 15.431 28.9402 15.0142C29.1668 14.914 29.3987 14.703 29.5198 14.4868C29.7517 14.2758 29.8728 14.0596 30.1046 13.8486C30.4524 13.5322 30.5631 13.5374 30.8796 13.8852C31.0906 14.117 31.4122 14.3541 31.618 14.6966C32.4671 15.5133 33.3476 15.6657 34.37 15.1592C34.5966 15.0589 34.9339 14.9638 35.1606 14.8636C35.5031 14.6578 35.83 14.7841 36.041 15.016C36.2572 15.1371 36.4682 15.369 36.6844 15.4901C37.3329 15.8536 37.8864 15.8796 38.4661 15.3522C38.6979 15.1412 38.9245 15.0409 39.0457 14.8247C39.5198 14.1814 40.1892 14.102 40.8378 14.4654C40.8378 14.4654 40.8378 14.4654 40.9485 14.4706C41.6023 14.7233 42.1402 15.0815 42.794 15.3342C43.1209 15.4606 43.4582 15.3655 43.6953 15.0439C43.8217 14.717 43.7266 14.3796 43.4049 14.1426C42.6457 13.774 41.8864 13.4053 41.1271 13.0367C40.8002 12.9103 40.3626 12.7788 40.0252 12.8738C39.4717 12.8477 39.0132 13.1589 38.6655 13.4754C38.4336 13.6864 38.3177 13.7919 38.1966 14.0081C37.7329 14.43 37.6222 14.4248 37.195 14.0718C37.0895 13.9559 36.9788 13.9507 36.8733 13.8348C36.2299 13.3607 35.4602 13.2134 34.6644 13.6197C34.3271 13.7148 34.0952 13.9258 33.7579 14.0208C33.3099 14.1106 32.9778 14.095 32.6613 13.7472C32.4451 13.6261 32.3448 13.3995 32.1286 13.2783C32.0232 13.1624 31.8122 12.9306 31.7067 12.8146C30.9631 12.1139 30.2988 12.0826 29.4874 12.821C29.2555 13.032 29.0237 13.243 28.7918 13.4539C28.7866 13.5646 28.56 13.6649 28.3282 13.8759Z" fill="#6E3F85"/>
<path d="M45.1015 22.8765C44.1104 22.7188 43.1192 22.5612 42.1281 22.4035C41.0263 22.2407 39.914 22.2992 38.7913 22.5791C38.3432 22.669 37.89 22.8695 37.3313 22.9541C36.3245 23.1286 35.4493 22.8654 34.5845 22.3809C34.3683 22.2597 34.1521 22.1386 33.8252 22.0123C33.1766 21.6488 32.6231 21.6227 31.938 22.0343C31.4848 22.2348 31.137 22.5513 30.6837 22.7518C30.2305 22.9524 29.8879 23.1581 29.4399 23.248C28.7652 23.4381 28.1114 23.1854 27.5735 22.8272C27.2519 22.5901 26.925 22.4637 26.714 22.2319C26.1813 21.763 25.5119 21.8424 24.9427 22.1484C24.4842 22.4597 24.0258 22.7709 23.5725 22.9714C23.2299 23.1772 22.7715 23.4885 22.3234 23.5783C21.7647 23.6629 21.3219 23.642 20.7788 23.3945C20.4571 23.1575 20.1302 23.0311 19.8085 22.7941C19.5923 22.6729 19.3814 22.4411 19.0597 22.204C18.738 21.967 18.2952 21.9461 17.9526 22.1519C17.7208 22.3628 17.4889 22.5738 17.1464 22.7796C16.9145 22.9905 16.572 23.1963 16.3401 23.4073C15.5443 23.8136 14.8801 23.7823 14.2472 23.0867C13.82 22.7338 13.514 22.1646 13.1975 21.8168C12.9865 21.585 12.8811 21.469 12.6701 21.2372C12.2481 20.7735 11.6894 20.8581 11.2309 21.1694C10.9991 21.3804 10.7672 21.5913 10.6461 21.8075C10.409 22.1292 10.2879 22.3454 10.1615 22.6723C10.1563 22.783 10.0404 22.8885 10.0352 22.9992C9.7981 23.3209 9.57148 23.4211 9.24979 23.1841C8.92289 23.0577 8.82784 22.7204 8.95419 22.3935C9.33326 21.4128 9.81782 20.548 10.7295 20.0362C11.7624 19.3083 12.7535 19.4659 13.7082 20.3985C14.0246 20.7463 14.3359 21.2048 14.6523 21.5525C14.7526 21.7792 14.9688 21.9003 15.0691 22.1269C15.28 22.3588 15.5014 22.3692 15.844 22.1634C16.0706 22.0632 16.3025 21.8522 16.5343 21.6412C16.8769 21.4355 17.1087 21.2245 17.4513 21.0187C18.2523 20.5017 19.0324 20.4275 19.892 21.0228C20.1082 21.1439 20.3244 21.2651 20.4247 21.4917C20.5301 21.6076 20.7463 21.7288 20.8518 21.8447C21.49 22.4295 22.1542 22.4608 22.8445 21.9386C23.1871 21.7328 23.4189 21.5218 23.7615 21.3161C23.9933 21.1051 24.3359 20.8994 24.6732 20.8043C25.469 20.398 26.3546 20.4397 27.1087 20.9191C27.4304 21.1561 27.8628 21.3984 28.1845 21.6355C28.7223 21.9937 29.2759 22.0198 29.9557 21.719C30.4142 21.4077 30.8675 21.2072 31.3207 21.0066C31.774 20.8061 32.1165 20.6003 32.5646 20.5105C33.2392 20.3204 33.7823 20.5679 34.4361 20.8206C34.763 20.9469 35.0847 21.184 35.4116 21.3103C36.0602 21.6738 36.8299 21.821 37.6153 21.6361C37.9526 21.5411 38.4006 21.4512 38.738 21.3561C39.9766 20.9707 41.1996 20.9174 42.4069 21.1962C43.6194 21.3643 44.7213 21.5272 45.9338 21.6953C46.0445 21.7005 46.0445 21.7005 46.1552 21.7057C46.4821 21.832 46.5824 22.0587 46.5667 22.3908C46.5511 22.7229 46.3192 22.9339 45.9871 22.9182C45.8764 22.913 45.655 22.9026 45.5443 22.8974C45.4336 22.8922 45.2122 22.8817 45.1015 22.8765Z" fill="#6E3F85"/>
<path d="M42.4961 31.0748C42.4752 31.5176 42.1327 31.7234 41.6898 31.7025C41.3577 31.6869 41.1415 31.5657 40.8146 31.4394C39.6073 31.1606 38.3895 31.1032 37.1561 31.3779C36.5974 31.4625 35.928 31.542 35.3744 31.5159C34.8209 31.4898 34.2726 31.353 33.7295 31.1055C33.4026 30.9791 33.1864 30.858 32.8647 30.6209C32.6485 30.4998 32.4271 30.4894 32.3112 30.5949C32.0846 30.6951 31.7472 30.7902 31.5154 31.0011C31.1729 31.2069 30.7196 31.4075 30.377 31.6132C29.5865 31.9088 28.8115 31.8723 28.1734 31.2875C27.8517 31.0504 27.5352 30.7026 27.2188 30.3549C26.3696 29.5382 25.9268 29.5173 25.0099 30.1398C24.6673 30.3456 24.3195 30.6621 24.0877 30.873C23.8559 31.084 23.5133 31.2898 23.2815 31.5008C22.3645 32.1232 21.4737 32.1922 20.4982 31.7024C19.8496 31.339 19.3065 31.0915 18.6579 30.7281C17.6825 30.2383 16.5806 30.0754 15.5686 30.3606C14.7832 30.5455 14.0981 30.957 13.5133 31.5952C13.2815 31.8062 13.1656 31.9116 12.9337 32.1226C12.6966 32.4443 12.2538 32.4234 12.0428 32.1916C11.8319 31.9597 11.742 31.5117 12.0846 31.3059C13.1435 30.0244 14.3978 29.3069 15.9633 29.0478C17.0808 28.8785 18.2882 29.1574 19.2636 29.6471C19.8067 29.8946 20.3446 30.2528 20.9984 30.5055C21.647 30.8689 22.2057 30.7843 22.7801 30.3676C23.1279 30.0511 23.4756 29.7347 23.9289 29.5341C24.3874 29.2229 24.8458 28.9116 25.2991 28.7111C26.0949 28.3048 26.7539 28.4468 27.508 28.9261C27.8297 29.1632 28.1514 29.4002 28.3623 29.6321C28.5733 29.8639 28.7843 30.0958 28.9952 30.3276C29.3169 30.5647 29.6438 30.6911 30.0971 30.4905C30.3237 30.3902 30.5503 30.29 30.777 30.1897C31.0036 30.0894 31.2354 29.8784 31.4621 29.7782C32.3738 29.2664 33.1487 29.3029 34.0135 29.7875L34.1242 29.7927C34.8783 30.272 35.7587 30.4245 36.6548 30.2448C37.3242 30.1654 37.9937 30.086 38.5524 30.0014C39.554 29.9376 40.5451 30.0953 41.4203 30.3584C41.6417 30.3688 41.8579 30.49 42.0794 30.5004C42.3008 30.5109 42.5065 30.8534 42.4961 31.0748Z" fill="#6E3F85"/>
<path d="M28.3281 13.8759C28.56 13.6649 28.7866 13.5647 28.9078 13.3485C29.1396 13.1375 29.3714 12.9265 29.6033 12.7155C30.4095 12.0878 31.079 12.0084 31.8226 12.7092C31.9281 12.8251 32.1391 13.0569 32.2446 13.1728C32.4608 13.294 32.561 13.5206 32.7772 13.6418C33.0989 13.8788 33.4258 14.0052 33.8738 13.9153C34.2112 13.8203 34.4378 13.72 34.7803 13.5143C35.5761 13.108 36.2352 13.25 36.9892 13.7293C37.0947 13.8452 37.2054 13.8504 37.3109 13.9664C37.8488 14.3246 37.8488 14.3246 38.3125 13.9026C38.5443 13.6917 38.6602 13.5862 38.7814 13.37C39.1291 13.0535 39.5876 12.7423 40.1412 12.7683C40.4733 12.784 40.9161 12.8049 41.243 12.9312C42.0023 13.2999 42.7615 13.6685 43.5208 14.0371C43.8425 14.2742 43.9376 14.6115 43.8112 14.9384C43.6849 15.2653 43.3475 15.3604 42.9099 15.2288C42.2561 14.9761 41.7183 14.6179 41.0645 14.3652C41.0645 14.3652 41.0645 14.3652 40.9537 14.3599C40.3052 13.9965 39.7464 14.0811 39.1616 14.7193C39.0405 14.9355 38.8086 15.1465 38.582 15.2467C38.0076 15.6635 37.3381 15.7429 36.8003 15.3847C36.5841 15.2635 36.3731 15.0317 36.1569 14.9106C35.8352 14.6735 35.5031 14.6578 35.2765 14.7581C35.0498 14.8584 34.7125 14.9534 34.4859 15.0537C33.4687 15.4496 32.5883 15.2971 31.7339 14.5912C31.5229 14.3593 31.2013 14.1222 30.9955 13.7797C30.679 13.4319 30.5683 13.4267 30.2206 13.7432C29.9887 13.9542 29.8676 14.1704 29.6357 14.3813C29.4039 14.5923 29.2827 14.8085 29.0561 14.9088C28.4817 15.3255 27.8227 15.1835 27.4008 14.7198C27.1898 14.488 26.9788 14.2561 26.8785 14.0295C26.6676 13.7976 26.5673 13.571 26.3563 13.3392C26.1453 13.1073 25.9291 12.9862 25.5866 13.192C25.36 13.2922 25.244 13.3977 25.1281 13.5032C24.8963 13.7142 24.5537 13.9199 24.3219 14.1309C24.206 14.2364 23.9793 14.3367 23.8634 14.4421C22.9517 14.9539 22.2874 14.9227 21.4331 14.2167C21.3276 14.1008 21.1166 13.8689 21.0112 13.753C20.9057 13.6371 20.6947 13.4052 20.5892 13.2893C20.2727 12.9415 20.0513 12.9311 19.6983 13.3583C19.2347 13.7802 18.9872 14.3233 18.7397 14.8664C18.7344 14.9771 18.6185 15.0826 18.6133 15.1933C18.3762 15.515 18.1548 15.5045 17.8279 15.3782C17.501 15.2518 17.406 14.9145 17.5323 14.5876C17.5428 14.3662 17.6639 14.15 17.7851 13.9338C18.0273 13.5014 18.1537 13.1745 18.396 12.7421C18.633 12.4205 18.8701 12.0988 19.2126 11.893C19.7923 11.3656 20.4565 11.3969 21.0998 11.871C21.4215 12.1081 21.6325 12.3399 21.8435 12.5718C22.0544 12.8036 22.2706 12.9248 22.4816 13.1566C22.6926 13.3884 22.914 13.3989 23.1458 13.1879C23.3725 13.0876 23.6043 12.8766 23.831 12.7764C24.1735 12.5706 24.4054 12.3596 24.7479 12.1539C24.8638 12.0484 25.0905 11.9481 25.3171 11.8478C26.1129 11.4415 26.8826 11.5888 27.4048 12.2791C27.6158 12.5109 27.8216 12.8535 28.0273 13.196C28.0117 13.5281 28.1172 13.6441 28.3281 13.8759Z" fill="#6E3F85"/>
</svg>
