<svg width="21" height="21" viewBox="0 0 21 21" fill="none" xmlns="http://www.w3.org/2000/svg">
<path d="M8.22096 10.6611L15.9729 18.4131C16.2366 18.6768 16.364 18.9844 16.3553 19.3359C16.3465 19.6875 16.2102 19.9951 15.9466 20.2588C15.6829 20.5225 15.3753 20.6543 15.0237 20.6543C14.6721 20.6543 14.3645 20.5225 14.1009 20.2588L5.97974 12.164C5.7688 11.9531 5.6106 11.7158 5.50513 11.4521C5.39966 11.1884 5.34692 10.9248 5.34692 10.6611C5.34692 10.3974 5.39966 10.1338 5.50513 9.87008C5.6106 9.60641 5.7688 9.36911 5.97974 9.15817L14.1009 1.03705C14.3645 0.773375 14.6765 0.645933 15.0369 0.654722C15.3972 0.663511 15.7093 0.799742 15.9729 1.06341C16.2366 1.32709 16.3684 1.63471 16.3684 1.98627C16.3684 2.33783 16.2366 2.64545 15.9729 2.90912L8.22096 10.6611Z" fill="#E67F4F"/>
</svg>
