<svg width="25" height="26" viewBox="0 0 25 26" fill="none" xmlns="http://www.w3.org/2000/svg">
<mask id="mask0_910_2334" style="mask-type:alpha" maskUnits="userSpaceOnUse" x="0" y="0" width="25" height="26">
<rect y="0.5" width="25" height="25" fill="#D9D9D9"/>
</mask>
<g mask="url(#mask0_910_2334)">
<path d="M5.20833 22.375C4.63542 22.375 4.14497 22.171 3.73698 21.763C3.32899 21.355 3.125 20.8646 3.125 20.2917V5.70833C3.125 5.13542 3.32899 4.64497 3.73698 4.23698C4.14497 3.82899 4.63542 3.625 5.20833 3.625H12.5V5.70833H5.20833V20.2917H19.7917V13H21.875V20.2917C21.875 20.8646 21.671 21.355 21.263 21.763C20.855 22.171 20.3646 22.375 19.7917 22.375H5.20833ZM10.1042 16.8542L8.64583 15.3958L18.3333 5.70833H14.5833V3.625H21.875V10.9167H19.7917V7.16667L10.1042 16.8542Z" fill="#E67F4F"/>
</g>
</svg>
