<svg width="177" height="123" viewBox="0 0 177 123" fill="none" xmlns="http://www.w3.org/2000/svg">
<path d="M130.612 77.1344C127.165 71.7786 122.508 67.3083 117.015 64.0843C111.523 60.8602 105.349 58.9728 98.993 58.5744H96.7934C101.87 56.2438 106.18 52.5191 109.223 47.8337C112.265 43.1484 113.914 37.6953 113.978 32.1092C114.665 18.7047 107.791 4.26914 99.8866 2.55062C86.483 -0.542715 73.4229 -0.542704 66.8929 17.3299C65.0455 22.4025 64.3946 27.8333 64.9908 33.1989C65.5869 38.5645 67.414 43.7199 70.3298 48.2633C72.99 52.2136 76.5163 55.505 80.6402 57.887C69.6648 58.7888 59.2853 63.2547 51.0836 70.604C40.0858 81.2589 31.8373 102.568 34.2431 114.254C34.4538 115.921 35.1068 117.502 36.1341 118.831C37.1615 120.161 38.5259 121.191 40.0857 121.816H40.7731C41.1989 121.759 41.606 121.606 41.9633 121.367C42.3207 121.129 42.6189 120.812 42.8351 120.441C42.9421 120.171 42.9909 119.882 42.9784 119.592C42.9659 119.302 42.8923 119.018 42.7626 118.759C42.6328 118.499 42.4497 118.27 42.2253 118.086C42.001 117.902 41.7405 117.768 41.4605 117.691C40.5275 117.284 39.7359 116.61 39.1854 115.754C38.6349 114.898 38.3502 113.897 38.3673 112.88C36.3052 103.6 42.8351 84.0085 54.1766 73.3537C62.692 65.7748 73.7089 61.6126 85.1081 61.6677H85.7955C86.8564 61.6038 87.9006 61.3718 88.8887 60.9803C92.2847 61.7759 95.7288 62.35 99.1992 62.6988C127.381 64.0736 135.286 94.6633 135.629 100.506C136.317 109.443 135.286 114.942 132.88 117.004C132.536 117.348 131.162 118.035 128.412 117.004C127.865 116.822 127.268 116.864 126.753 117.122C126.237 117.38 125.845 117.832 125.663 118.379C125.48 118.926 125.523 119.523 125.781 120.038C126.038 120.554 126.491 120.946 127.037 121.128C128.398 121.802 129.915 122.094 131.428 121.973C132.942 121.852 134.394 121.323 135.629 120.441C140.441 117.004 140.441 107.38 140.097 100.506C138.383 92.1814 135.118 84.253 130.474 77.1344M73.7666 45.8573C71.21 41.8646 69.6289 37.3262 69.1513 32.6092C68.6736 27.8922 69.3129 23.1289 71.0172 18.7047C74.7977 8.39358 80.6402 5.30026 88.5449 5.30026C92.1282 5.46246 95.692 5.92229 99.1992 6.67506C104.354 7.70617 110.541 19.7358 109.853 32.1092C109.921 38.1033 107.846 43.9246 104.002 48.5245C100.159 53.1245 94.7991 56.2009 88.8887 57.1996C82.6338 55.3891 77.2559 51.3554 73.7666 45.8573Z" fill="#794593"/>
<path d="M130.612 77.1344C127.165 71.7786 122.508 67.3083 117.015 64.0843C111.523 60.8602 105.349 58.9728 98.993 58.5744H96.7934C101.87 56.2438 106.18 52.5191 109.223 47.8337C112.265 43.1484 113.914 37.6953 113.978 32.1092C114.665 18.7047 107.791 4.26914 99.8866 2.55062C86.483 -0.542715 73.4229 -0.542704 66.8929 17.3299C65.0455 22.4025 64.3946 27.8333 64.9908 33.1989C65.5869 38.5645 67.414 43.7199 70.3298 48.2633C72.99 52.2136 76.5163 55.505 80.6402 57.887C69.6648 58.7888 59.2853 63.2547 51.0836 70.604C40.0858 81.2588 31.8373 102.568 34.2431 114.254C34.4538 115.921 35.1068 117.502 36.1341 118.831C37.1615 120.161 38.5259 121.191 40.0857 121.816H40.7731C41.1989 121.759 41.606 121.606 41.9633 121.367C42.3207 121.129 42.6189 120.812 42.8351 120.441C42.9421 120.171 42.9909 119.882 42.9784 119.592C42.9659 119.302 42.8923 119.018 42.7626 118.759C42.6328 118.499 42.4497 118.27 42.2253 118.086C42.001 117.902 41.7405 117.768 41.4605 117.691C40.5275 117.284 39.7359 116.61 39.1854 115.754C38.6349 114.898 38.3502 113.897 38.3673 112.88C36.3052 103.6 42.8351 84.0085 54.1766 73.3537C62.692 65.7748 73.7089 61.6126 85.1081 61.6677H85.7955C86.8564 61.6038 87.9006 61.3718 88.8887 60.9803C92.2847 61.7759 95.7288 62.35 99.1992 62.6988C127.381 64.0736 135.286 94.6633 135.629 100.506C136.317 109.443 135.286 114.942 132.88 117.004C132.536 117.348 131.162 118.035 128.412 117.004C127.865 116.822 127.268 116.864 126.753 117.122C126.237 117.38 125.845 117.832 125.663 118.379C125.48 118.926 125.523 119.523 125.781 120.038C126.038 120.554 126.49 120.946 127.037 121.128C128.398 121.802 129.915 122.094 131.428 121.973C132.942 121.852 134.394 121.323 135.629 120.441C140.441 117.004 140.441 107.38 140.097 100.506C138.383 92.1814 135.118 84.253 130.474 77.1344M73.7666 45.8573C71.21 41.8646 69.6289 37.3262 69.1513 32.6092C68.6736 27.8922 69.3129 23.1289 71.0172 18.7047C74.7977 8.39358 80.6402 5.30026 88.5449 5.30026C92.1282 5.46246 95.692 5.92229 99.1992 6.67506C104.354 7.70617 110.541 19.7358 109.853 32.1092C109.921 38.1033 107.846 43.9246 104.002 48.5245C100.159 53.1245 94.7991 56.2009 88.8887 57.1996C82.6338 55.3891 77.2559 51.3554 73.7666 45.8573Z" stroke="#794593" stroke-width="0.1"/>
<path d="M175.84 69.5732C169.31 58.231 158.656 54.1065 148.002 50.6695C152.155 49.1309 155.748 46.376 158.312 42.7643C166.217 31.7658 164.499 15.6117 154.188 8.05024C152.083 6.39104 149.62 5.24717 146.994 4.71006C144.368 4.17295 141.653 4.25746 139.066 4.95687C135.974 5.9213 133.135 7.56325 130.757 9.76314C128.379 11.963 126.521 14.6656 125.319 17.674C123.822 20.8349 123.017 24.279 122.958 27.7761C122.898 31.2731 123.586 34.7426 124.975 37.9525C126.982 42.4122 130.197 46.2219 134.255 48.951H133.911C130.426 49.1881 126.973 49.7637 123.6 50.6695C123.099 50.8062 122.673 51.1366 122.415 51.5878C122.157 52.039 122.089 52.5741 122.226 53.0754C122.363 53.5768 122.693 54.0033 123.144 54.2612C123.595 54.519 124.13 54.587 124.631 54.4503C127.809 53.7998 131.022 53.3407 134.255 53.0754C136.317 52.7317 138.722 52.7317 140.785 52.388C142.503 53.0754 144.565 53.7629 146.284 54.4503C156.594 57.8873 166.217 61.3244 172.06 71.6355C172.221 71.9511 172.467 72.2152 172.771 72.3975C173.075 72.5798 173.424 72.6731 173.778 72.6666C173.965 72.689 174.154 72.6699 174.332 72.6104C174.51 72.551 174.673 72.4528 174.809 72.3229C175.295 72.0779 175.671 71.6591 175.862 71.1496C176.053 70.6401 176.045 70.0773 175.84 69.5732ZM141.128 48.2636C138.389 47.2421 135.883 45.6815 133.758 43.6743C131.633 41.667 129.932 39.2539 128.756 36.5777C127.623 33.8448 127.069 30.9068 127.128 27.949C127.187 24.9913 127.858 22.0778 129.099 19.3925C130.028 16.9509 131.502 14.7531 133.407 12.9664C135.313 11.1797 137.601 9.85105 140.097 9.08136C141.219 8.79717 142.378 8.68131 143.534 8.73763C146.497 8.8084 149.37 9.76623 151.782 11.4873C160.031 17.6739 161.406 31.4221 154.876 40.3584C153.285 42.585 151.234 44.4434 148.862 45.8074C146.49 47.1714 143.853 48.0091 141.128 48.2636Z" fill="#794593" stroke="#794593" stroke-width="0.1"/>
<path d="M42.9727 51.7006C46.2078 51.9413 49.4228 52.4006 52.5958 53.0754C52.844 53.1431 53.1031 53.1612 53.3583 53.1288C53.6135 53.0963 53.8599 53.0139 54.0833 52.8862C54.3067 52.7586 54.5028 52.5881 54.6603 52.3847C54.8179 52.1813 54.9339 51.9488 55.0016 51.7006C55.0693 51.4523 55.0873 51.1932 55.0549 50.9379C55.0224 50.6826 54.9401 50.4363 54.8124 50.2128C54.6847 49.9894 54.5143 49.7933 54.3109 49.6358C54.1074 49.4782 53.875 49.3623 53.6268 49.2946C50.2538 48.3888 46.8007 47.8133 43.3163 47.5761H42.9727C47.9951 44.3273 51.6687 39.3669 53.3119 33.6152C54.9552 27.8635 54.4564 21.711 51.9084 16.299C50.6523 13.324 48.7765 10.6509 46.406 8.45797C44.0354 6.26508 41.2247 4.60283 38.1611 3.58199C35.5739 2.88258 32.8588 2.79807 30.2331 3.33518C27.6074 3.87229 25.1438 5.01611 23.039 6.67531C13.0722 14.2368 11.3539 30.3909 18.9149 41.3894C21.5046 44.9763 25.0894 47.7248 29.2254 49.2946C18.9149 53.0754 7.91695 56.8561 1.38698 68.1984C1.21677 68.413 1.09809 68.6638 1.04024 68.9315C0.982389 69.1993 0.987021 69.4768 1.05345 69.7425C1.11988 70.0082 1.24645 70.2552 1.42348 70.4642C1.60051 70.6732 1.82321 70.8387 2.07439 70.948C2.21018 71.0779 2.37312 71.1761 2.5514 71.2356C2.72968 71.295 2.91882 71.3141 3.1054 71.2917C3.45967 71.2981 3.80865 71.2049 4.11249 71.0226C4.41633 70.8403 4.66281 70.5762 4.82381 70.2606C10.6664 59.9494 20.2895 56.5124 30.6 53.0754C32.3184 52.3879 34.3806 51.7006 36.0991 51.0132C38.5048 51.3569 40.5669 51.3569 42.9727 51.7006ZM22.3518 38.6398C15.8218 29.7035 17.1964 15.9553 25.4448 9.76867C27.8324 7.99915 30.7215 7.03605 33.6932 7.01903C34.8496 6.96271 36.0078 7.07856 37.1301 7.36276C39.6263 8.13245 41.9143 9.46112 43.82 11.2478C45.7257 13.0345 47.199 15.2323 48.128 17.6739C49.3712 20.3587 50.0438 23.2723 50.1029 26.2304C50.1621 29.1885 49.6065 32.1267 48.4716 34.8591C46.0025 40.1999 41.5718 44.3847 36.0991 46.545C33.3747 46.2905 30.737 45.4528 28.3649 44.0888C25.9929 42.7248 23.9422 40.8664 22.3518 38.6398Z" fill="#794593" stroke="#794593" stroke-width="0.1"/>
</svg>
