<svg width="50" height="58" viewBox="0 0 50 58" fill="none" xmlns="http://www.w3.org/2000/svg">
<path d="M28.0797 3.60123C28.0797 4.21645 28.0797 4.67788 28.2069 5.2931C28.2069 6.06213 28.3342 6.67735 28.4614 7.44638C28.8431 9.29205 29.2248 11.2915 29.4792 13.1372C29.7337 14.6753 30.1154 16.3671 30.3698 17.9052C30.497 18.6742 30.4971 19.5971 30.4971 20.3661C30.3698 20.9813 30.1154 21.4427 29.6064 21.4427C29.2248 21.5965 28.9703 21.2889 28.7158 21.1351C28.2069 20.6737 27.9525 20.0585 27.5708 19.4432C26.9347 18.059 26.2985 16.6747 25.6624 15.2905C25.0262 13.9062 24.3901 12.3682 23.754 10.9839C23.2451 9.75347 22.6089 8.36922 21.9728 7.13877C21.3367 5.60071 20.5733 4.21646 19.6827 2.98602C19.5555 2.83221 19.4283 2.67841 19.1738 2.3708C19.0466 2.83222 19.0466 3.29363 19.1738 3.75505C19.4283 4.98549 19.5555 6.21595 19.8099 7.29259C20.0644 8.52304 20.5733 9.75347 20.8278 10.9839C21.0822 11.9068 21.4639 12.8296 21.7183 13.7524C22.3545 15.7519 23.1178 17.7514 23.6268 19.7509C23.8812 20.8275 24.1357 22.0579 24.1357 23.2884C24.1357 23.7498 24.0084 24.2112 23.6268 24.5188C23.1178 24.8265 22.7362 24.6726 22.3545 24.365C21.7183 23.9036 21.2094 23.2884 20.8278 22.6732C19.5555 20.9813 18.5377 18.9818 17.6471 17.1362C16.7565 15.2905 15.8659 13.5986 14.9753 11.753C14.0847 10.0611 13.1941 8.21542 12.3035 6.52356C12.0491 6.06214 11.7946 5.75452 11.5402 5.2931C11.5402 5.2931 11.5401 5.2931 11.4129 5.2931C11.4129 5.44691 11.4129 5.75451 11.4129 5.90832C11.5401 7.75399 12.0491 9.59967 12.6852 11.4453C12.9396 12.2144 13.1941 13.1372 13.5758 13.9062C13.8302 14.8291 14.2119 15.5981 14.5936 16.5209C14.9753 17.5976 15.357 18.5204 15.8659 19.5971C16.2476 20.3661 16.502 21.2889 16.8837 22.0579C17.2654 22.9808 17.6471 23.9036 18.0287 24.8265C18.4104 25.7493 18.7921 26.6721 19.1738 27.595C19.4283 28.364 19.8099 29.133 19.9372 30.0559C20.0644 30.6711 19.9372 31.2863 19.5555 31.5939C19.1738 31.9015 18.7921 31.9015 18.2832 31.7477C17.5198 31.4401 16.7565 30.8249 16.1203 30.2097C14.3391 28.6716 12.8124 26.8259 11.1585 24.9803C9.8862 23.596 8.61393 22.3656 7.46888 21.1351C7.0872 20.6737 6.57829 20.5199 6.19661 20.2123C6.06938 20.0585 5.94214 20.2123 5.94214 20.3661C5.94214 21.1351 6.1966 21.9042 6.45106 22.6732C6.95997 24.2112 7.72332 25.5955 8.48669 26.8259C9.25005 28.0564 10.0134 29.2868 10.904 30.3635C12.6852 32.8244 14.4664 35.1315 16.2476 37.5924C17.2654 38.9766 18.156 40.2071 19.1738 41.5913C20.0644 42.8218 21.0822 44.206 21.9728 45.5903C22.4817 46.3593 22.9906 47.2821 23.4995 48.0512C23.6268 48.205 23.754 48.5126 23.754 48.8202C24.0084 49.5892 23.6267 50.0506 23.1178 50.512C22.7362 50.9735 22.1 51.1273 21.5911 51.2811C20.0644 51.7425 18.4104 52.0501 16.8837 52.5115C15.7387 52.8191 14.5936 52.9729 13.5758 53.5882C13.1941 53.742 12.9396 54.0496 12.6852 54.3572C12.558 54.511 12.558 54.8186 12.6852 54.9724C13.0669 55.5877 13.5758 55.8953 14.0847 56.0491C14.8481 56.3567 15.7387 56.5105 16.6293 56.5105C17.7743 56.5105 18.9193 56.6643 20.0644 56.6643C21.2094 56.6643 22.2273 56.5105 23.3723 56.5105C24.7718 56.3567 26.0441 56.2029 27.4436 55.8953C28.4614 55.7415 29.352 55.4338 30.2426 55.1262C31.3876 54.8186 32.5327 54.3572 33.8049 53.8958C34.5683 53.5882 35.2045 53.2806 35.9678 52.973C36.9856 52.5115 38.0035 51.8963 38.7668 50.9735C39.0213 50.6659 39.2757 50.3583 39.403 50.0506C39.403 50.0506 39.403 50.0506 39.403 49.8968C39.2757 49.8968 39.2757 49.8968 39.1485 49.8968C38.1307 49.8968 37.2401 50.0506 36.2223 49.8968C34.5683 49.743 32.9143 49.5892 31.2604 48.974C30.2426 48.6664 29.352 48.205 28.3342 47.8974C26.9347 47.2821 25.7896 46.3593 24.7718 44.975C24.1357 44.206 23.754 43.1294 23.6268 42.0527C23.3723 40.0532 24.2629 38.2076 25.6624 37.2847C26.1713 36.9771 26.6802 36.8233 27.1891 36.6695C28.0797 36.5157 28.9703 36.8233 29.9881 37.1309C29.9881 36.9771 29.8609 36.8233 29.8609 36.6695C29.4792 35.5929 29.0975 34.3624 28.9703 33.132C28.8431 31.9015 28.8431 30.6711 29.352 29.5945C29.8609 28.2102 30.6242 27.2874 31.8965 26.9798C32.7871 26.8259 33.6777 26.9797 34.5683 27.4412C36.095 28.364 37.3673 29.9021 38.2579 31.5939C39.5302 33.7472 40.4208 36.0543 41.0569 38.5152C41.3114 39.7457 41.5658 40.8223 41.8203 42.0527C41.9475 42.9756 42.0747 43.8984 42.0747 44.8212C42.0747 45.5903 41.9475 46.3593 41.8203 47.1283C41.8203 47.2821 41.8203 47.2821 41.8203 47.4359C42.4564 47.2821 42.9653 47.1283 43.4742 46.9745C44.6193 46.6669 45.6371 46.2055 46.6549 45.5903C46.9094 45.4365 47.0366 45.2827 47.291 45.2827C47.6727 45.1288 48.0544 45.2827 48.1817 45.7441C48.3089 46.2055 48.1816 46.6669 47.7999 46.8207C46.9094 47.2821 46.0188 47.7436 45.1282 48.0512C44.2376 48.3588 43.347 48.6664 42.4564 48.8202C42.0747 48.974 41.6931 48.974 41.3114 49.1278C41.0569 49.1278 41.0569 49.2816 40.9297 49.5892C40.4208 50.8197 39.5302 51.7425 38.6396 52.5115C37.8762 53.1268 36.9856 53.5882 36.095 54.0496C34.5683 54.8186 33.1688 55.28 31.6421 55.8953C30.6243 56.2029 29.6065 56.5105 28.5886 56.8181C27.4436 57.1257 26.2985 57.2795 25.1535 57.4333C24.2629 57.5871 23.2451 57.7409 22.3545 57.7409C20.8278 57.8948 19.1738 57.8947 17.6471 57.8947C16.3748 57.8947 15.1025 57.7409 13.8303 57.4333C12.9397 57.1257 12.1763 56.8181 11.4129 56.2029C10.904 55.7415 10.6496 55.1262 10.6496 54.511C10.6496 53.8958 10.7768 53.4344 11.0312 52.973C11.4129 52.3577 11.9218 51.8963 12.558 51.5887C13.9575 50.8197 15.357 50.5121 16.7565 50.2044C17.9015 49.8968 19.1738 49.5892 20.3188 49.2816C20.8277 49.1278 21.3367 48.8202 21.8456 48.5126C22.1 48.3588 22.1 48.205 21.9728 48.0512C21.7183 47.5897 21.4639 46.9745 21.0822 46.5131C20.0644 44.975 19.0466 43.437 17.9015 42.0527C16.1203 39.5918 14.3392 37.2847 12.558 34.8238C11.4129 33.2858 10.1407 31.5939 8.99561 30.0559C7.85056 28.364 6.83274 26.6721 5.81492 24.8265C5.30601 23.7498 4.7971 22.6732 4.54265 21.4427C4.28819 20.5199 4.28819 19.7509 4.54265 18.828C4.7971 18.3666 5.05156 18.059 5.56047 17.9052C6.19661 17.7514 6.7055 18.059 7.21441 18.5204C7.97778 19.2895 8.86838 20.0585 9.63174 20.8275C10.7768 22.058 11.7946 23.2884 12.9396 24.365C13.703 25.2879 14.5936 26.0569 15.357 26.9798C16.2476 27.9026 17.1382 28.8254 18.156 29.4406C18.156 29.4406 18.2832 29.4406 18.2832 29.5945C18.2832 29.4406 18.156 29.133 18.156 28.9792C17.7743 27.9026 17.3926 26.9797 17.0109 25.9031C16.502 24.8265 16.1203 23.7498 15.6114 22.6732C15.2297 21.5965 14.7208 20.6737 14.3392 19.5971C13.9575 18.828 13.703 17.9052 13.3213 17.1362C12.9396 16.3671 12.6852 15.4443 12.4307 14.6753C12.1763 14.0601 12.0491 13.4448 11.7946 12.8296C11.2857 11.2915 10.7768 9.59967 10.3951 7.9078C10.1406 6.83116 10.0134 5.75453 10.1406 4.67789C10.1406 4.21647 10.2679 3.75505 10.5223 3.44744C10.904 2.98602 11.5401 2.8322 12.0491 3.29362C12.6852 3.75504 13.1941 4.52408 13.5758 5.44692C14.5936 7.4464 15.6114 9.59968 16.6293 11.5992C17.6471 13.7524 18.7921 15.9057 19.9372 17.9052C20.4461 18.9818 21.0822 19.9047 21.7183 20.8275C22.1 21.2889 22.4817 21.7503 22.7362 22.2118C22.7362 22.2118 22.7362 22.2118 22.8634 22.2118C22.8634 21.9041 22.8634 21.7503 22.7362 21.4427C22.4817 19.9047 22.1 18.5204 21.5911 17.1362C21.2094 16.0595 20.8278 14.8291 20.4461 13.5986C19.8099 11.7529 19.301 10.0611 18.7921 8.21541C18.4104 6.83115 18.156 5.44691 17.9015 4.06265C17.7743 3.13982 17.6471 2.37079 17.9015 1.44796C18.0288 0.832732 18.2832 0.217517 18.7921 0.0637114C19.1738 -0.0900945 19.5555 0.0636973 19.9372 0.217503C20.5733 0.678921 20.955 1.29415 21.3367 1.90938C22.3545 3.60124 23.2451 5.2931 24.0084 7.13877C24.6446 8.36922 25.1535 9.75347 25.6624 10.9839C26.1713 12.3682 26.8075 13.5986 27.3164 14.9829C27.8253 16.0595 28.3342 17.29 28.8431 18.3666C28.8431 18.5204 28.9703 18.5204 29.0975 18.6742C29.0975 18.5204 29.0975 18.2128 29.0975 18.059C28.8431 16.3671 28.4614 14.6753 28.2069 12.9834C27.9525 11.2915 27.5708 9.75348 27.3164 8.06162C27.1891 6.98497 27.0619 5.90832 26.9347 4.83168C26.9347 4.21646 26.9347 3.44742 26.9347 2.8322C26.9347 2.21698 27.1891 1.75556 27.698 1.29414C28.2069 0.986528 28.8431 1.29416 29.2248 1.60177C29.9881 2.3708 30.497 3.29362 30.8787 4.37026C31.6421 6.06213 32.4054 7.754 33.1688 9.59968C34.3138 12.0606 35.4589 14.6753 36.604 16.9824C37.8762 19.4433 39.1485 22.058 40.4208 24.5188C41.0569 25.9031 41.693 27.1336 42.3292 28.5178C43.0925 30.3635 43.8559 32.0553 44.3648 34.0548C44.7465 35.4391 45.1282 36.9771 45.2554 38.5152C45.3826 39.7457 45.5099 40.9761 45.6371 42.3604C45.6371 42.5142 45.6371 42.8218 45.6371 42.9756C45.5099 43.437 45.2554 43.5908 44.8737 43.5908C44.4921 43.5908 44.2376 43.1294 44.2376 42.668C44.1104 40.8223 43.9831 38.9766 43.6015 37.1309C43.347 35.5929 42.8381 33.901 42.3292 32.5168C41.4386 30.0559 40.2935 27.7488 39.1485 25.4417C37.4945 22.2118 35.8406 18.9818 34.3139 15.7519C33.5505 14.2139 32.7871 12.522 32.151 10.9839C31.2604 9.13825 30.497 7.13877 29.6064 5.13929C29.2248 4.37026 28.8431 3.75505 28.4614 3.13983C28.3342 3.75505 28.2069 3.60123 28.0797 3.60123ZM40.0391 44.8212C40.0391 44.5136 39.9119 43.7446 39.9119 43.1294C39.7846 41.8989 39.5302 40.6685 39.1485 39.438C38.7668 38.0538 38.2579 36.6695 37.749 35.2853C36.9856 33.5934 36.0951 31.9015 34.95 30.6711C34.3139 29.9021 33.6777 29.4406 32.7871 29.133C32.0238 28.8254 31.2604 28.9792 30.7515 29.5945C30.1153 30.3635 29.9881 31.2863 29.9881 32.363C29.9881 33.2858 30.1154 34.2086 30.4971 35.1315C30.8787 36.2081 31.3876 37.2847 31.7693 38.3614C31.8966 38.8228 31.8965 39.2842 31.6421 39.5918C31.3876 39.8995 31.0059 40.0532 30.6242 39.7456C30.2426 39.5918 29.8609 39.2842 29.352 39.1304C28.5886 38.669 27.698 38.3614 26.8074 38.5152C26.0441 38.669 25.4079 39.1304 24.899 39.8994C24.6446 40.5147 24.5173 41.1299 24.5173 41.8989C24.6446 42.9756 25.1535 43.7446 25.6624 44.3598C26.553 45.2826 27.5708 46.0517 28.7158 46.5131C29.9881 47.1283 31.2604 47.4359 32.5327 47.7436C33.9322 48.0512 35.3317 48.205 36.8584 48.205C37.749 48.205 38.6396 48.0512 39.5302 48.0512C39.6574 48.0512 39.6574 47.8974 39.6574 47.7436C39.9119 47.1283 40.0391 46.2055 40.0391 44.8212Z" fill="#794593"/>
</svg>
