<svg width="16" height="51" viewBox="0 0 16 51" fill="none" xmlns="http://www.w3.org/2000/svg">
<path d="M7.40179 50.0132C7.813 50.3819 8.44523 50.3474 8.8139 49.9362L14.8218 43.2351C15.1905 42.8238 15.156 42.1916 14.7448 41.8229C14.3335 41.4543 13.7013 41.4888 13.3326 41.9L7.9923 47.8566L2.03573 42.5162C1.62451 42.1475 0.992286 42.182 0.623612 42.5932C0.254939 43.0045 0.289426 43.6367 0.700641 44.0054L7.40179 50.0132ZM12.8792 1.9765C13.1423 1.49094 12.9621 0.883987 12.4765 0.620824C11.9909 0.357662 11.384 0.537948 11.1208 1.0235L12.8792 1.9765ZM11.1208 1.0235C9.53431 3.95076 8.5212 8.40595 7.86588 13.3381C7.20624 18.3027 6.895 23.8724 6.77317 29.1085C6.52944 39.5831 7.04227 48.7999 7.07082 49.3231L9.06785 49.2142C9.04013 48.7061 8.53073 39.5508 8.77263 29.155C8.8936 23.956 9.20213 18.4659 9.84846 13.6015C10.4991 8.70464 11.4781 4.56154 12.8792 1.9765L11.1208 1.0235Z" fill="#6A498F"/>
</svg>
