<svg width="49" height="58" viewBox="0 0 49 58" fill="none" xmlns="http://www.w3.org/2000/svg">
<mask id="mask0_436_33339" style="mask-type:luminance" maskUnits="userSpaceOnUse" x="12" y="0" width="25" height="26">
<path d="M36.8367 0.00340508L36.8403 25.1397L12.4525 25.1363L12.449 0L36.8367 0.00340508Z" fill="white"/>
</mask>
<g mask="url(#mask0_436_33339)">
<mask id="mask1_436_33339" style="mask-type:luminance" maskUnits="userSpaceOnUse" x="12" y="-1" width="25" height="27">
<path d="M23.0126 0.713874C23.7951 1.16747 24.4473 1.81541 25.0343 2.5929C25.7515 1.94516 26.6643 1.42702 27.7728 1.03847C30.5114 0.196661 32.9241 0.391355 34.5545 1.62248C35.6631 2.40005 36.9023 4.08461 36.8376 7.3886C36.773 11.7291 34.8831 19.7621 23.1464 25.0727C23.0812 25.1375 22.9508 25.1375 22.8856 25.1375C22.6247 25.1374 22.4291 25.0078 22.2986 24.7487C22.1682 24.4248 22.2985 24.0361 22.6246 23.9065C33.7092 18.8549 35.4688 11.405 35.5334 7.38841C35.5983 5.25054 34.946 3.63085 33.7721 2.7237C32.4679 1.75176 30.4464 1.6219 28.1642 2.33421C27.1209 2.65798 26.3385 3.17614 25.7517 3.75912C26.7953 5.70279 27.1217 7.9055 26.6002 9.00675C26.209 9.71932 25.4918 9.97836 24.7092 9.71911C23.6006 9.33025 22.9484 8.16404 23.0134 6.7388C23.0132 5.70225 23.4043 4.60098 24.1215 3.56453C23.5997 2.85183 23.0128 2.20391 22.3606 1.81511C20.7955 0.907914 18.3176 1.1667 16.4268 2.46212C15.1228 3.36891 13.1016 5.44172 13.8847 9.45844C15.1898 16.1962 23.1458 21.1209 23.7328 21.5097L23.798 21.5097C24.124 21.7041 24.1893 22.0928 23.9937 22.4167C23.7981 22.7406 23.4069 22.8053 23.0808 22.6109C22.6896 22.4165 14.0162 17.1678 12.5805 9.65261C11.9932 6.28375 13.1013 3.23906 15.7094 1.42547C17.9914 -0.193813 20.9909 -0.452526 23.0126 0.713874ZM24.839 4.9251C24.513 5.5729 24.3175 6.22071 24.3176 6.80377C24.3177 7.51639 24.5134 8.29383 25.1655 8.55306C25.2959 8.61786 25.2959 8.55308 25.2959 8.55308C25.3611 8.55309 25.4915 8.22919 25.4914 7.51656C25.4913 6.73915 25.2303 5.76735 24.839 4.9251Z" fill="white"/>
</mask>
<g mask="url(#mask1_436_33339)">
<mask id="mask2_436_33339" style="mask-type:luminance" maskUnits="userSpaceOnUse" x="12" y="-1" width="25" height="27">
<path d="M36.8365 0.00337426L36.84 25.1396L12.4522 25.1361L12.4487 -0.00012207L36.8365 0.00337426Z" fill="white"/>
</mask>
<g mask="url(#mask2_436_33339)">
<path d="M12.4487 -0.000366211L36.8365 0.00313012L36.84 25.1391L12.4522 25.1356L12.4487 -0.000366211Z" fill="white"/>
</g>
</g>
<path d="M24.8388 4.92541C25.2302 5.83245 25.4912 6.73946 25.4913 7.51687C25.4914 8.22949 25.361 8.48861 25.2958 8.55338C25.2958 8.55338 25.2306 8.55337 25.1654 8.55337C24.5133 8.29414 24.3175 7.5167 24.3174 6.80407C24.3173 6.15623 24.5129 5.50842 24.8388 4.92541ZM23.1459 22.676C23.472 22.8704 23.8632 22.7409 24.0588 22.4818C24.2544 22.1579 24.1239 21.7692 23.863 21.5748C23.7978 21.51 15.3201 16.4556 13.9497 9.45873C13.1667 5.5068 15.1878 3.36921 16.4267 2.5272C18.3175 1.23179 20.7954 0.973007 22.3605 1.88021C23.0778 2.26901 23.6648 2.91694 24.1214 3.62963C23.4042 4.66607 23.0131 5.76734 23.0133 6.80389C22.9483 8.22913 23.6005 9.39533 24.7091 9.7842C25.4916 10.0434 26.2089 9.78441 26.5348 9.07183C27.0563 7.97058 26.73 5.76788 25.6864 3.82421C26.2732 3.24123 27.1208 2.72308 28.0989 2.3993C30.4463 1.68701 32.4025 1.81686 33.7068 2.78881C34.9459 3.69597 35.533 5.31565 35.4681 7.45351C35.4034 11.4701 33.5786 18.9848 22.5592 23.9716C22.2332 24.1011 22.1028 24.4898 22.2333 24.8137C22.3637 25.0729 22.5594 25.2025 22.8202 25.2025C22.8854 25.2025 23.0158 25.2026 23.081 25.1378C34.8177 19.8272 36.7076 11.7942 36.7722 7.4537C36.837 4.14972 35.5326 2.52994 34.4891 1.68759C32.8588 0.456464 30.4461 0.261766 27.7074 1.10357C26.6642 1.42734 25.7513 1.94548 25.0341 2.59322C24.5123 1.81573 23.795 1.16779 23.0124 0.714188C20.9908 -0.452214 17.9913 -0.128724 15.7092 1.42577C13.1012 3.23934 11.993 6.28404 12.6456 9.71768C14.1464 17.2976 22.8198 22.4816 23.1459 22.676Z" stroke="white" stroke-width="0.3" stroke-miterlimit="10"/>
</g>
<mask id="mask3_436_33339" style="mask-type:luminance" maskUnits="userSpaceOnUse" x="31" y="19" width="12" height="5">
<path d="M32.3358 19.8183L32.4205 19.8203C35.8117 20.0151 39.3985 20.5985 42.3334 22.4123C43.0508 22.8658 42.3988 23.9667 41.6814 23.5133C38.877 21.829 35.6162 21.3104 32.4207 21.1156C31.6021 21.053 31.5737 19.8433 32.3358 19.8183Z" fill="white"/>
</mask>
<g mask="url(#mask3_436_33339)">
<mask id="mask4_436_33339" style="mask-type:luminance" maskUnits="userSpaceOnUse" x="31" y="19" width="12" height="5">
<path d="M42.5938 19.8216L42.5944 23.643L31.7689 23.6415L31.7683 19.8202L42.5938 19.8216Z" fill="white"/>
</mask>
<g mask="url(#mask4_436_33339)">
<path d="M31.7847 19.8202L42.5938 19.8215L42.5944 23.6208L31.7853 23.6194L31.7847 19.8202Z" fill="white"/>
</g>
</g>
<path d="M32.4207 21.1158C35.6162 21.3105 38.9422 21.8291 41.6814 23.5134C42.3988 23.9669 43.0508 22.866 42.3334 22.4125C39.3985 20.5986 35.8117 20.0152 32.4205 19.8204C31.5727 19.7555 31.5729 21.0509 32.4207 21.1158Z" stroke="white" stroke-width="0.3" stroke-miterlimit="10"/>
<mask id="mask5_436_33339" style="mask-type:luminance" maskUnits="userSpaceOnUse" x="11" y="33" width="10" height="7">
<path d="M13.1709 33.8407C13.497 34.0351 13.5622 34.4237 13.3666 34.7476C13.1059 35.3954 13.1712 36.2375 13.4974 36.8205C13.8887 37.5332 14.5409 37.9219 15.3234 37.922C17.0841 37.8575 18.5186 36.4974 19.2357 35.0076C19.3661 34.6837 19.8226 34.619 20.1486 34.7486C20.4747 34.9429 20.54 35.3316 20.4096 35.6555C19.9533 36.5623 19.3665 37.4044 18.5188 38.052C17.0843 39.0883 14.9324 39.7358 13.3672 38.6343C11.9324 37.5977 11.606 35.5895 12.2579 34.0997C12.3883 33.7758 12.91 33.7111 13.1709 33.8407Z" fill="white"/>
</mask>
<g mask="url(#mask5_436_33339)">
<mask id="mask6_436_33339" style="mask-type:luminance" maskUnits="userSpaceOnUse" x="11" y="33" width="10" height="7">
<path d="M20.4748 33.777L20.4756 39.2184L11.9329 39.2172L11.9321 33.7758L20.4748 33.777Z" fill="white"/>
</mask>
<g mask="url(#mask6_436_33339)">
<path d="M11.9368 33.7781L20.4726 33.7793L20.4733 39.2084L11.9375 39.2072L11.9368 33.7781Z" fill="white"/>
</g>
</g>
<path d="M13.1712 33.8406C12.9104 33.711 12.3887 33.7757 12.2583 34.0996C11.6064 35.5894 11.9327 37.5976 13.3023 38.6342C14.8676 39.7357 17.0846 39.0882 18.4539 38.0519C19.2364 37.4042 19.8884 36.5622 20.3447 35.6554C20.4751 35.3315 20.4098 34.9428 20.0838 34.7484C19.8229 34.5541 19.3664 34.6836 19.1708 35.0074C18.4537 36.4972 17.0845 37.9222 15.2586 37.9219C14.5412 37.9218 13.8891 37.5331 13.4977 36.8204C13.1716 36.1726 13.1062 35.3952 13.367 34.7475C13.5626 34.4236 13.4973 34.0349 13.1712 33.8406Z" stroke="white" stroke-width="0.3" stroke-miterlimit="10"/>
<mask id="mask7_436_33339" style="mask-type:luminance" maskUnits="userSpaceOnUse" x="21" y="35" width="7" height="10">
<path d="M24.2943 35.1107C24.6203 35.1108 25.0115 35.4347 24.9464 35.7587C24.7511 38.2206 24.295 40.6176 23.4477 42.9498C24.6214 42.7556 25.795 42.6262 26.9686 42.432C27.2946 42.3673 27.6207 42.5617 27.7511 42.8857C27.8164 43.2096 27.6208 43.5983 27.2948 43.663C25.73 43.922 24.1651 44.0513 22.6003 44.3103C22.1439 44.375 21.557 44.051 21.8177 43.5327C22.8606 41.0709 23.3819 38.4147 23.6423 35.7585C23.7075 35.4346 23.903 35.1107 24.2943 35.1107Z" fill="white"/>
</mask>
<g mask="url(#mask7_436_33339)">
<mask id="mask8_436_33339" style="mask-type:luminance" maskUnits="userSpaceOnUse" x="21" y="35" width="7" height="10">
<path d="M27.7497 35.1112L27.751 44.3758L21.7523 44.3749L21.751 35.1104L27.7497 35.1112Z" fill="white"/>
</mask>
<g mask="url(#mask8_436_33339)">
<path d="M21.752 35.1104L27.7498 35.1112L27.7511 44.3192L21.7532 44.3183L21.752 35.1104Z" fill="white"/>
</g>
</g>
<path d="M24.2944 35.1106C23.9032 35.1105 23.7076 35.4344 23.6424 35.7584C23.382 38.4146 22.8608 41.0708 21.818 43.5974C21.6224 44.1157 22.2093 44.4397 22.6005 44.375C24.1653 44.116 25.7302 43.9867 27.295 43.7277C27.621 43.5982 27.8165 43.2095 27.7513 42.8855C27.6208 42.4968 27.2948 42.3672 26.9688 42.4319C25.7952 42.6261 24.6215 42.7555 23.4479 42.9498C24.2952 40.6175 24.7513 38.2204 24.9465 35.7585C25.0116 35.4346 24.6204 35.1106 24.2944 35.1106Z" stroke="white" stroke-width="0.3" stroke-miterlimit="10"/>
<mask id="mask9_436_33339" style="mask-type:luminance" maskUnits="userSpaceOnUse" x="27" y="34" width="10" height="5">
<path d="M29.2876 34.6221C29.6138 35.8529 30.527 37.2781 31.9617 37.4726C33.5268 37.6671 34.7656 36.1775 35.6132 35.0764C35.8088 34.8173 36.1349 34.6231 36.461 34.8174C36.7218 34.947 36.9175 35.4005 36.7219 35.7243C35.5483 37.214 33.9183 38.9627 31.8314 38.7681C29.875 38.5087 28.5053 36.7596 27.9834 34.9458C27.7876 34.1685 29.0266 33.8448 29.2876 34.6221Z" fill="white"/>
</mask>
<g mask="url(#mask9_436_33339)">
<mask id="mask10_436_33339" style="mask-type:luminance" maskUnits="userSpaceOnUse" x="27" y="34" width="10" height="5">
<path d="M36.8521 34.1693L36.8527 38.7684L27.9838 38.7671L27.9832 34.1681L36.8521 34.1693Z" fill="white"/>
</mask>
<g mask="url(#mask10_436_33339)">
<path d="M27.9832 34.1763L36.8012 34.1776L36.8018 38.7688L27.9837 38.7674L27.9832 34.1763Z" fill="white"/>
</g>
</g>
<path d="M31.8314 38.7681C33.9183 38.9627 35.6135 37.214 36.7219 35.7243C36.9175 35.4653 36.7871 35.0118 36.461 34.8174C36.1349 34.6231 35.8088 34.7526 35.548 35.0764C34.7004 36.1775 33.3964 37.6671 31.8965 37.4726C30.527 37.3429 29.6138 35.8529 29.2876 34.6221C29.0266 33.8448 27.7876 34.1685 27.9834 34.9458C28.5053 36.7596 29.875 38.5087 31.8314 38.7681Z" stroke="white" stroke-width="0.3" stroke-miterlimit="10"/>
<mask id="mask11_436_33339" style="mask-type:luminance" maskUnits="userSpaceOnUse" x="1" y="20" width="48" height="38">
<path d="M17.8158 21.3185C14.8162 21.5123 12.0774 22.2245 9.33875 23.2606C9.59983 25.1393 11.491 25.917 13.1866 26.4355C17.9471 27.9262 22.9684 28.3804 27.9243 28.4459C33.2716 28.5115 38.5534 27.2167 43.1178 24.367C43.509 24.1727 43.9655 24.3671 44.096 24.7558C44.096 24.691 44.096 24.691 44.1612 24.6263C44.3568 24.3024 44.748 24.2377 45.0741 24.3673C47.2261 25.2745 49.0523 27.4126 48.7918 29.8742C48.5313 32.3359 46.4448 34.0847 44.1625 34.7969C44.0321 34.7969 43.9669 34.8617 43.9017 34.7969C43.8366 35.8982 43.7715 37.0642 43.6413 38.1655C43.2505 41.7932 42.5989 45.5504 40.7082 48.7244C37.7744 53.5177 32.6232 56.8208 27.0152 57.5326C21.668 58.2444 16.0597 56.5592 12.2119 52.8013C8.82049 49.4969 7.12443 44.8972 6.3413 40.2976L6.27609 40.2976C3.60248 40.362 1.45027 38.2887 1.05868 35.7621C0.667075 33.1061 2.4274 30.4503 4.97051 29.7381C5.753 29.4791 6.14443 30.7748 5.29672 30.969C3.34049 31.5517 1.97134 33.5597 2.29765 35.568C2.62395 37.4467 4.12399 39.0017 6.08029 39.002C5.49278 34.2728 5.6878 29.5438 6.40449 24.8149C6.5348 23.9728 7.77385 24.3617 7.64353 25.139C6.86168 30.3214 6.66675 35.6982 7.64558 40.8161C8.49389 45.2861 10.3856 49.7563 13.9725 52.7368C17.9508 56.106 23.6242 57.1434 28.6452 55.8485C33.8619 54.5537 38.3609 50.8618 40.447 46.0035C41.7508 42.8942 42.1416 39.3961 42.3368 36.0275C42.6624 32.7885 42.662 29.4199 42.792 26.116C40.3142 27.5408 37.5755 28.5769 34.7715 29.1595C31.9023 29.7421 29.0331 29.8713 26.0986 29.7413C23.3598 29.6113 20.6209 29.4165 17.882 28.9627C15.5996 28.5736 13.252 28.055 11.0999 27.1478C9.27395 26.3701 7.96956 25.0095 7.90408 22.9365C7.90404 22.6126 8.09964 22.4183 8.36047 22.2887C11.4904 21.0584 14.5552 20.2167 17.8157 20.0228C18.6634 19.9582 18.6635 21.2538 17.8158 21.3185ZM44.096 25.2093C44.0312 27.9949 43.9663 30.7157 43.9015 33.5013C45.5969 32.9833 47.2922 31.6231 47.4876 29.7445C47.683 27.8011 46.1177 26.1813 44.4221 25.4685C44.2265 25.4684 44.1613 25.3389 44.096 25.2093Z" fill="white"/>
</mask>
<g mask="url(#mask11_436_33339)">
<mask id="mask12_436_33339" style="mask-type:luminance" maskUnits="userSpaceOnUse" x="0" y="20" width="49" height="38">
<path d="M48.725 20.0263L48.7304 57.7294L0.931677 57.7227L0.92627 20.0197L48.725 20.0263Z" fill="white"/>
</mask>
<g mask="url(#mask12_436_33339)">
<path d="M1.00244 20.0194L48.7248 20.0259L48.7305 57.695L1.00811 57.6885L1.00244 20.0194Z" fill="white"/>
</g>
</g>
<path d="M43.9019 33.5012C44.032 30.7157 44.0316 27.9949 44.0965 25.2093C44.1617 25.3389 44.2269 25.4685 44.3574 25.5333C46.0529 26.2461 47.6182 27.8011 47.4228 29.8093C47.2274 31.6231 45.5973 32.9832 43.9019 33.5012ZM45.0093 24.4321C44.6833 24.3025 44.292 24.3672 44.0964 24.6911C44.0964 24.7559 44.0964 24.7559 44.0312 24.8207C43.9008 24.4319 43.4443 24.2375 43.053 24.4318C38.4886 27.2814 33.2719 28.5762 27.8594 28.5106C22.9034 28.4451 17.8821 27.926 13.1216 26.5001C11.426 25.9816 9.5348 25.204 9.27372 23.3253C12.0124 22.2892 14.8164 21.5123 17.7509 21.3832C18.5986 21.3186 18.5984 20.0229 17.7507 20.0876C14.4902 20.2814 11.4254 21.1231 8.36064 22.2887C8.09981 22.4182 7.90421 22.6125 7.90425 22.9364C7.96972 25.0094 9.20889 26.37 11.1001 27.1476C13.2522 28.0549 15.5998 28.5735 17.8822 28.9625C20.6212 29.4164 23.36 29.5464 26.0989 29.7412C28.9682 29.936 31.9026 29.7421 34.7718 29.1595C37.5758 28.5769 40.3146 27.5408 42.7924 26.1161C42.6624 29.4198 42.6628 32.7884 42.4676 36.0922C42.2724 39.396 41.8816 42.9588 40.5777 46.0681C38.4916 50.9911 33.9273 54.618 28.7758 55.9128C23.7548 57.2077 18.0813 56.1055 14.103 52.8011C10.5161 49.8207 8.62438 45.3505 7.77608 40.8805C6.79727 35.698 6.99223 30.3212 7.77411 25.2037C7.90443 24.3616 6.66538 24.0375 6.53507 24.8796C5.68791 29.5437 5.49288 34.2726 6.08037 39.0016C4.12404 39.0013 2.55879 37.4464 2.29771 35.5677C1.97141 33.5595 3.34058 31.5515 5.29683 30.9688C6.07932 30.7098 5.75312 29.4789 4.97062 29.7379C2.36229 30.5148 0.667143 33.1706 1.05873 35.7618C1.45032 38.2883 3.66774 40.3617 6.27616 40.2973C6.27616 40.2973 6.27616 40.2973 6.34137 40.2973C7.12448 44.8968 8.82054 49.4965 12.2119 52.8008C16.0598 56.5587 21.6682 58.2438 27.0153 57.5321C32.6234 56.7556 37.7746 53.5174 40.7085 48.7241C42.6644 45.5502 43.316 41.8578 43.6416 38.1653C43.7719 37.0641 43.837 35.8981 43.9021 34.7968C43.9673 34.7968 44.0977 34.7968 44.1629 34.7968C46.4452 34.1494 48.5317 32.3359 48.7922 29.8743C48.9876 27.4774 47.1614 25.3394 45.0093 24.4321Z" stroke="white" stroke-width="0.3" stroke-miterlimit="10"/>
</svg>
