<svg id="Group_35" data-name="Group 35" xmlns="http://www.w3.org/2000/svg" xmlns:xlink="http://www.w3.org/1999/xlink" width="181" height="82" viewBox="0 0 181 82">
  <defs>
    <clipPath id="clip-path">
      <path id="Clip_31" data-name="Clip 31" d="M0,0H45.709V82H0Z" fill="#ff0101"/>
    </clipPath>
  </defs>
  <path id="Fill_1" data-name="Fill 1" d="M12.718,13.331a2.128,2.128,0,0,1-.938.482,5.631,5.631,0,0,1-1.472.169,5.229,5.229,0,0,1-1.621-.247,2.218,2.218,0,0,1-1.25-1.188L5.143,8.012Q4.8,7.318,4.518,6.7t-.6-1.425L3.777,5.3q.092,1.213.1,2.47t.012,2.469v3.477a6.386,6.386,0,0,1-.776.135,7.884,7.884,0,0,1-1.031.067,5.294,5.294,0,0,1-.9-.067,1.411,1.411,0,0,1-.649-.269,1.293,1.293,0,0,1-.394-.55,2.479,2.479,0,0,1-.14-.91V.9A1.936,1.936,0,0,1,1,.225,4.5,4.5,0,0,1,2.433,0,5.167,5.167,0,0,1,4.066.258a2.188,2.188,0,0,1,1.239,1.18L7.621,5.971c.233.463.441.9.626,1.311s.386.887.6,1.425l.116-.022Q8.871,7.474,8.85,6.262T8.827,3.838V.2A6.853,6.853,0,0,1,9.6.067,8.085,8.085,0,0,1,10.634,0a2.855,2.855,0,0,1,1.551.348A1.622,1.622,0,0,1,12.718,1.8Z" transform="translate(59.106 13.49)" fill="#fff"/>
  <path id="Fill_3" data-name="Fill 3" d="M0,2.086A2.026,2.026,0,0,1,.58.559,2.174,2.174,0,0,1,2.155,0H9.8a2.63,2.63,0,0,1,.291.651,2.825,2.825,0,0,1,.127.852,1.612,1.612,0,0,1-.381,1.211,1.413,1.413,0,0,1-1.008.359H3.938V5.161H9.151a2.822,2.822,0,0,1,.416,1.48A1.647,1.647,0,0,1,9.2,7.854a1.375,1.375,0,0,1-1,.359H3.938v2.356H9.891a2.661,2.661,0,0,1,.291.65,2.844,2.844,0,0,1,.127.853A1.648,1.648,0,0,1,9.926,13.3a1.387,1.387,0,0,1-1.008.37H2.155a2.169,2.169,0,0,1-1.576-.56A2.025,2.025,0,0,1,0,11.58Z" transform="translate(77.15 13.693)" fill="#fff"/>
  <path id="Fill_5" data-name="Fill 5" d="M9.521,13.219a2.912,2.912,0,0,1-1.008.472,5.287,5.287,0,0,1-1.495.2,4.451,4.451,0,0,1-1.667-.281,1.739,1.739,0,0,1-.95-.774q-.255-.517-.626-1.335T3,9.674Q2.6,8.663,2.166,7.53t-.822-2.3Q.95,4.064.6,2.941T0,.832A3.043,3.043,0,0,1,.939.259,3.333,3.333,0,0,1,2.247,0a2.568,2.568,0,0,1,1.4.348,2.109,2.109,0,0,1,.8,1.291q.626,2.2,1.262,4.208t1.332,4.185h.139q.626-2.11,1.285-4.6T9.73.472a5.334,5.334,0,0,1,.892-.336A3.917,3.917,0,0,1,11.7,0a2.734,2.734,0,0,1,1.46.371,1.324,1.324,0,0,1,.6,1.222,6.309,6.309,0,0,1-.244,1.437q-.244.942-.626,2.121t-.858,2.458q-.474,1.278-.949,2.412t-.892,2a7.774,7.774,0,0,1-.671,1.2" transform="translate(90.056 13.624)" fill="#fff"/>
  <path id="Fill_7" data-name="Fill 7" d="M8.64,13.578a6.436,6.436,0,0,1-.787.134,8.155,8.155,0,0,1-1.043.069,2.962,2.962,0,0,1-1.6-.348,1.649,1.649,0,0,1-.533-1.469V8.933Q4.1,8.1,3.427,7.092T2.108,5.027Q1.459,3.973.9,2.953A18.733,18.733,0,0,1,0,1.079,3.076,3.076,0,0,1,.822.339,2.312,2.312,0,0,1,2.108,0,2.716,2.716,0,0,1,3.578.359,3.4,3.4,0,0,1,4.656,1.707L6.578,5.454h.139c.216-.464.406-.887.568-1.268s.321-.763.475-1.144.316-.779.486-1.191.363-.886.58-1.423A4.137,4.137,0,0,1,9.751.113,4.616,4.616,0,0,1,10.724,0,2.277,2.277,0,0,1,12.1.416a1.444,1.444,0,0,1,.567,1.245,2.3,2.3,0,0,1-.116.651,7.141,7.141,0,0,1-.532,1.156q-.418.776-1.216,2.1T8.64,9.023Z" transform="translate(106.409 13.624)" fill="#fff"/>
  <path id="Fill_9" data-name="Fill 9" d="M2.177,14.094a4.972,4.972,0,0,1-.937-.08,1.694,1.694,0,0,1-.683-.279,1.236,1.236,0,0,1-.418-.562A2.692,2.692,0,0,1,0,12.23V1.66A.966.966,0,0,1,.266.932,1.932,1.932,0,0,1,1,.516a8.888,8.888,0,0,1,1.8-.391A16.621,16.621,0,0,1,4.819,0,7.821,7.821,0,0,1,9.706,1.325,4.332,4.332,0,0,1,11.4,4.914,5.268,5.268,0,0,1,11.038,6.9,4.125,4.125,0,0,1,9.972,8.427a4.859,4.859,0,0,1-1.783.987,8.146,8.146,0,0,1-2.49.348H4.055v4.129a6.316,6.316,0,0,1-.8.133A8.616,8.616,0,0,1,2.177,14.094ZM5.143,3.142c-.238,0-.445,0-.614.01a4.441,4.441,0,0,0-.5.057V6.687H5.259a2.277,2.277,0,0,0,1.493-.437,1.654,1.654,0,0,0,.522-1.336A1.628,1.628,0,0,0,6.729,3.6,2.412,2.412,0,0,0,5.143,3.142Z" transform="translate(123.075 13.311)" fill="#fff"/>
  <path id="Fill_11" data-name="Fill 11" d="M12.508,8.775a5.553,5.553,0,0,1-.428,2.211,4.7,4.7,0,0,1-1.239,1.706,5.628,5.628,0,0,1-1.969,1.087,8.353,8.353,0,0,1-2.618.383,8.34,8.34,0,0,1-2.617-.383,5.623,5.623,0,0,1-1.97-1.087A4.7,4.7,0,0,1,.428,10.985,5.553,5.553,0,0,1,0,8.775V.2Q.255.157.81.078A7.531,7.531,0,0,1,1.877,0a4.909,4.909,0,0,1,.937.078A1.689,1.689,0,0,1,3.5.359a1.222,1.222,0,0,1,.418.56,2.686,2.686,0,0,1,.139.944V8.706a2.255,2.255,0,0,0,.614,1.684A2.162,2.162,0,0,0,6.254,11a2.154,2.154,0,0,0,1.6-.606,2.283,2.283,0,0,0,.6-1.684V.2q.255-.045.81-.124A7.527,7.527,0,0,1,10.331,0a4.914,4.914,0,0,1,.938.078,1.7,1.7,0,0,1,.684.281,1.212,1.212,0,0,1,.417.56,2.658,2.658,0,0,1,.139.944Z" transform="translate(138.468 13.491)" fill="#fff"/>
  <path id="Fill_13" data-name="Fill 13" d="M4.563,8.572Q3.545,8.234,2.71,7.888a5.7,5.7,0,0,1-1.437-.843A3.491,3.491,0,0,1,.335,5.868,3.777,3.777,0,0,1,0,4.2,3.632,3.632,0,0,1,1.517,1.144,6.929,6.929,0,0,1,5.767,0,12.046,12.046,0,0,1,7.621.134,5.594,5.594,0,0,1,9.091.55a2.546,2.546,0,0,1,.962.717A1.6,1.6,0,0,1,10.4,2.288a1.759,1.759,0,0,1-.277,1,2.839,2.839,0,0,1-.671.706,5.366,5.366,0,0,0-1.368-.55,7.067,7.067,0,0,0-1.876-.235,3.2,3.2,0,0,0-1.529.28.819.819,0,0,0-.487.708.647.647,0,0,0,.3.55,3.178,3.178,0,0,0,.9.393l1.227.382A8.964,8.964,0,0,1,9.972,7.237a3.615,3.615,0,0,1,1.171,2.839A3.694,3.694,0,0,1,9.59,13.161,7.465,7.465,0,0,1,5.026,14.34a11.093,11.093,0,0,1-1.981-.168,6.385,6.385,0,0,1-1.6-.5,2.921,2.921,0,0,1-1.066-.808A1.732,1.732,0,0,1,0,11.759a1.649,1.649,0,0,1,.393-1.111,2.963,2.963,0,0,1,.857-.706,6.4,6.4,0,0,0,1.586.852,5.708,5.708,0,0,0,2.051.359,2.817,2.817,0,0,0,1.6-.337.961.961,0,0,0,.463-.785.764.764,0,0,0-.37-.685,4.962,4.962,0,0,0-1.043-.46Z" transform="translate(154.972 13.312)" fill="#fff"/>
  <path id="Fill_15" data-name="Fill 15" d="M.44,3.21a2.839,2.839,0,0,1-.3-.674A2.9,2.9,0,0,1,0,1.638,1.663,1.663,0,0,1,.406.382,1.472,1.472,0,0,1,1.46,0h10.1a2.989,2.989,0,0,1,.3.674,2.91,2.91,0,0,1,.139.9,1.661,1.661,0,0,1-.406,1.257,1.473,1.473,0,0,1-1.054.381H7.97V13.578a6.511,6.511,0,0,1-.8.134,8.628,8.628,0,0,1-1.078.069,5.006,5.006,0,0,1-.938-.08,1.7,1.7,0,0,1-.684-.28,1.221,1.221,0,0,1-.417-.562,2.651,2.651,0,0,1-.139-.943V3.21Z" transform="translate(169.001 13.625)" fill="#fff"/>
  <path id="Fill_18" data-name="Fill 18" d="M5.328,14.34c-.269,0-.572-.008-.9-.023s-.671-.042-1.054-.09c-.352-.043-.718-.1-1.089-.168a5.56,5.56,0,0,1-1.008-.28A1.685,1.685,0,0,1,0,12.141V1.66A.966.966,0,0,1,.267.932,1.925,1.925,0,0,1,1,.516,10.007,10.007,0,0,1,3.1.1C3.843.034,4.514,0,5.1,0A11.8,11.8,0,0,1,8.375.427,6.82,6.82,0,0,1,10.9,1.74a5.955,5.955,0,0,1,1.634,2.232,8.081,8.081,0,0,1,.58,3.187,8.151,8.151,0,0,1-.557,3.13,6.059,6.059,0,0,1-1.586,2.246A6.735,6.735,0,0,1,8.5,13.892,10.679,10.679,0,0,1,5.328,14.34ZM5.376,3.164c-.221,0-.444.008-.661.023-.241.016-.464.038-.684.067v7.809c.19.032.4.059.626.077.246.023.48.035.695.035A4.489,4.489,0,0,0,6.8,10.951a2.945,2.945,0,0,0,1.136-.695,3.235,3.235,0,0,0,.742-1.224,5.468,5.468,0,0,0,.266-1.808A4.271,4.271,0,0,0,7.97,4.185,3.434,3.434,0,0,0,5.376,3.164Z" transform="translate(59.105 40.765)" fill="#fff"/>
  <path id="Fill_20" data-name="Fill 20" d="M12.508,8.775a5.574,5.574,0,0,1-.428,2.211,4.73,4.73,0,0,1-1.239,1.706,5.642,5.642,0,0,1-1.97,1.087,8.346,8.346,0,0,1-2.617.382,8.341,8.341,0,0,1-2.617-.382,5.642,5.642,0,0,1-1.97-1.087A4.7,4.7,0,0,1,.428,10.985,5.553,5.553,0,0,1,0,8.775V.2Q.255.157.81.078A7.527,7.527,0,0,1,1.876,0a4.914,4.914,0,0,1,.938.078A1.7,1.7,0,0,1,3.5.359a1.205,1.205,0,0,1,.417.56,2.658,2.658,0,0,1,.139.944V8.706a2.255,2.255,0,0,0,.615,1.684A2.162,2.162,0,0,0,6.254,11a2.158,2.158,0,0,0,1.6-.606,2.287,2.287,0,0,0,.6-1.684V.2q.255-.045.811-.124A7.515,7.515,0,0,1,10.331,0a4.923,4.923,0,0,1,.938.078,1.7,1.7,0,0,1,.684.281,1.2,1.2,0,0,1,.416.56,2.655,2.655,0,0,1,.14.944Z" transform="translate(76.213 40.945)" fill="#fff"/>
  <path id="Fill_22" data-name="Fill 22" d="M4.054,13.712a6.667,6.667,0,0,1-.8.134,8.6,8.6,0,0,1-1.078.069,5,5,0,0,1-.937-.078,1.689,1.689,0,0,1-.684-.281,1.225,1.225,0,0,1-.418-.562A2.679,2.679,0,0,1,0,12.051V.2C.17.174.44.131.811.078A7.527,7.527,0,0,1,1.877,0a4.923,4.923,0,0,1,.938.078A1.721,1.721,0,0,1,3.5.359a1.211,1.211,0,0,1,.417.562,2.651,2.651,0,0,1,.139.943Z" transform="translate(107.854 40.944)" fill="#fff"/>
  <path id="Fill_24" data-name="Fill 24" d="M4.563,8.572Q3.545,8.234,2.71,7.888a5.7,5.7,0,0,1-1.437-.843A3.491,3.491,0,0,1,.335,5.868,3.781,3.781,0,0,1,0,4.2,3.632,3.632,0,0,1,1.517,1.144,6.933,6.933,0,0,1,5.768,0,12.041,12.041,0,0,1,7.621.134,5.594,5.594,0,0,1,9.091.55a2.546,2.546,0,0,1,.962.717A1.6,1.6,0,0,1,10.4,2.288a1.752,1.752,0,0,1-.277,1,2.824,2.824,0,0,1-.671.708,5.348,5.348,0,0,0-1.368-.55,7.018,7.018,0,0,0-1.876-.235,3.2,3.2,0,0,0-1.529.28.819.819,0,0,0-.487.708.647.647,0,0,0,.3.55,3.147,3.147,0,0,0,.9.392l1.227.383A8.964,8.964,0,0,1,9.972,7.237a3.615,3.615,0,0,1,1.171,2.839A3.694,3.694,0,0,1,9.59,13.161a7.466,7.466,0,0,1-4.564,1.178,10.982,10.982,0,0,1-1.981-.168,6.337,6.337,0,0,1-1.6-.494,2.921,2.921,0,0,1-1.066-.808A1.734,1.734,0,0,1,0,11.759a1.649,1.649,0,0,1,.393-1.111A2.987,2.987,0,0,1,1.25,9.94a6.362,6.362,0,0,0,1.586.853,5.708,5.708,0,0,0,2.051.359,2.817,2.817,0,0,0,1.6-.337.961.961,0,0,0,.463-.785.764.764,0,0,0-.37-.685,4.933,4.933,0,0,0-1.043-.46Z" transform="translate(92.717 40.766)" fill="#fff"/>
  <path id="Fill_26" data-name="Fill 26" d="M3.191,2.28A11.439,11.439,0,0,1,2.012.464.9.9,0,0,0,1.221,0H0C1.8,3.77,2.757,3.966,3.105,3.993A1.013,1.013,0,0,0,3.226,4c.9,0,1.841-1.315,2.853-4H4.99a.905.905,0,0,0-.828.539,7.444,7.444,0,0,1-.97,1.742" transform="translate(95.248 35.552)" fill="#fff"/>
  <path id="Fill_28" data-name="Fill 28" d="M3.191,2.28A11.405,11.405,0,0,1,2.012.463.9.9,0,0,0,1.221,0H0C1.8,3.77,2.757,3.964,3.105,3.993A1.011,1.011,0,0,0,3.226,4C4.131,4,5.067,2.687,6.08,0H4.99a.906.906,0,0,0-.828.538,7.435,7.435,0,0,1-.97,1.743" transform="translate(171.67 8.231)" fill="#fff"/>
  <g id="Group_32" data-name="Group 32">
    <path id="Clip_31-2" data-name="Clip 31" d="M0,0H45.709V82H0Z" fill="none"/>
    <g id="Group_32-2" data-name="Group 32" clip-path="url(#clip-path)">
      <path id="Fill_30" data-name="Fill 30" d="M45.7,23.706A22.987,22.987,0,0,0,23.481.007,22.868,22.868,0,0,0,.581,18.653h0S-4.489,38.6,15.408,60.214l-4.19,4.022a.686.686,0,0,0-.193.71.713.713,0,0,0,.559.485,6.169,6.169,0,0,0,2.223-.013,4.643,4.643,0,0,0,.99,2.153.533.533,0,0,0,.362.194l.857.061a.5.5,0,0,0,.38-.135,4.844,4.844,0,0,0,1.26-1.906,5.893,5.893,0,0,0,1.671.363c.95,1.774,1.576,4.167-.364,6.034-3.135,3.017-4.19,5.936-3.192,8.88a1.363,1.363,0,0,0,1.961.762c-1.1-1.926-1.84-4.642,2.254-8.578,2.712-2.61,1.694-5.877.509-8.011,0-.008-.591-.975-.8-1.268l-2.27-3.511c26.726-16.271,28.235-32.6,28.271-35.7,0-.344,0-.873,0-1.049" transform="translate(0)" fill="#fff"/>
    </g>
  </g>
  <path id="Fill_33" data-name="Fill 33" d="M16.1,11.765,13.252,11l.57-2.13L15.8,9.4a1.416,1.416,0,0,0,.515.06.665.665,0,0,0,.353-.14A.913.913,0,0,0,16.909,9a2.614,2.614,0,0,0,.174-.482,4.175,4.175,0,0,0,.11-.571c.024-.2.04-.35.048-.444l-2.847-.763.46-1.719-1.72-.46.529-1.976a1.424,1.424,0,0,0,.06-.516.655.655,0,0,0-.14-.353.921.921,0,0,0-.321-.243,2.687,2.687,0,0,0-.481-.175,4.217,4.217,0,0,0-.571-.107c-.2-.025-.351-.042-.444-.049L11,3.992l-2.13-.571L9.4,1.444a1.442,1.442,0,0,0,.06-.515A.666.666,0,0,0,9.321.576.892.892,0,0,0,9,.333,2.7,2.7,0,0,0,8.519.158a4.39,4.39,0,0,0-.57-.108C7.746.025,7.6.008,7.505,0L6.741,2.851,5.02,2.389l-.46,1.718L2.586,3.577a1.469,1.469,0,0,0-.515-.059.673.673,0,0,0-.354.14.955.955,0,0,0-.244.319A2.8,2.8,0,0,0,1.3,4.46a4.921,4.921,0,0,0-.116.576,3.737,3.737,0,0,0-.042.439l2.846.763L3.416,8.369l-1.972-.53a1.469,1.469,0,0,0-.515-.059.661.661,0,0,0-.354.141.937.937,0,0,0-.244.318,2.818,2.818,0,0,0-.174.483A4.852,4.852,0,0,0,.042,9.3,3.737,3.737,0,0,0,0,9.735l2.846.763-.462,1.724,1.721.462-.528,1.969a1.451,1.451,0,0,0-.06.516.666.666,0,0,0,.141.353.9.9,0,0,0,.319.243,2.7,2.7,0,0,0,.482.175,4.953,4.953,0,0,0,.575.116,3.524,3.524,0,0,0,.44.042l.762-2.845,2.13.571L7.839,15.8a1.441,1.441,0,0,0-.059.515.651.651,0,0,0,.14.353.916.916,0,0,0,.319.245,2.8,2.8,0,0,0,.482.174A4.954,4.954,0,0,0,9.3,17.2a3.524,3.524,0,0,0,.44.042L10.5,14.4l1.72.459.462-1.722,1.975.529a1.445,1.445,0,0,0,.516.059.665.665,0,0,0,.353-.14.916.916,0,0,0,.244-.319,2.614,2.614,0,0,0,.174-.482,4.035,4.035,0,0,0,.108-.571c.024-.2.041-.35.049-.444" transform="translate(23.121 18.714)" fill="#6a498f"/>
</svg>
